<svg width="214" height="29" viewBox="0 0 214 29" fill="none" xmlns="http://www.w3.org/2000/svg">
<path d="M86.1115 15.4177C86.7012 12.8439 88.5964 11.7231 90.7747 11.7231C92.9529 11.7231 95.0879 12.8359 95.375 15.4177H86.1115ZM98.2963 23.5514L98.607 20.009C93.4877 22.863 87.1652 23.2632 86.2058 18.2677H99.1339V16.6866C98.9767 11.3068 94.9386 8.64893 90.7747 8.64893C86.5164 8.64893 82.3525 11.4029 82.3525 17.0028C82.3525 25.4808 91.3015 27.2181 98.2963 23.5514Z" fill="white"/>
<path d="M67.3048 15.4177C67.8946 12.8439 69.7898 11.7231 71.9681 11.7231C74.1424 11.7231 76.2813 12.8359 76.5684 15.4177H67.3048ZM79.4858 23.5514L79.7964 20.009C74.6771 22.863 68.3547 23.2632 67.3953 18.2677H80.3233V16.6866C80.166 11.3068 76.128 8.64893 71.9642 8.64893C67.7059 8.64893 63.542 11.4029 63.542 17.0028C63.542 25.4808 72.4949 27.2181 79.4858 23.5514Z" fill="white"/>
<path d="M105.472 2.06836H101.897V24.9125H105.472V17.8875C106.84 17.8875 107.898 17.8875 108.983 18.9002C110.504 20.4814 111.625 22.5068 112.651 24.9125H116.752C115.758 21.6863 112.62 16.6547 109.293 16.6547V16.1783C112.03 16.1783 115.384 11.8113 116.285 9.09332H112.525C111.656 10.9907 110.504 12.7318 108.92 14.1569C107.862 15.1696 106.588 15.1376 105.472 15.1376V2.06836Z" fill="white"/>
<path d="M123.57 12.5398V6.6556H128.854C131.681 6.6556 132.771 8.11263 132.771 9.59768C132.771 11.0547 131.681 12.5398 128.854 12.5398H123.57ZM123.57 21.5862V15.702H129.724C132.551 15.702 133.64 17.159 133.64 18.644C133.64 20.1011 132.491 21.5862 129.661 21.5862H123.57ZM129.63 3.33325H119.839V24.9085H130.561C135.13 24.9085 137.431 22.2826 137.431 19.1205C137.431 16.3344 135.44 14.3451 132.055 14.1209V13.6166C135.287 13.0161 136.499 10.9586 136.499 8.80913C136.499 5.89506 134.261 3.33325 129.63 3.33325Z" fill="white"/>
<path d="M140.178 9.08927V24.9085H143.752V14.2809C145.089 12.92 146.827 12.4477 149.658 12.4477H151.089L150.81 8.80908H149.662C147.298 8.80908 145.062 9.85382 144.193 12.0354H143.756V9.08927H140.178Z" fill="white"/>
<path d="M155.446 16.9989C155.446 13.5205 157.385 11.7472 159.995 11.7472C162.108 11.7472 163.582 12.4117 164.887 13.7726V20.2252C163.582 21.5862 162.108 22.2506 159.995 22.2506C157.389 22.2506 155.446 20.4814 155.446 16.9989ZM164.891 9.08932V11.3989H164.486C163.086 9.53364 161.459 8.58496 159.063 8.58496C154.184 8.58496 151.747 12.6038 151.747 16.9989C151.747 21.394 154.184 25.4128 159.063 25.4128C161.459 25.4128 163.086 24.4642 164.486 22.5989H164.891V24.9085H168.466V9.08932H164.891Z" fill="white"/>
<path d="M172.766 24.9085H176.341V9.08931H172.766V24.9085ZM174.571 7.06788C176.061 7.06788 177.056 6.05517 177.056 4.53809C177.056 3.02102 176.061 2.0083 174.571 2.0083C173.081 2.0083 172.086 3.02102 172.086 4.53809C172.082 6.05517 173.077 7.06788 174.571 7.06788Z" fill="white"/>
<path d="M184.22 9.08932H180.646V24.9085H184.22V13.7726C185.526 12.4757 186.969 11.7472 188.706 11.7472C190.602 11.7472 192.387 12.824 192.387 16.0502V24.9085H195.961V15.2297C195.961 11.1468 194.081 8.58496 190.201 8.58496C188.089 8.58496 185.962 9.50161 184.563 11.527H184.22V9.08932Z" fill="white"/>
<path d="M198.96 13.6805C198.96 16.4944 201.539 17.6032 203.529 18.0475L208.098 19.0282C209.587 19.3444 210.272 19.7888 210.272 20.5454C210.272 21.6862 208.719 22.2225 206.45 22.2225C203.777 22.2225 200.702 21.1778 198.991 20.2291L199.302 23.8036C201.292 24.8483 203.872 25.4167 206.261 25.4167C210.705 25.4167 214 23.9317 214 20.3852C214 17.5071 211.637 16.4304 208.872 15.83L204.708 14.9454C203.403 14.6612 202.688 14.2169 202.688 13.4604C202.688 12.3836 204.087 11.8151 206.325 11.8151C208.841 11.8151 211.546 12.7639 212.974 13.5564L212.663 9.98186C210.952 9.09724 208.746 8.58888 206.51 8.58888C202.444 8.58487 198.96 10.0419 198.96 13.6805Z" fill="white"/>
<path d="M50.5319 12.9921V16.4625H57.1611V20.3493C55.3721 21.402 53.5241 21.8823 51.7666 21.8823C47.5634 21.8823 43.7416 19.1044 43.7416 14.1568C43.7416 9.20938 47.5673 6.43143 51.7666 6.43143C54.4639 6.43143 57.3341 7.5402 59.937 9.77378L59.5517 5.35867C57.0353 3.68148 54.2673 2.88892 51.3458 2.88892C45.503 2.88892 39.7861 6.87573 39.7861 14.1529C39.7861 21.4301 45.503 25.4168 51.3458 25.4168C54.2673 25.4168 57.3145 24.7524 60.7627 22.1586V12.9921H50.5319Z" fill="white"/>
<path d="M11.975 2.5596L11.7229 0.237279C8.3398 -0.813964 4.73213 1.79615 2.53837 4.75403C1.28592 6.47279 0.250095 8.37941 1.31743 10.0982C-0.439145 11.753 -0.439145 15.4103 1.31743 17.0971C0.250095 18.8159 1.28592 20.7226 2.53837 22.4412C4.67305 25.3032 7.3985 27.1819 10.2185 27.1819C13.1329 27.1819 15.4843 24.7316 15.4843 21.7418V19.4834C15.4843 17.9565 14.9211 17.0971 13.8222 15.922L12.1601 14.1073C12.1917 13.9475 12.1917 13.8195 12.1917 13.6636C12.1917 12.4245 11.3134 11.5331 10.0924 11.5331C8.93451 11.5331 8.02471 12.4245 8.02471 13.6636C8.02471 14.7788 8.93451 15.6981 10.0924 15.6981C10.25 15.6981 10.376 15.6661 10.4666 15.6661L12.1917 17.5128C12.8494 18.2443 13.1645 18.7839 13.1645 19.6753V21.7418C13.1645 24.3199 11.0968 25.3991 8.80848 24.5397C7.27246 23.9682 5.70493 22.7891 4.26344 20.8824C2.97948 19.0678 3.25912 18.2123 3.97987 17.7007C4.60608 17.3209 5.26382 17.381 6.39417 18.8159C6.33509 19.0038 6.30359 19.2276 6.30359 19.4514C6.30359 20.6266 7.24489 21.582 8.3713 21.582C9.49772 21.582 10.4075 20.6266 10.4075 19.4514C10.4075 18.3083 9.49772 17.3529 8.3713 17.3529H8.21377C6.8668 15.6023 5.23625 14.3951 2.97948 15.6023C2.16421 14.8707 2.29025 12.2607 2.97948 11.5931C5.23625 12.8002 6.8668 11.5931 8.21377 9.84236H8.3713C9.49772 9.84236 10.4075 8.88705 10.4075 7.74388C10.4075 6.56872 9.49772 5.6134 8.3713 5.6134C7.24489 5.6134 6.30359 6.56872 6.30359 7.74388C6.30359 7.96771 6.33509 8.18755 6.3981 8.37941C5.27169 9.81038 4.61003 9.87434 3.9838 9.49461C3.26305 8.98698 2.97948 8.12759 4.26738 6.3129C6.05152 3.9586 9.12356 1.38446 11.975 2.5596ZM15.6379 24.6357L15.89 26.9581C19.2731 28.0093 22.8807 25.3991 25.0746 22.4412C26.3269 20.7226 27.3628 18.8159 26.2954 17.0971C28.0521 15.4423 28.0521 11.7849 26.2954 10.0982C27.3628 8.37941 26.3269 6.47279 25.0746 4.75403C22.9399 1.89209 20.2144 0.0174377 17.3944 0.0174377C14.48 0.0174377 12.1286 2.46767 12.1286 5.45752V7.71589C12.1286 9.24279 12.6918 10.1022 13.7907 11.2773L15.4528 13.092C15.4212 13.2519 15.4212 13.3799 15.4212 13.5357C15.4212 14.7749 16.2996 15.6661 17.5205 15.6661C18.6784 15.6661 19.5881 14.7749 19.5881 13.5357C19.5881 12.4205 18.6784 11.5012 17.5205 11.5012C17.3629 11.5012 17.2369 11.5331 17.1463 11.5331L15.4212 9.68648C14.7635 8.955 14.4485 8.41539 14.4485 7.52403V5.45752C14.4485 2.87938 16.5162 1.80016 18.8044 2.65953C20.3405 3.23112 21.908 4.41027 23.3495 6.31689C24.6335 8.13159 24.3538 8.98698 23.6331 9.49861C23.0068 9.87834 22.3491 9.81838 21.2187 8.38342C21.2817 8.19155 21.3132 7.97171 21.3132 7.74787C21.3132 6.57272 20.372 5.61741 19.2455 5.61741C18.1191 5.61741 17.2093 6.57272 17.2093 7.74787C17.2093 8.89104 18.1191 9.84635 19.2455 9.84635H19.4031C20.7501 11.5971 22.3806 12.8042 24.6374 11.5971C25.4527 12.3286 25.3266 14.9387 24.6374 15.6062C22.3806 14.3991 20.7501 15.6062 19.4031 17.3569H19.2455C18.1191 17.3569 17.2093 18.3123 17.2093 19.4554C17.2093 20.6305 18.1191 21.5859 19.2455 21.5859C20.372 21.5859 21.3132 20.6305 21.3132 19.4554C21.3132 19.2316 21.2817 19.0117 21.2187 18.8199C22.3452 17.3889 23.0068 17.325 23.6331 17.7047C24.3538 18.2123 24.6374 19.0717 23.3495 20.8864C21.5614 23.2368 18.4894 25.8109 15.6379 24.6357Z" fill="white"/>
</svg>
