<svg width="94" height="39" viewBox="0 0 94 39" fill="none" xmlns="http://www.w3.org/2000/svg">
<path d="M89.8438 6.01514C91.1139 6.01514 92.1185 6.40363 92.8575 7.18061C93.6196 7.93601 94.0006 9.13386 94.0006 10.7742V23.044H89.4974V11.3245C89.4974 10.0727 89.0355 9.44681 88.1118 9.44681C87.2804 9.44681 86.6569 9.85688 86.2412 10.677V10.7742V23.044H81.7726V11.3245C81.7726 10.0727 81.3107 9.44681 80.387 9.44681C79.5325 9.44681 78.8974 9.87846 78.4818 10.7418V23.044H73.9785V6.40363H77.9968L78.2739 7.92522C79.2669 6.65183 80.5486 6.01514 82.119 6.01514C83.9434 6.01514 85.1673 6.74895 85.7909 8.21659C86.7839 6.74895 88.1349 6.01514 89.8438 6.01514Z" fill="white"/>
<path d="M71.4829 15.6949H63.6888V17.864C63.6888 19.4611 64.3123 20.2597 65.5594 20.2597C66.1367 20.2597 66.5986 20.0655 66.945 19.677C67.3145 19.2669 67.5801 18.5331 67.7417 17.4755L71.4829 18.0259C71.0441 21.6518 69.0119 23.4648 65.3862 23.4648C63.4925 23.4648 61.9799 22.9576 60.8483 21.9432C59.7398 20.9288 59.1855 19.4719 59.1855 17.5726V11.6805C59.1855 9.84599 59.7629 8.44311 60.9176 7.47188C62.0722 6.47907 63.5502 5.98267 65.3515 5.98267C67.1528 5.98267 68.6193 6.46828 69.7508 7.43951C70.9055 8.41073 71.4829 9.88916 71.4829 11.8748V15.6949ZM67.2221 11.2597C67.2221 9.74887 66.6332 8.99347 65.4554 8.99347C64.2777 8.99347 63.6888 9.75966 63.6888 11.292V13.0726H67.2221V11.2597Z" fill="white"/>
<path d="M57.2983 19.8717L57.5407 23.0767C56.9172 23.3141 55.9819 23.4328 54.7349 23.4328C53.026 23.4328 51.7789 23.0012 50.9937 22.1379C50.2316 21.2746 49.8506 19.9796 49.8506 18.253V9.80329H48.0146V6.40399H49.8506L50.5434 1.54785H54.3538V6.40399H57.2983V9.80329H54.3538V17.5407C54.3538 19.181 54.9427 20.0012 56.1205 20.0012C56.6055 20.0012 56.998 19.958 57.2983 19.8717Z" fill="white"/>
<path d="M40.3786 23.4973C38.6466 23.4973 37.2725 23.0548 36.2564 22.1699C35.2403 21.2635 34.663 19.8822 34.5244 18.026L38.1963 17.4757C38.3579 19.4829 39.1316 20.4865 40.5172 20.4865C41.0714 20.4865 41.5102 20.357 41.8335 20.098C42.1568 19.8174 42.3185 19.4505 42.3185 18.9973V18.8354C42.3185 18.5116 42.2492 18.2203 42.1106 17.9613C41.9721 17.6807 41.7296 17.4109 41.3832 17.1519C41.0599 16.8929 40.7828 16.6987 40.5518 16.5692C40.3209 16.4181 39.9399 16.2023 39.4087 15.9217C38.6928 15.5548 38.1386 15.2526 37.746 15.0152C37.3534 14.7778 36.8915 14.4433 36.3603 14.0116C35.8292 13.58 35.4366 13.0836 35.1826 12.5224C34.9516 11.9613 34.8362 11.3354 34.8362 10.6447V10.2238C34.8362 8.97204 35.3673 7.94685 36.4296 7.14829C37.4919 6.34972 38.9237 5.95044 40.725 5.95044C44.3738 5.95044 46.279 7.67707 46.4407 11.1303L42.8727 11.6159C42.7111 9.78139 41.9374 8.86412 40.5518 8.86412C39.4202 8.86412 38.8545 9.32815 38.8545 10.2562V10.3533C38.8545 10.6339 38.9353 10.9037 39.0969 11.1627C39.2586 11.4217 39.5126 11.6699 39.859 11.9073C40.2054 12.1447 40.5056 12.339 40.7597 12.49C41.0137 12.6195 41.3947 12.8138 41.9028 13.0728C42.6418 13.4397 43.2191 13.7526 43.6348 14.0116C44.0736 14.249 44.547 14.5836 45.0551 15.0152C45.5862 15.4469 45.9673 15.9541 46.1982 16.5368C46.4522 17.098 46.5793 17.7455 46.5793 18.4793V18.8678C46.5793 20.2491 46.0019 21.3714 44.8472 22.2347C43.7156 23.0764 42.2261 23.4973 40.3786 23.4973Z" fill="white"/>
<path d="M29.1032 6.40381H33.5718L29.6921 22.8823C29.2995 24.5442 28.4912 25.8607 27.2673 26.832C26.0433 27.8248 24.5192 28.3212 22.6948 28.3212C22.0943 28.3212 21.4823 28.2672 20.8588 28.1593V24.9866C21.2745 25.0514 21.6786 25.0838 22.0712 25.0838C23.249 25.0838 24.0111 24.6521 24.3575 23.7888L20.166 6.40381H24.7385L26.8862 17.4758H27.0248L29.1032 6.40381Z" fill="white"/>
<path d="M12.9099 23.4973C11.1779 23.4973 9.8038 23.0548 8.78768 22.1699C7.77156 21.2635 7.19423 19.8822 7.05566 18.026L10.7275 17.4757C10.8892 19.4829 11.6628 20.4865 13.0484 20.4865C13.6027 20.4865 14.0415 20.357 14.3648 20.098C14.6881 19.8174 14.8497 19.4505 14.8497 18.9973V18.8354C14.8497 18.5116 14.7805 18.2203 14.6419 17.9613C14.5033 17.6807 14.2609 17.4109 13.9145 17.1519C13.5911 16.8929 13.314 16.6987 13.0831 16.5692C12.8521 16.4181 12.4711 16.2023 11.94 15.9217C11.2241 15.5548 10.6698 15.2526 10.2772 15.0152C9.88463 14.7778 9.42275 14.4433 8.8916 14.0116C8.36045 13.58 7.96786 13.0836 7.71383 12.5224C7.48289 11.9613 7.36743 11.3354 7.36743 10.6447V10.2238C7.36743 8.97204 7.89858 7.94685 8.96088 7.14829C10.0232 6.34972 11.455 5.95044 13.2563 5.95044C16.9051 5.95044 18.8103 7.67707 18.9719 11.1303L15.404 11.6159C15.2423 9.78139 14.4687 8.86412 13.0831 8.86412C11.9515 8.86412 11.3857 9.32815 11.3857 10.2562V10.3533C11.3857 10.6339 11.4665 10.9037 11.6282 11.1627C11.7898 11.4217 12.0439 11.6699 12.3903 11.9073C12.7367 12.1447 13.0369 12.339 13.2909 12.49C13.545 12.6195 13.926 12.8138 14.4341 13.0728C15.1731 13.4397 15.7504 13.7526 16.1661 14.0116C16.6049 14.249 17.0783 14.5836 17.5863 15.0152C18.1175 15.4469 18.4985 15.9541 18.7295 16.5368C18.9835 17.098 19.1105 17.7455 19.1105 18.4793V18.8678C19.1105 20.2491 18.5332 21.3714 17.3785 22.2347C16.2469 23.0764 14.7574 23.4973 12.9099 23.4973Z" fill="white"/>
<path d="M0.132812 4.00777V0.0581055H4.63606V4.00777H0.132812ZM0.132812 23.0438V6.40346H4.63606V23.0438H0.132812Z" fill="white"/>
<path d="M28.7074 36.49V30.446H29.5708V36.49H28.7074ZM32.5805 36.49V31.1972H30.5082V30.446H35.5075V31.1972H33.4353V36.49H32.5805ZM41.4865 36.49V35.5229L41.4433 35.3416V33.6925C41.4433 33.3414 41.3397 33.0708 41.1325 32.8809C40.931 32.6851 40.6259 32.5873 40.2172 32.5873C39.9467 32.5873 39.6819 32.6333 39.4229 32.7254C39.1638 32.8118 38.9451 32.9298 38.7667 33.0794L38.4213 32.4578C38.6573 32.2678 38.9394 32.1239 39.2675 32.0261C39.6013 31.9225 39.9496 31.8706 40.3122 31.8706C40.9396 31.8706 41.4231 32.0232 41.7628 32.3283C42.1024 32.6333 42.2722 33.0996 42.2722 33.727V36.49H41.4865ZM39.9841 36.5418C39.6445 36.5418 39.3452 36.4842 39.0861 36.3691C38.8329 36.254 38.6372 36.0957 38.499 35.8942C38.3609 35.687 38.2918 35.4539 38.2918 35.1948C38.2918 34.9473 38.3493 34.7228 38.4645 34.5214C38.5853 34.3199 38.7782 34.1587 39.043 34.0379C39.3135 33.917 39.6761 33.8565 40.1309 33.8565H41.5814V34.4523H40.1654C39.751 34.4523 39.4718 34.5214 39.3279 34.6595C39.184 34.7977 39.112 34.9646 39.112 35.1603C39.112 35.3848 39.2013 35.5661 39.3797 35.7043C39.5581 35.8367 39.8057 35.9029 40.1222 35.9029C40.4331 35.9029 40.7036 35.8338 40.9339 35.6956C41.1699 35.5575 41.3397 35.356 41.4433 35.0912L41.6073 35.6611C41.498 35.9316 41.3051 36.1475 41.0288 36.3087C40.7526 36.4641 40.4043 36.5418 39.9841 36.5418ZM45.8006 36.5418C45.3344 36.5418 44.9171 36.4411 44.5487 36.2396C44.186 36.0381 43.9011 35.7618 43.6939 35.4107C43.4867 35.0596 43.383 34.6566 43.383 34.2019C43.383 33.7472 43.4867 33.3442 43.6939 32.9931C43.9011 32.642 44.186 32.3686 44.5487 32.1728C44.9171 31.9714 45.3344 31.8706 45.8006 31.8706C46.2151 31.8706 46.5835 31.9541 46.9058 32.121C47.2339 32.2822 47.4872 32.524 47.6656 32.8463L47.0353 33.2521C46.8857 33.0276 46.7015 32.8636 46.4828 32.76C46.2698 32.6506 46.0395 32.5959 45.792 32.5959C45.4927 32.5959 45.225 32.6621 44.989 32.7945C44.753 32.9269 44.5659 33.114 44.4278 33.3557C44.2896 33.5917 44.2206 33.8738 44.2206 34.2019C44.2206 34.53 44.2896 34.8149 44.4278 35.0567C44.5659 35.2985 44.753 35.4855 44.989 35.6179C45.225 35.7503 45.4927 35.8165 45.792 35.8165C46.0395 35.8165 46.2698 35.7647 46.4828 35.6611C46.7015 35.5517 46.8857 35.3848 47.0353 35.1603L47.6656 35.5575C47.4872 35.8741 47.2339 36.1187 46.9058 36.2914C46.5835 36.4583 46.2151 36.5418 45.8006 36.5418ZM51.5795 36.49V35.5229L51.5363 35.3416V33.6925C51.5363 33.3414 51.4327 33.0708 51.2255 32.8809C51.024 32.6851 50.7189 32.5873 50.3102 32.5873C50.0397 32.5873 49.7749 32.6333 49.5159 32.7254C49.2569 32.8118 49.0381 32.9298 48.8597 33.0794L48.5143 32.4578C48.7503 32.2678 49.0324 32.1239 49.3605 32.0261C49.6943 31.9225 50.0426 31.8706 50.4052 31.8706C51.0326 31.8706 51.5162 32.0232 51.8558 32.3283C52.1954 32.6333 52.3652 33.0996 52.3652 33.727V36.49H51.5795ZM50.0771 36.5418C49.7375 36.5418 49.4382 36.4842 49.1791 36.3691C48.9259 36.254 48.7302 36.0957 48.592 35.8942C48.4539 35.687 48.3848 35.4539 48.3848 35.1948C48.3848 34.9473 48.4424 34.7228 48.5575 34.5214C48.6784 34.3199 48.8712 34.1587 49.136 34.0379C49.4065 33.917 49.7692 33.8565 50.2239 33.8565H51.6745V34.4523H50.2584C49.844 34.4523 49.5648 34.5214 49.4209 34.6595C49.277 34.7977 49.205 34.9646 49.205 35.1603C49.205 35.3848 49.2943 35.5661 49.4727 35.7043C49.6512 35.8367 49.8987 35.9029 50.2153 35.9029C50.5261 35.9029 50.7966 35.8338 51.0269 35.6956C51.2629 35.5575 51.4327 35.356 51.5363 35.0912L51.7004 35.6611C51.591 35.9316 51.3982 36.1475 51.1219 36.3087C50.8456 36.4641 50.4973 36.5418 50.0771 36.5418ZM55.79 36.5418C55.3468 36.5418 54.9496 36.4439 54.5985 36.2482C54.2531 36.0525 53.9797 35.7791 53.7783 35.428C53.5768 35.0768 53.4761 34.6682 53.4761 34.2019C53.4761 33.7357 53.5768 33.3298 53.7783 32.9845C53.9797 32.6333 54.2531 32.3599 54.5985 32.1642C54.9496 31.9685 55.3468 31.8706 55.79 31.8706C56.1757 31.8706 56.524 31.957 56.8348 32.1297C57.1456 32.3024 57.3931 32.5614 57.5773 32.9068C57.7673 33.2521 57.8623 33.6838 57.8623 34.2019C57.8623 34.72 57.7702 35.1517 57.586 35.497C57.4075 35.8424 57.1629 36.1043 56.8521 36.2828C56.5412 36.4555 56.1872 36.5418 55.79 36.5418ZM55.8591 35.8165C56.1469 35.8165 56.406 35.7503 56.6362 35.6179C56.8722 35.4855 57.0564 35.2985 57.1888 35.0567C57.3269 34.8092 57.396 34.5243 57.396 34.2019C57.396 33.8738 57.3269 33.5917 57.1888 33.3557C57.0564 33.114 56.8722 32.9269 56.6362 32.7945C56.406 32.6621 56.1469 32.5959 55.8591 32.5959C55.5656 32.5959 55.3036 32.6621 55.0734 32.7945C54.8431 32.9269 54.659 33.114 54.5208 33.3557C54.3827 33.5917 54.3136 33.8738 54.3136 34.2019C54.3136 34.5243 54.3827 34.8092 54.5208 35.0567C54.659 35.2985 54.8431 35.4855 55.0734 35.6179C55.3036 35.7503 55.5656 35.8165 55.8591 35.8165ZM57.4219 36.49V35.2553L57.4737 34.1933L57.3874 33.1313V30.0833H58.2163V36.49H57.4219ZM61.8223 36.5418C61.333 36.5418 60.9013 36.4411 60.5272 36.2396C60.1588 36.0381 59.871 35.7618 59.6637 35.4107C59.4623 35.0596 59.3615 34.6566 59.3615 34.2019C59.3615 33.7472 59.4594 33.3442 59.6551 32.9931C59.8566 32.642 60.13 32.3686 60.4754 32.1728C60.8265 31.9714 61.2208 31.8706 61.6583 31.8706C62.1015 31.8706 62.4929 31.9685 62.8325 32.1642C63.1721 32.3599 63.4369 32.6362 63.6269 32.9931C63.8226 33.3442 63.9204 33.7558 63.9204 34.2278C63.9204 34.2623 63.9176 34.3026 63.9118 34.3487C63.9118 34.3947 63.9089 34.4379 63.9032 34.4782H60.0091V33.8824H63.4715L63.1347 34.0897C63.1405 33.7961 63.08 33.5342 62.9534 33.3039C62.8268 33.0737 62.6512 32.8952 62.4267 32.7686C62.208 32.6362 61.9518 32.57 61.6583 32.57C61.3704 32.57 61.1143 32.6362 60.8898 32.7686C60.6653 32.8952 60.4897 33.0766 60.3631 33.3126C60.2365 33.5428 60.1732 33.8076 60.1732 34.1069V34.2451C60.1732 34.5502 60.2422 34.8236 60.3804 35.0653C60.5243 35.3013 60.7229 35.4855 60.9761 35.6179C61.2294 35.7503 61.5201 35.8165 61.8482 35.8165C62.1188 35.8165 62.3634 35.7705 62.5821 35.6784C62.8066 35.5863 63.0023 35.4481 63.1693 35.2639L63.6269 35.7992C63.4196 36.041 63.1606 36.2252 62.8498 36.3518C62.5447 36.4785 62.2022 36.5418 61.8223 36.5418ZM70.796 31.8706C71.1644 31.8706 71.4896 31.9426 71.7716 32.0865C72.0537 32.2304 72.2724 32.4491 72.4278 32.7427C72.589 33.0363 72.6696 33.4075 72.6696 33.8565V36.49H71.8407V33.9515C71.8407 33.5083 71.7371 33.1744 71.5299 32.9499C71.3227 32.7254 71.032 32.6132 70.6578 32.6132C70.3815 32.6132 70.1398 32.6708 69.9325 32.7859C69.7253 32.901 69.5641 33.0708 69.449 33.2953C69.3396 33.5198 69.285 33.799 69.285 34.1328V36.49H68.4561V33.9515C68.4561 33.5083 68.3525 33.1744 68.1452 32.9499C67.9438 32.7254 67.6531 32.6132 67.2732 32.6132C67.0026 32.6132 66.7638 32.6708 66.5565 32.7859C66.3493 32.901 66.1881 33.0708 66.073 33.2953C65.9579 33.5198 65.9003 33.799 65.9003 34.1328V36.49H65.0714V31.9138H65.8658V33.1313L65.7363 32.8204C65.8802 32.5211 66.1018 32.288 66.4011 32.121C66.7004 31.9541 67.0487 31.8706 67.4459 31.8706C67.8833 31.8706 68.2604 31.98 68.577 32.1987C68.8935 32.4117 69.1008 32.737 69.1986 33.1744L68.8619 33.0363C69 32.6851 69.2418 32.4031 69.5872 32.1901C69.9325 31.9771 70.3355 31.8706 70.796 31.8706ZM74.309 38.2168C74.0903 38.2168 73.8773 38.1794 73.6701 38.1046C73.4629 38.0355 73.2844 37.9319 73.1348 37.7938L73.4888 37.1721C73.6039 37.2815 73.7305 37.3649 73.8687 37.4225C74.0068 37.4801 74.1536 37.5088 74.309 37.5088C74.5105 37.5088 74.6774 37.457 74.8098 37.3534C74.9422 37.2498 75.066 37.0656 75.1811 36.8008L75.466 36.1705L75.5524 36.0669L77.3483 31.9138H78.1599L75.9409 36.9476C75.8085 37.27 75.6589 37.5232 75.4919 37.7074C75.3308 37.8916 75.1523 38.0211 74.9566 38.096C74.7609 38.1766 74.545 38.2168 74.309 38.2168ZM75.397 36.6368L73.3075 31.9138H74.1709L75.9496 35.9892L75.397 36.6368Z" fill="white"/>
<rect x="80.832" y="30.5642" width="13.0656" height="6.9171" fill="white"/>
</svg>
