<svg width="164" height="26" viewBox="0 0 164 26" fill="none" xmlns="http://www.w3.org/2000/svg">
<g clip-path="url(#clip0_2121_184)">
<path d="M145.654 0.854248V4.92586H145.895C146.344 4.15948 146.934 3.48771 147.67 2.91371C148.312 2.40279 149.096 1.93917 150.025 1.52602C150.985 1.07817 152.17 0.854248 153.58 0.854248C156.587 0.854248 158.942 1.73102 160.639 3.48771C162.336 5.21286 163.183 7.76748 163.183 11.1516V25.9999H156.459V12.1103C156.459 10.2906 156.01 8.91863 155.112 7.9914C154.215 7.06417 152.982 6.60371 151.415 6.60371C150.647 6.60371 149.911 6.76456 149.206 7.0831C148.502 7.40163 147.879 7.84948 147.332 8.42348C146.82 8.96594 146.403 9.63771 146.084 10.4356C145.797 11.2336 145.652 12.1135 145.652 13.0691V25.9999H138.927V0.854248H145.654Z" fill="white"/>
<path d="M126.859 0.854248V5.14663H127.1C127.387 4.38025 127.82 3.70848 128.395 3.13448C128.875 2.62356 129.517 2.15994 130.316 1.74679C131.116 1.29894 132.124 1.07502 133.34 1.07502H136.223V7.5404H132.62C130.796 7.5404 129.372 8.03556 128.344 9.02586C127.352 10.0162 126.857 11.3566 126.857 13.0502V25.981H120.132V0.854248H126.859Z" fill="white"/>
<path d="M76.5381 25.915C74.737 25.915 73.0465 25.5901 71.4633 24.9404C69.9118 24.2907 68.5625 23.4077 67.4123 22.2943C66.2652 21.1495 65.3647 19.8186 64.7137 18.3016C64.0628 16.753 63.7373 15.1162 63.7373 13.3816C63.7373 11.647 64.0628 10.0259 64.7137 8.50886C65.3647 6.96032 66.2652 5.63255 67.4123 4.51609C68.5594 3.37124 69.9118 2.47555 71.4633 1.82586C73.0465 1.17616 74.737 0.851318 76.5381 0.851318C77.8116 0.851318 78.9587 0.990088 79.9825 1.26763C81.0062 1.51363 81.9227 1.85424 82.7284 2.28947C83.5342 2.72155 84.2325 3.2167 84.8235 3.77493C85.4428 4.33316 85.9705 4.90401 86.4066 5.49063C87.4304 6.85309 88.1762 8.39847 88.6406 10.1331H81.891C81.6129 9.45186 81.2402 8.8337 80.7725 8.27547C80.3364 7.81186 79.7802 7.3924 79.0977 7.0234C78.4468 6.6197 77.5936 6.42101 76.5381 6.42101C75.7324 6.42101 74.955 6.59132 74.2092 6.93193C73.4951 7.27255 72.86 7.75193 72.3007 8.37009C71.7414 8.9567 71.2927 9.68524 70.9514 10.5526C70.6417 11.3883 70.4869 12.3313 70.4869 13.3847C70.4869 14.4381 70.6417 15.3969 70.9514 16.261C71.2927 17.0968 71.7414 17.8222 72.3007 18.4435C72.86 19.0301 73.4951 19.4969 74.2092 19.8343C74.955 20.175 75.7292 20.3453 76.5381 20.3453C77.5936 20.3453 78.4468 20.1592 79.0977 19.787C79.7802 19.3833 80.3395 18.9513 80.7725 18.4877C81.237 17.9294 81.6098 17.3113 81.891 16.63H88.6406C88.2362 18.3615 87.5221 19.91 86.4983 21.2725C86.0621 21.8591 85.5376 22.4331 84.9151 22.9882C84.3242 23.5464 83.629 24.0416 82.8201 24.4737C82.0143 24.9057 81.0821 25.2463 80.0267 25.4955C79.0029 25.773 77.84 25.9118 76.535 25.9118L76.5381 25.915Z" fill="white"/>
<path d="M53.918 0.854248H61.0341V25.9147H53.918V0.854248Z" fill="white"/>
<path d="M33.6865 0.854248V4.92586H33.9266C34.3754 4.15948 34.9662 3.48771 35.7025 2.91371C36.344 2.40279 37.1276 1.93917 38.0566 1.52602C39.0173 1.07817 40.2023 0.854248 41.6116 0.854248C44.6198 0.854248 46.9739 1.73102 48.6709 3.48771C50.3677 5.21286 51.2146 7.76748 51.2146 11.1516V25.9999H44.4902V12.1103C44.4902 10.2906 44.0416 8.91863 43.1442 7.9914C42.2467 7.06417 41.0143 6.60371 39.447 6.60371C38.6791 6.60371 37.9429 6.76456 37.2383 7.0831C36.5336 7.40163 35.911 7.84948 35.3644 8.42348C34.8525 8.96594 34.4354 9.63771 34.1162 10.4356C33.8287 11.2336 33.6833 12.1135 33.6833 13.0691V25.9999H26.959V0.854248H33.6865Z" fill="white"/>
<path d="M17.5281 25.9147V21.843H17.2879C16.8392 22.6094 16.2483 23.2812 15.5121 23.8552C14.8706 24.3661 14.087 24.8297 13.1579 25.2429C12.1973 25.6907 11.0123 25.9147 9.60301 25.9147C6.59475 25.9147 4.24062 25.0379 2.54374 23.2812C0.846859 21.556 0 19.0014 0 15.6174V0.769043H6.72431V14.6586C6.72431 16.4784 7.17303 17.8503 8.07044 18.7775C8.96786 19.7047 10.2003 20.1652 11.7675 20.1652C12.5355 20.1652 13.2717 20.0044 13.9763 19.6858C14.681 19.3673 15.3035 18.9194 15.8501 18.3454C16.3621 17.803 16.7792 17.1312 17.0984 16.3333C17.3859 15.5353 17.5312 14.6554 17.5312 13.6998V0.769043H24.2556V25.9147H17.5281Z" fill="white"/>
<path d="M117.429 13.3847C117.429 20.3516 111.589 26.0001 104.386 26.0001C103.828 26.0001 103.277 25.9653 102.739 25.8999C102.722 25.8216 102.699 25.7433 102.681 25.6628C102.489 24.8294 102.328 23.9961 102.22 23.152C102.116 22.3795 102.058 21.6005 102.058 20.8129C102.058 19.2506 102.297 17.7341 102.967 16.3046C103.16 15.8868 103.391 15.4909 103.621 15.0927C103.673 15.0035 103.776 14.9034 103.88 14.8729C104.021 14.8272 104.177 14.8316 104.328 14.8272C104.442 14.8272 104.51 14.8838 104.55 14.9883C104.681 15.3102 104.903 15.5518 105.214 15.7106C105.432 15.8173 105.65 15.9282 105.884 15.9979C106.586 16.2175 107.238 16.52 107.873 16.8769C108.325 17.1271 108.782 17.3686 109.243 17.5992C109.353 17.6536 109.389 17.7102 109.385 17.8211C109.377 18.1106 109.457 18.3782 109.643 18.6197C110.043 19.1354 110.458 19.2768 111.076 19.0505C111.247 18.9852 111.402 18.9809 111.569 18.9852C111.964 18.9961 112.291 18.8547 112.566 18.5892C112.977 18.191 113.121 17.695 113.137 17.1467C113.141 16.9922 113.128 16.8312 113.157 16.6745C113.247 16.2894 113.231 15.9282 113.112 15.5909C113.033 15.3451 112.898 15.1144 112.716 14.8882C112.032 14.0396 111.418 13.1453 110.889 12.1967C110.592 11.6592 110.306 11.1109 110.064 10.554C109.794 9.95779 109.524 9.35941 109.176 8.8024L109.587 8.4151L113.688 4.90116L108.194 7.51705C108.044 7.29729 107.655 6.60265 107.5 6.38072C107.473 6.34156 107.452 6.26105 107.473 6.22188C107.691 5.79977 107.853 5.35809 107.961 4.90116C107.988 4.7989 108.008 4.69881 108.028 4.59437C108.138 4.04172 108.091 3.49994 107.821 2.98209C107.81 2.99297 107.801 3.00168 107.794 3.0082C107.599 3.2693 107.412 3.5304 107.209 3.78062C107.023 4.01125 106.809 4.22231 106.631 4.45947C106.503 4.62919 106.42 4.82936 106.305 5.02519C106.15 4.51387 106.321 3.94598 106.055 3.42813C105.972 3.5304 105.9 3.63048 105.813 3.71534C105.619 3.91117 105.412 4.09176 105.214 4.28323C104.967 4.52474 104.785 4.80543 104.705 5.1405C104.696 5.18619 104.669 5.23189 104.665 5.24712C104.546 5.221 104.442 5.16661 104.343 5.17749C103.848 5.21231 103.403 5.36244 103.026 5.68446C102.972 5.72362 102.879 5.73886 102.807 5.7345C102.656 5.72362 102.498 5.6627 102.351 5.68446C101.736 5.75844 101.192 6.0043 100.703 6.36766C100.663 6.40248 100.6 6.43077 100.548 6.43729C100.132 6.4721 99.8105 6.6788 99.5456 6.96819C99.4059 7.11397 99.2707 7.22928 99.0635 7.24452C99.0121 7.24452 98.9535 7.27498 98.913 7.30544C98.7868 7.41205 98.6634 7.52084 98.5399 7.62746C98.4723 7.68621 98.4093 7.74278 98.3417 7.79717C98.2903 7.83852 98.2227 7.87333 98.1597 7.87768C97.6983 7.9125 97.3343 8.08873 97.1225 8.49996C97.1 8.53478 97.0486 8.57177 97.0081 8.58047C96.9963 8.58047 96.981 8.587 96.972 8.587C96.6593 8.6414 96.4674 8.83721 96.3124 9.09396C96.2809 9.13748 96.2178 9.18317 96.1619 9.20275C95.9952 9.25497 95.8294 9.30502 95.7186 9.43991C95.6104 9.57482 95.5167 9.7206 95.4131 9.86642C95.3924 9.9012 95.3681 9.93599 95.341 9.97302C95.305 10.0165 95.2572 10.073 95.2059 10.0927C94.8887 10.1971 94.6391 10.3886 94.4796 10.6453C94.3642 10.8216 94.2921 11.026 94.2768 11.2524C94.2723 11.2872 94.2453 11.3329 94.221 11.3481C94.0425 11.4287 93.9191 11.5636 93.8092 11.7137C93.5821 12.0356 93.3478 12.3512 93.3208 12.7537C93.3163 12.7798 93.2847 12.7994 93.2604 12.8146C93.1766 12.869 93.0712 12.9103 92.9991 12.9757C92.6621 13.2867 92.4791 13.6828 92.3764 14.1136C92.3557 14.2006 92.3151 14.2506 92.2367 14.2963C91.9286 14.4682 91.6609 14.6728 91.442 14.9317C91.3771 14.4247 91.3438 13.909 91.3438 13.3847C91.3438 6.41771 97.1829 0.769287 104.386 0.769287C111.589 0.769287 117.429 6.41771 117.429 13.3847Z" fill="white"/>
</g>
<defs>
<clipPath id="clip0_2121_184">
<rect width="164" height="25.2308" fill="white" transform="translate(0 0.769043)"/>
</clipPath>
</defs>
</svg>
