<svg width="126" height="39" viewBox="0 0 126 39" fill="none" xmlns="http://www.w3.org/2000/svg">
<path d="M68.1863 29.7247C66.7468 29.7247 65.5797 28.5591 65.5797 27.1214V19.203V9.59993C65.5529 4.31155 61.2626 0 55.9391 0H52.8159V8.65142H54.6083C56.0478 8.65142 57.2149 9.81701 57.2149 11.2547V19.1731V28.7463C57.2149 34.0614 61.532 38.3463 66.8271 38.3463H69.9503V29.6948H68.1848V29.7247H68.1863Z" fill="#C8C6C6"/>
<path d="M85.3493 29.7247C83.9097 29.7247 82.7426 28.5591 82.7426 27.1214V19.203V9.59993C82.7411 4.28481 78.424 0 73.1288 0H70.0056V8.65142H71.798C73.2375 8.65142 74.4046 9.81701 74.4046 11.2547V19.1731V28.7463C74.4046 34.0614 78.7217 38.3463 84.0168 38.3463H87.14V29.6948H85.3493V29.7247Z" fill="#C8C6C6"/>
<path d="M101.452 9.65479C93.5505 9.65479 87.1418 16.0553 87.1418 23.9469C87.1418 31.8386 93.5505 38.2391 101.452 38.2391C109.354 38.2391 115.763 31.8386 115.763 23.9469C115.763 16.0553 109.354 9.65479 101.452 9.65479ZM101.452 30.673C97.7321 30.673 94.7176 27.6623 94.7176 23.9469C94.7176 20.2315 97.7321 17.2208 101.452 17.2208C105.172 17.2208 108.187 20.2315 108.187 23.9469C108.187 27.6623 105.172 30.673 101.452 30.673Z" fill="#C8C6C6"/>
<path d="M126 34.2263C126 36.4773 124.154 38.3208 121.901 38.3208C119.647 38.3208 117.801 36.4773 117.801 34.2263C117.801 31.9754 119.647 30.1318 121.901 30.1318C124.181 30.1303 126 31.9471 126 34.2263Z" fill="#C8C6C6"/>
<path d="M118.287 0V2.08893V28.287H125.783V2.08893V0H118.287Z" fill="#C8C6C6"/>
<path d="M0 33.4668L3.63825 27.5539C6.81502 29.6696 10.3178 30.7266 13.1969 30.7266C14.8806 30.7266 16.265 30.2107 16.265 29.1269C16.265 28.0416 14.1199 27.5272 11.1872 26.7674C5.7015 25.303 1.3293 23.5129 1.3293 17.8172C1.3293 11.9043 6.0543 8.62305 12.4898 8.62305C16.5627 8.62305 20.7727 9.81694 23.9494 11.8508L20.6089 18.0075C17.7298 16.4345 14.6081 15.4577 12.3811 15.4577C10.888 15.4577 10.1273 16.0271 10.1273 16.8954C10.1273 17.9807 11.729 18.4951 14.6617 19.3634C20.1742 20.9631 24.5464 22.8082 24.5464 28.2854C24.5464 34.387 19.9568 37.588 13.1953 37.588C8.47192 37.5896 3.8556 36.2604 0 33.4668Z" fill="#C8C6C6"/>
<path d="M54.3646 23.9201C54.3646 16.0284 47.9559 9.62793 40.0541 9.62793C32.1523 9.62793 25.7437 16.0284 25.7437 23.9201C25.7437 31.9753 32.1791 38.2122 40.3266 38.2122C46.8975 38.2122 51.0523 35.093 53.1439 31.3509L44.9429 28.9914C43.8026 29.7511 42.5804 30.3206 40.4353 30.3206C37.0679 30.3206 34.6235 28.477 33.9447 25.8454H54.3661V24.0554V23.9201H54.3646ZM40.0541 17.5196C42.96 17.5196 45.4044 19.4182 46.1919 22.0482H33.9179C34.7322 19.4182 37.175 17.5196 40.0541 17.5196Z" fill="#C8C6C6"/>
</svg>
