<svg width="177" height="59" viewBox="0 0 177 59" fill="none" xmlns="http://www.w3.org/2000/svg">
<g opacity="0.8" clip-path="url(#clip0_2069_166)">
<path fill-rule="evenodd" clip-rule="evenodd" d="M44.3202 10.868L44.9423 10.5927L44.7961 11.1498C44.762 11.335 44.6808 11.4038 44.5249 11.4923C21.9255 24.124 20.0138 30.1227 7.85495 51.8468C5.19124 51.991 1.85997 56.1989 0.000244141 58.016C14.1569 34.927 17.2673 22.859 44.3202 10.868ZM43.9028 4.68731C26.5204 6.8666 5.41375 21.5957 8.61996 41.514C8.55499 33.9799 11.4526 28.4825 15.1899 23.1425C14.9154 25.5249 15.1379 27.465 15.4335 29.836C16.0491 25.266 16.5543 20.9124 19.9781 17.6254C19.8709 19.3066 20.2282 20.3471 20.7009 21.8808C20.9218 19.6294 21.3717 17.0372 22.7376 15.1938C25.9974 12.5672 29.6649 10.4108 33.5435 8.85909C32.7201 11.0941 32.6925 12.7933 32.7249 15.1168C33.4948 13.2013 34.9095 9.28839 36.308 7.86776C37.8152 7.3893 39.3452 7.00096 40.8883 6.71257C42.2071 6.46515 43.5373 6.28982 44.8773 6.19151C43.3506 7.94477 43.0517 8.93283 42.3858 11.0433C43.4464 9.79143 44.4144 8.65919 45.6846 7.59084C46.4479 6.94852 47.2129 6.41435 47.8789 6.09647C49.7808 6.11941 51.6893 6.30129 53.588 6.65686C55.1846 6.95508 56.7731 7.37619 58.3437 7.93002C55.3974 8.92136 52.7905 10.1912 50.4451 11.6561C47.9308 13.2275 45.7187 15.0217 43.7111 16.9389C40.6008 17.0585 38.3967 18.2071 35.733 19.6933C37.8104 19.1689 39.3988 18.6348 41.5753 19.0985C40.7957 19.9292 40.0437 20.7764 39.3128 21.6301C38.4795 22.605 37.6756 23.5881 36.8911 24.568C36.2365 25.3857 35.543 26.2705 34.8543 27.1455C34.6789 27.3683 34.5051 27.5895 34.0454 28.1729C32.7055 28.2449 31.2761 28.5038 29.9102 28.8922C28.4403 29.31 27.0369 29.8753 25.887 30.5176L24.037 31.5483L26.0868 31.0321C27.2172 30.747 28.4175 30.4799 29.5496 30.3669C30.5063 30.2719 31.4158 30.2866 32.1987 30.4898C31.9258 30.8273 31.6741 31.1436 31.4223 31.4565C27.0889 36.8671 23.5075 41.3371 16.2278 42.5857L14.1926 42.9347L16.2473 43.1379C25.4988 44.0522 29.9297 37.9993 34.6708 31.5237C35.8223 29.9491 36.9934 28.3498 38.2489 26.8309C41.5461 22.8426 44.6678 19.4049 48.3759 16.3654C52.0807 13.3291 56.3768 10.6877 62.0258 8.29051L62.5374 8.07258L62.055 7.79402C56.7844 4.7381 50.3997 3.87458 43.8963 4.69058L43.9028 4.68731ZM54.0314 3.12411C43.154 -1.4016 26.8112 -1.07716 15.0811 4.52509C5.99198 8.86565 -3.16373 18.1809 9.46942 25.8526C10.1565 24.4762 10.9848 23.0982 11.8586 21.8349C5.79869 16.9405 12.5603 11.2498 17.0902 8.77225C27.417 3.12575 44.9472 1.42329 54.033 3.12411H54.0314ZM38.2245 29.4575C36.7595 31.3746 35.3724 33.3392 33.9139 35.2547C59.9549 45.4958 9.48404 56.7248 1.02188 58.0062C25.6499 60.8622 75.0601 42.2743 38.2262 29.4558L38.2245 29.4575Z" fill="white"/>
</g>
<path opacity="0.9" d="M77.3102 40.3993C75.6748 40.3993 74.0965 40.1997 72.5752 39.8003C71.073 39.382 69.8464 38.8495 68.8956 38.203L70.7497 34.0385C71.6434 34.609 72.6703 35.0844 73.8303 35.4647C75.0093 35.826 76.1788 36.0066 77.3387 36.0066C78.1184 36.0066 78.7459 35.9401 79.2213 35.807C79.6967 35.6548 80.039 35.4647 80.2482 35.2365C80.4764 34.9893 80.5905 34.704 80.5905 34.3808C80.5905 33.9244 80.3813 33.5631 79.963 33.2969C79.5446 33.0306 79.0026 32.8119 78.3371 32.6408C77.6715 32.4697 76.9299 32.2985 76.1122 32.1274C75.3135 31.9562 74.5054 31.7375 73.6877 31.4713C72.889 31.2051 72.1569 30.8628 71.4913 30.4445C70.8258 30.0071 70.2838 29.4461 69.8655 28.7615C69.4471 28.0579 69.2379 27.1737 69.2379 26.1088C69.2379 24.9108 69.5612 23.8269 70.2077 22.8571C70.8733 21.8873 71.8621 21.1076 73.1742 20.5181C74.4863 19.9286 76.1217 19.6339 78.0804 19.6339C79.3925 19.6339 80.6761 19.786 81.9311 20.0902C83.2052 20.3755 84.3366 20.8033 85.3255 21.3738L83.5855 25.5668C82.6347 25.0534 81.6934 24.6731 80.7616 24.4259C79.8298 24.1597 78.9266 24.0266 78.0518 24.0266C77.2722 24.0266 76.6447 24.1121 76.1693 24.2833C75.6939 24.4354 75.3516 24.6446 75.1424 24.9108C74.9332 25.177 74.8286 25.4813 74.8286 25.8236C74.8286 26.2609 75.0283 26.6127 75.4276 26.879C75.846 27.1262 76.3879 27.3353 77.0535 27.5065C77.7381 27.6586 78.4797 27.8202 79.2784 27.9914C80.0961 28.1625 80.9042 28.3812 81.7029 28.6474C82.5206 28.8947 83.2622 29.2369 83.9278 29.6743C84.5934 30.0927 85.1258 30.6536 85.5251 31.3572C85.9435 32.0418 86.1527 32.907 86.1527 33.9529C86.1527 35.1129 85.8199 36.1873 85.1543 37.1761C84.5078 38.1459 83.5285 38.9256 82.2164 39.5151C80.9233 40.1046 79.2879 40.3993 77.3102 40.3993ZM97.9462 40V37.1191L97.5754 36.406V31.1005C97.5754 30.2448 97.3092 29.5887 96.7767 29.1324C96.2633 28.657 95.4361 28.4192 94.2952 28.4192C93.5535 28.4192 92.8024 28.5429 92.0418 28.7901C91.2811 29.0183 90.6346 29.3415 90.1021 29.7599L88.2766 26.0803C89.1513 25.5098 90.1972 25.0724 91.4142 24.7682C92.6503 24.4449 93.8768 24.2833 95.0938 24.2833C97.6039 24.2833 99.5436 24.8633 100.913 26.0232C102.301 27.1642 102.995 28.9612 102.995 31.4143V40H97.9462ZM93.3824 40.2567C92.1463 40.2567 91.1005 40.0475 90.2447 39.6292C89.389 39.2108 88.733 38.6404 88.2766 37.9177C87.8392 37.1951 87.6205 36.387 87.6205 35.4932C87.6205 34.5424 87.8582 33.7247 88.3336 33.0401C88.8281 32.3365 89.5792 31.8041 90.587 31.4428C91.5949 31.0625 92.8975 30.8723 94.4948 30.8723H98.1459V33.6962H95.2364C94.3617 33.6962 93.7437 33.8388 93.3824 34.1241C93.0401 34.4093 92.869 34.7896 92.869 35.265C92.869 35.7404 93.0496 36.1207 93.4109 36.406C93.7722 36.6912 94.2666 36.8338 94.8942 36.8338C95.4837 36.8338 96.0161 36.6912 96.4915 36.406C96.9859 36.1017 97.3472 35.6453 97.5754 35.0368L98.317 37.0335C98.0318 38.0984 97.4708 38.9066 96.6341 39.458C95.8164 39.9905 94.7325 40.2567 93.3824 40.2567ZM106.416 40V24.54H111.835V40H106.416ZM109.126 22.8285C108.137 22.8285 107.338 22.5528 106.73 22.0013C106.121 21.4499 105.817 20.7653 105.817 19.9476C105.817 19.1299 106.121 18.4454 106.73 17.8939C107.338 17.3424 108.137 17.0667 109.126 17.0667C110.114 17.0667 110.913 17.3329 111.522 17.8654C112.13 18.3788 112.434 19.0444 112.434 19.862C112.434 20.7178 112.13 21.4309 111.522 22.0013C110.932 22.5528 110.133 22.8285 109.126 22.8285ZM122.089 40.2567C120.682 40.2567 119.398 39.9334 118.238 39.2869C117.097 38.6213 116.185 37.6991 115.5 36.5201C114.816 35.3221 114.473 33.8959 114.473 32.2415C114.473 30.6061 114.816 29.1989 115.5 28.0199C116.185 26.8219 117.097 25.8996 118.238 25.2531C119.398 24.6065 120.682 24.2833 122.089 24.2833C123.42 24.2833 124.542 24.5685 125.455 25.139C126.387 25.7095 127.09 26.5842 127.566 27.7632C128.041 28.9422 128.279 30.4349 128.279 32.2415C128.279 34.086 128.051 35.5978 127.594 36.7768C127.138 37.9558 126.453 38.8305 125.541 39.401C124.628 39.9715 123.477 40.2567 122.089 40.2567ZM123.23 35.9496C123.839 35.9496 124.381 35.807 124.856 35.5217C125.35 35.2365 125.74 34.8181 126.025 34.2667C126.311 33.6962 126.453 33.0211 126.453 32.2415C126.453 31.4618 126.311 30.8058 126.025 30.2733C125.74 29.7218 125.35 29.3035 124.856 29.0183C124.381 28.733 123.839 28.5904 123.23 28.5904C122.603 28.5904 122.042 28.733 121.547 29.0183C121.072 29.3035 120.691 29.7218 120.406 30.2733C120.121 30.8058 119.978 31.4618 119.978 32.2415C119.978 33.0211 120.121 33.6962 120.406 34.2667C120.691 34.8181 121.072 35.2365 121.547 35.5217C122.042 35.807 122.603 35.9496 123.23 35.9496ZM126.624 40V37.3473L126.653 32.2415L126.368 27.1357V18.8352H131.787V40H126.624ZM143.033 40.2567C141.34 40.2567 139.838 39.9144 138.526 39.2299C137.214 38.5453 136.177 37.604 135.417 36.406C134.675 35.1889 134.304 33.8008 134.304 32.2415C134.304 30.6822 134.675 29.3035 135.417 28.1055C136.177 26.9075 137.214 25.9757 138.526 25.3101C139.838 24.6256 141.34 24.2833 143.033 24.2833C144.725 24.2833 146.227 24.6256 147.539 25.3101C148.871 25.9757 149.907 26.9075 150.649 28.1055C151.39 29.3035 151.761 30.6822 151.761 32.2415C151.761 33.8008 151.39 35.1889 150.649 36.406C149.907 37.604 148.871 38.5453 147.539 39.2299C146.227 39.9144 144.725 40.2567 143.033 40.2567ZM143.033 35.9496C143.66 35.9496 144.212 35.807 144.687 35.5217C145.181 35.2365 145.571 34.8181 145.857 34.2667C146.142 33.6962 146.284 33.0211 146.284 32.2415C146.284 31.4618 146.142 30.8058 145.857 30.2733C145.571 29.7218 145.181 29.3035 144.687 29.0183C144.212 28.733 143.66 28.5904 143.033 28.5904C142.424 28.5904 141.873 28.733 141.378 29.0183C140.903 29.3035 140.513 29.7218 140.209 30.2733C139.924 30.8058 139.781 31.4618 139.781 32.2415C139.781 33.0211 139.924 33.6962 140.209 34.2667C140.513 34.8181 140.903 35.2365 141.378 35.5217C141.873 35.807 142.424 35.9496 143.033 35.9496ZM154.899 40V24.7111C154.899 22.8476 155.451 21.3643 156.553 20.2614C157.675 19.1394 159.273 18.5785 161.346 18.5785C162.011 18.5785 162.667 18.645 163.314 18.7781C163.96 18.9112 164.502 19.1109 164.94 19.3771L163.599 23.1994C163.371 23.0662 163.114 22.9617 162.829 22.8856C162.544 22.7905 162.258 22.743 161.973 22.743C161.403 22.743 160.956 22.9141 160.632 23.2564C160.328 23.5797 160.176 24.0836 160.176 24.7682V25.8806L160.319 28.134V40H154.899ZM152.646 29.1609V25.1105H163.856V29.1609H152.646ZM166.877 40V24.7111C166.877 22.8476 167.428 21.3643 168.531 20.2614C169.653 19.1394 171.251 18.5785 173.323 18.5785C173.989 18.5785 174.645 18.645 175.292 18.7781C175.938 18.9112 176.48 19.1109 176.917 19.3771L175.577 23.1994C175.349 23.0662 175.092 22.9617 174.807 22.8856C174.521 22.7905 174.236 22.743 173.951 22.743C173.38 22.743 172.934 22.9141 172.61 23.2564C172.306 23.5797 172.154 24.0836 172.154 24.7682V25.8806L172.297 28.134V40H166.877ZM164.624 29.1609V25.1105H175.834V29.1609H164.624Z" fill="white"/>
<defs>
<clipPath id="clip0_2069_166">
<rect width="62.5437" height="58.3018" fill="white"/>
</clipPath>
</defs>
</svg>
