<svg width="142" height="72" viewBox="0 0 142 72" fill="none" xmlns="http://www.w3.org/2000/svg">
<path fill-rule="evenodd" clip-rule="evenodd" d="M68.7962 0.0251736C68.6463 0.0453432 68.1555 0.104975 67.7056 0.158468C65.5634 0.411904 61.978 1.27657 60.1167 1.9904C56.9402 3.20759 53.502 5.38591 51.6543 7.352C49.8184 9.30583 47.6699 12.2348 46.7074 14.0948C44.358 18.6382 43.7664 22.6406 44.5343 28.8063C44.9715 32.3202 45.9112 34.8713 48.1907 38.7368C50.0574 41.9017 51.5689 43.4425 55.2997 45.9821C58.9506 48.4664 62.1607 49.731 66.2969 50.3115C71.9172 51.0999 77.1114 50.4369 81.5438 48.3656C83.4161 47.4904 86.179 45.7523 85.6982 45.7523C85.6719 45.7523 85.1093 45.954 84.4485 46.2004C81.9356 47.1379 81.0712 47.3966 79.5207 47.6746C76.8623 48.1516 74.1212 48.1499 70.9775 47.6702C67.6674 47.1651 65.2735 46.2723 62.5324 44.5202C59.4568 42.5541 57.3865 40.5731 55.4333 37.7283C53.3475 34.6906 52.3041 32.0633 51.7407 28.4328C51.5371 27.1191 51.5862 23.7087 51.8306 22.1846C52.3514 18.9434 53.1494 16.8642 55.0553 13.7817C56.4222 11.5718 58.069 9.69694 60.2076 7.91588C63.0205 5.57357 64.76 4.66418 68.7817 3.43472C71.1374 2.71475 73.5341 2.36397 75.3854 2.4692C78.8445 2.66652 81.0185 3.08482 83.6115 4.05208C85.1084 4.61069 85.3419 4.58263 84.6103 3.93106C83.9832 3.37333 82.9289 2.74456 81.4293 2.03424C79.1327 0.94596 77.4413 0.486444 74.6583 0.194423C73.4087 0.0637589 69.3806 -0.0528741 68.7962 0.0251736ZM73.386 5.24647C70.7085 5.53674 67.233 6.74516 64.8736 8.20527C64.1956 8.62444 63.723 9.00854 63.8839 9.00854C63.922 9.00854 64.4701 8.81299 65.1026 8.57271C66.4568 8.0597 67.1621 7.84397 68.469 7.54493C69.3134 7.35201 69.7024 7.31868 71.6137 7.2801C75.739 7.19503 78.4983 7.74487 81.4748 9.24356C83.5497 10.288 85.4946 11.7376 86.8743 13.267C88.822 15.426 90.6488 19.1565 91.1432 21.9873C91.8966 26.2957 91.3468 29.8622 89.3536 33.5988C88.4784 35.2396 87.9894 35.9771 87.1542 36.9172C86.4653 37.6924 84.6639 39.2446 83.6015 39.9785C82.0255 41.0677 79.9797 42.0604 78.0202 42.6874C76.2089 43.2671 75.868 43.3144 73.1615 43.36C69.3552 43.424 68.5209 43.2934 65.8297 42.2104C65.0481 41.8964 64.2919 41.6149 64.1483 41.5851C63.8975 41.5334 63.903 41.5456 64.2919 41.8929C65.6134 43.075 69.0625 44.5886 71.6582 45.1253C74.1412 45.6383 77.1786 45.8751 78.6619 45.6716C81.1576 45.3288 84.614 44.1537 86.9288 42.8602C90.447 40.895 92.6337 38.728 94.6814 35.1755C96.6881 31.695 97.4733 28.595 97.347 24.6619C97.2461 21.5356 96.6645 19.2293 95.3275 16.6502C93.6762 13.4643 91.1468 10.4458 88.8783 8.95417C86.3026 7.25993 81.9783 5.6867 78.7891 5.2833C77.6458 5.13861 74.572 5.11844 73.3841 5.24735M59.5695 21.5435L58.797 21.5935V23.4482L59.2832 24.1866C59.8785 25.0899 61.0846 26.6929 62.0971 27.9224C62.6215 28.5608 62.9505 28.88 63.175 28.9703C63.444 29.0791 64.0075 29.0957 66.5305 29.0738C69.4988 29.0466 69.5669 29.0422 69.7587 28.8572C69.9332 28.6888 69.965 28.5205 70.0414 27.3664C70.1586 25.5967 70.0877 21.8636 69.9332 21.6838C69.8123 21.5426 68.988 21.5111 68.4318 21.626C67.9474 21.7259 67.8928 21.9706 67.841 24.2717C67.7792 27.0147 67.8265 26.9472 65.977 26.9376C64.7527 26.9314 64.471 26.8139 63.4912 25.8993C62.1416 24.6409 61.2791 23.3141 61.1309 22.2687C61.0882 21.9653 61.0155 21.6838 60.9701 21.6426C60.8356 21.5207 60.393 21.4909 59.5695 21.5435ZM73.5205 21.54C72.5207 21.569 71.6519 21.6242 71.5891 21.6637C71.5101 21.7128 71.4755 22.0118 71.4755 22.6406C71.4755 23.421 71.4974 23.5552 71.6346 23.6096C71.9045 23.7166 78.6819 23.7622 80.7395 23.671C83.0662 23.5675 82.9607 23.6227 82.9053 22.5318C82.878 21.9978 82.8271 21.7654 82.7126 21.6549C82.5718 21.5181 82.2273 21.5041 78.9472 21.4962C76.9623 21.4909 74.5202 21.5111 73.5205 21.54ZM74.3384 24.4444C74.1385 24.4743 73.8086 24.5812 73.6059 24.683C73.1915 24.8908 71.8554 25.83 71.6791 26.0378C71.531 26.2124 71.4219 28.8134 71.5537 28.9984C71.6737 29.165 73.2678 29.2439 73.5523 29.0975C73.7313 29.0045 73.7477 28.9265 73.7477 28.1337V27.2708L74.1339 26.9691C74.3466 26.8034 74.582 26.6306 74.6565 26.5859C74.732 26.5412 76.5697 26.4851 78.7727 26.4605C82.1737 26.4228 82.7663 26.3974 82.8453 26.2851C82.9535 26.1308 82.898 24.64 82.7799 24.5339C82.6863 24.4497 74.8656 24.3673 74.3384 24.4444ZM45.6268 60.0745C45.4714 60.1841 45.465 60.47 45.4995 65.7527C45.5304 70.4259 45.5577 71.3572 45.6704 71.5782L45.804 71.8413L46.9137 71.8658C48.0053 71.8895 48.0243 71.8869 48.0671 71.6904C48.0907 71.5799 48.1361 70.2865 48.167 68.8158C48.1979 67.3443 48.2461 66.0526 48.2725 65.9439C48.2997 65.8325 48.3906 65.7465 48.4806 65.7465C48.6987 65.7465 49.0486 66.0131 52.8776 69.0991C54.719 70.5837 56.2995 71.7974 56.3885 71.7974C56.6212 71.7974 56.6603 71.5615 56.6621 70.1751V68.9474L57.311 68.3554C57.6673 68.0301 58.0245 67.7626 58.1063 67.7618C58.1881 67.7609 59.2033 68.6878 60.3639 69.8226L62.4733 71.8851H65.6825L64.1038 70.304C63.2359 69.4341 61.9389 68.1222 61.2227 67.3882L59.9194 66.0535L62.8423 63.2727C65.3835 60.855 65.7379 60.4858 65.5543 60.4498C65.438 60.427 64.6973 60.3832 63.9075 60.3534L62.4715 60.299L61.09 61.596C60.3302 62.3098 59.1033 63.4665 58.3635 64.1672C57.6237 64.8679 56.9857 65.4519 56.9457 65.4659C56.9057 65.48 56.8502 64.3636 56.823 62.9859C56.7857 61.1312 56.7421 60.4463 56.6557 60.3455C56.4776 60.1385 54.5181 60.2017 54.3527 60.4191C54.2109 60.6059 54.12 62.3809 54.1191 64.945C54.1191 66.1271 54.0864 66.805 54.0301 66.7866C53.9355 66.7559 53.8065 66.6463 49.0441 62.5703C47.3681 61.1356 45.9503 59.9614 45.894 59.9614C45.8376 59.9614 45.7177 60.0131 45.6277 60.0771M112.785 60.1964C112.249 60.2429 111.135 60.484 110.76 60.6357C109.889 60.9874 108.743 61.974 108.07 62.9544C107.225 64.183 106.909 66.1587 107.301 67.767C107.354 67.9836 107.58 68.5308 107.803 68.9825C108.47 70.3312 109.437 71.1388 111.034 71.6852C111.993 72.0132 113.643 72.0684 114.762 71.8115C115.2 71.7106 115.731 71.5431 115.944 71.4396C117.123 70.8609 118.26 69.8199 118.727 68.8913C119.238 67.8758 119.518 65.9386 119.198 65.6334C119.121 65.5606 118.417 65.5361 116.711 65.5466C114.063 65.5633 113.39 65.6141 113.315 65.8036C113.287 65.8728 113.293 66.2648 113.328 66.6735C113.427 67.8249 113.414 67.8161 115.135 67.7898C116.071 67.7758 116.567 67.8003 116.607 67.8626C116.691 67.9924 116.06 68.8562 115.659 69.1631C115.2 69.5139 114.708 69.6936 113.962 69.7857C113.145 69.8857 112.206 69.7629 111.594 69.4762C110.975 69.1859 110.254 68.4317 109.896 67.703C109.647 67.197 109.6 66.9918 109.573 66.306C109.535 65.3335 109.704 64.6776 110.156 64.033C110.893 62.9859 112.263 62.351 113.596 62.4414C114.563 62.5062 115.18 62.772 115.899 63.4341C116.237 63.7436 116.577 63.9971 116.657 63.9971C116.839 63.9971 117.412 63.5945 117.824 63.1771C118.116 62.8807 118.127 62.8465 118.009 62.6334C117.809 62.273 116.717 61.3268 116.097 60.976C115.082 60.4016 113.832 60.1087 112.786 60.199M121.287 60.3113C121.1 60.4253 120.917 71.5449 121.099 71.7562C121.192 71.8641 121.44 71.8904 122.336 71.8904C123.313 71.8904 123.468 71.8702 123.539 71.7369C123.585 71.6527 123.645 70.5434 123.673 69.2727C123.701 68.002 123.746 66.9409 123.773 66.9155C123.799 66.8901 125.027 66.8489 126.5 66.8234L129.18 66.7787L129.208 69.2429C129.229 71.0503 129.266 71.7352 129.348 71.815C129.419 71.8834 129.848 71.9377 130.505 71.9614L131.549 72L131.642 71.7641C131.701 71.615 131.743 69.5156 131.757 66.0561C131.777 61.2864 131.763 60.5682 131.644 60.4595C131.454 60.2858 129.716 60.1999 129.498 60.3542C129.361 60.4507 129.335 60.7103 129.288 62.4536C129.244 64.0865 129.211 64.4574 129.098 64.5258C129.02 64.5732 127.801 64.6092 126.258 64.61L123.554 64.6118V62.4729C123.554 60.6033 123.536 60.3271 123.41 60.2806C123.182 60.1964 121.433 60.2209 121.285 60.3113M15.8336 60.6296C15.5355 61.0882 14.1913 63.5253 11.7765 67.988C10.4995 70.3479 9.81424 71.7027 9.86968 71.7588C9.98965 71.8816 12.2136 71.9307 12.3354 71.8132C12.3881 71.7623 12.5626 71.4142 12.7244 71.0389L13.018 70.3566L15.6682 70.3338C17.126 70.3207 18.4493 70.3408 18.6092 70.3785C18.8619 70.4373 18.9482 70.5416 19.2636 71.1669L19.6272 71.8869L20.7805 71.8895C21.5912 71.8913 21.9538 71.8606 22.002 71.7852C22.0638 71.6896 19.3027 66.3166 16.8879 61.831L16.0572 60.2885L15.8345 60.6314M24.1296 60.3972L23.5425 60.4481L23.4671 60.7989C23.4253 60.9918 23.4035 63.5112 23.418 66.3972L23.4443 71.6448L23.6588 71.8123C23.857 71.9667 24.0424 71.9798 26.0319 71.9798C28.3185 71.9798 28.912 71.9184 29.5755 71.6106C30.2053 71.3195 31.0751 70.4312 31.4205 69.7279C31.6958 69.1657 31.714 69.0701 31.714 68.1651C31.714 67.2601 31.6877 67.147 31.4732 66.7059C31.3414 66.4341 31.0442 66.0403 30.8143 65.8316C30.3544 65.4133 30.3126 65.2669 30.5643 64.9547C30.9397 64.4908 31.0587 64.14 31.0678 63.4753C31.0815 62.5264 30.9124 62.0581 30.3426 61.4645C29.7536 60.8506 29.162 60.5305 28.3931 60.4104C27.7878 60.3157 25.1703 60.3078 24.1278 60.3981M82.6317 60.3779C82.4827 60.4156 82.4727 60.7646 82.4727 66.1552V71.893H83.6769C84.3395 71.8913 84.9312 71.8597 84.9911 71.8229C85.062 71.779 85.1102 71.4449 85.1275 70.8819L85.1538 70.0076L85.6682 69.9813L86.1826 69.955L86.927 70.8144C87.3369 71.2871 87.7595 71.7211 87.8668 71.7799C88.0594 71.8842 91.2886 71.9491 91.2886 71.8474C91.2886 71.8229 90.7878 71.2485 90.1752 70.5706C89.5627 69.8927 89.0492 69.3043 89.0337 69.2631C89.0183 69.2219 89.2964 69.0412 89.6508 68.8606C91.185 68.0827 91.9539 66.3902 91.6658 64.4276C91.5067 63.3429 91.1677 62.722 90.2543 61.8407C89.2618 60.883 88.5384 60.5331 87.2878 60.4069C86.4389 60.3209 82.9408 60.2981 82.6299 60.377M94.0333 60.3762C93.9197 60.399 93.7561 60.5209 93.6698 60.648C93.5262 60.8594 93.5107 61.3434 93.488 66.3876C93.4653 71.2643 93.4789 71.9018 93.6016 71.9474C93.678 71.9754 95.3048 71.9649 97.2171 71.9237L100.693 71.8483V69.8313L98.3758 69.7875L96.0583 69.7436L96.0328 68.3914C96.0165 67.5118 96.0419 67.0058 96.1055 66.9444C96.1673 66.8848 96.9226 66.841 98.1759 66.8243C99.2602 66.8103 100.199 66.7822 100.262 66.7612C100.343 66.7349 100.375 66.4613 100.375 65.8036C100.375 64.9599 100.36 64.8749 100.185 64.7854C100.074 64.7275 99.172 64.6635 97.9814 64.6284L95.9674 64.5697L95.9447 63.7804C95.9301 63.2701 95.9628 62.914 96.0383 62.772L96.1546 62.5527L97.9859 62.508C98.993 62.4835 99.8409 62.4405 99.8709 62.4115C99.9009 62.3826 99.9491 61.988 99.9781 61.5355C100.059 60.2674 100.298 60.363 96.9989 60.3472C95.483 60.3402 94.1488 60.3525 94.0352 60.3753M102.828 60.541C102.69 60.8918 102.71 71.565 102.848 71.6992C102.92 71.7685 103.305 71.8044 103.978 71.8044C104.804 71.8044 105.027 71.7773 105.148 71.6606C105.284 71.5291 105.295 71.0292 105.268 66.0614C105.244 61.5977 105.216 60.5805 105.113 60.4612C105.01 60.342 104.805 60.3165 103.953 60.3165C102.924 60.3165 102.916 60.3183 102.828 60.541ZM134.094 60.3981L133.321 60.4472L133.296 61.4338L133.27 62.4203H134.634C135.888 62.4203 136.004 62.4335 136.091 62.5896C136.152 62.6992 136.189 64.2768 136.195 67.04C136.201 69.3946 136.232 71.4396 136.264 71.5843L136.323 71.8474H137.438C138.331 71.8474 138.571 71.8211 138.64 71.7159C138.691 71.6378 138.726 69.7533 138.727 67.0637C138.728 63.6664 138.755 62.5168 138.837 62.4379C138.914 62.3642 139.407 62.3326 140.473 62.3326H142V60.427L141.578 60.3709C141.08 60.3051 135.21 60.3253 134.093 60.3972M0.0467746 60.4788C-0.0604703 60.5437 0.00133178 60.7269 0.393957 61.5074C1.22738 63.164 4.54106 69.3429 5.18908 70.4469C5.97069 71.7799 6.15247 72.0167 6.33969 71.9465C6.54327 71.8711 12.3463 60.6585 12.2363 60.5533C12.1873 60.506 11.6174 60.4832 10.9221 60.4989C9.84969 60.5244 9.66792 60.5498 9.49433 60.7015C9.38526 60.7971 8.60183 62.2107 7.75387 63.8427C6.83411 65.6124 6.16883 66.7954 6.1043 66.7752C6.04522 66.7559 5.35267 65.5001 4.5656 63.9848C3.77853 62.4694 2.98965 61.0418 2.81333 60.8129L2.4925 60.3963L1.33462 60.3981C0.697515 60.3981 0.117665 60.4349 0.0467746 60.4788ZM73.8068 60.6647C73.7331 61.0216 73.7304 71.5598 73.804 71.7448C73.8504 71.8614 74.0458 71.8834 75.0273 71.8834C76.0898 71.8834 76.2043 71.8676 76.2897 71.7141C76.3479 71.6098 76.3843 70.6785 76.3843 69.2964C76.3843 67.9143 76.4206 66.983 76.4788 66.8787C76.5679 66.7191 76.6887 66.7094 78.6046 66.7094C80.3732 66.7094 80.6441 66.6919 80.6913 66.5709C80.7931 66.3157 80.7513 65.0827 80.6377 64.9731C80.5623 64.9003 80.0533 64.8652 78.979 64.86C78.1265 64.8556 77.225 64.8258 76.975 64.7942L76.5206 64.7363L76.4951 63.691C76.4761 62.914 76.4997 62.6273 76.586 62.5747C76.6506 62.5352 77.4385 62.5019 78.3383 62.501C79.2381 62.5001 80.0306 62.4642 80.0988 62.4221C80.1924 62.3651 80.2196 62.1309 80.2087 61.4811C80.2006 61.0058 80.1651 60.591 80.1297 60.5612C80.0942 60.5305 78.67 60.4788 76.965 60.4454L73.8649 60.3858L73.8068 60.6647ZM37.5498 61.5153C36.411 63.5235 32.0321 71.601 32.0321 71.6948C32.0321 71.8387 32.5284 71.8974 33.4827 71.8676L34.3424 71.8413L34.7678 71.1397C35.0023 70.7539 35.2895 70.3891 35.4076 70.3294C35.563 70.2505 36.3474 70.2207 38.2723 70.2198H40.9226L41.1461 70.475C41.2688 70.6162 41.5206 70.9906 41.7042 71.3081L42.0386 71.8851H43.261C44.0708 71.8851 44.4834 71.8536 44.4834 71.7913C44.4834 71.7395 43.1274 69.1745 41.4706 66.0912C39.203 61.8713 38.4177 60.4849 38.296 60.4849C38.1842 60.4849 37.957 60.7989 37.5498 61.5153ZM26.0037 62.5606C25.9701 62.5931 25.9428 63.05 25.9428 63.577V64.5346L26.9852 64.5048C28.2286 64.4697 28.3967 64.375 28.4594 63.6717C28.5039 63.1754 28.2686 62.7264 27.8905 62.5878C27.6287 62.4922 26.0982 62.4703 26.0037 62.5606ZM85.0257 62.6641C84.9566 62.7886 84.9321 63.6059 84.9484 65.2397L84.973 67.6328L86.0181 67.6285C87.6568 67.6214 88.3939 67.2891 88.8974 66.3306C89.5336 65.1195 89.0473 63.5586 87.8022 62.8158C87.3896 62.5694 87.2951 62.551 86.2453 62.5177C85.1865 62.4835 85.1211 62.4913 85.0257 62.6641ZM37.8633 65.0266C37.5761 65.4159 36.3955 67.767 36.3955 67.9494C36.3955 68.1055 36.4928 68.1143 38.1251 68.1143C39.5502 68.1143 39.8637 68.0915 39.9055 67.9871C39.9528 67.8679 38.2996 64.931 38.126 64.8275C38.0815 64.8012 37.9633 64.8907 37.8633 65.0266ZM15.67 65.2414C15.2746 65.8579 14.3104 67.76 14.3104 67.9214C14.3104 68.1608 14.5521 68.1879 16.1481 68.1336L17.5113 68.0871L17.4632 67.8003C17.4086 67.475 16.5143 65.6176 16.2199 65.2195C15.9736 64.8863 15.8963 64.8889 15.6709 65.2405M26.0082 66.8357C25.8755 66.9637 25.8537 67.1856 25.8537 68.4133V69.8419L26.8762 69.9006C28.5403 69.9971 29.1056 69.7971 29.3183 69.0377C29.4492 68.5712 29.3683 67.7451 29.1565 67.3969C28.872 66.9278 28.4349 66.7761 27.2261 66.7278C26.3082 66.691 26.1409 66.7059 26.0073 66.8348" fill="#C8C6C6"/>
</svg>
