<svg width="1440" height="1449" viewBox="0 0 1440 1449" fill="none" xmlns="http://www.w3.org/2000/svg">
<rect x="-152" y="-773" width="900.164" height="1545.39" fill="url(#paint0_angular_1411_252)"/>
<rect width="900.164" height="1545.39" transform="matrix(-1 0 0 1 1648.17 -780)" fill="url(#paint1_angular_1411_252)"/>
<g filter="url(#filter0_bf_1411_252)">
<rect x="-73.0957" y="331.063" width="1642.19" height="997.937" fill="#110B0E" fill-opacity="0.1"/>
</g>
<g filter="url(#filter1_f_1411_252)">
<ellipse cx="748.384" cy="162.126" rx="509.384" ry="113.126" fill="#FF1686" fill-opacity="0.4"/>
</g>
<g filter="url(#filter2_f_1411_252)">
<ellipse cx="724" cy="654" rx="720" ry="292" fill="black"/>
</g>
<g opacity="0.3">
<path fill-rule="evenodd" clip-rule="evenodd" d="M1247 266.763L1247.3 273.894C1247.31 274.064 1247.17 274.205 1247 274.205C1246.83 274.205 1246.69 274.064 1246.7 273.894L1247 266.763ZM1240.88 274.205C1243.94 274.205 1246.41 271.732 1246.41 268.682L1246.41 246L1247 260.152L1247.59 246L1247.59 268.682C1247.59 271.732 1250.06 274.205 1253.12 274.205L1276 274.205L1260.85 275L1276 275.795H1253.12C1250.06 275.795 1247.59 278.268 1247.59 281.318L1247.59 304L1247 289.848L1246.41 304V281.318C1246.41 278.268 1243.94 275.795 1240.88 275.795L1218 275.795L1233.15 275L1218 274.205L1240.88 274.205ZM1243.04 274.482L1228.54 274.482L1235.79 274.862L1243.04 274.482ZM1235.79 275.138L1228.54 275.518L1243.04 275.518L1235.79 275.138ZM1246.41 275C1246.41 275.228 1246.22 275.409 1245.99 275.397L1238.43 275L1245.99 274.603C1246.22 274.591 1246.41 274.772 1246.41 275ZM1246.68 282.3L1246.68 290.785L1246.86 286.542L1246.68 282.3ZM1247 283.237L1246.7 276.106C1246.69 275.936 1246.83 275.795 1247 275.795C1247.17 275.795 1247.31 275.936 1247.3 276.106L1247 283.237ZM1247.14 286.542L1247.32 290.785L1247.32 282.3L1247.14 286.542ZM1247 275.518C1247.17 275.518 1247.32 275.377 1247.32 275.203V274.797C1247.32 274.623 1247.17 274.482 1247 274.482C1246.83 274.482 1246.68 274.623 1246.68 274.797L1246.68 275.203C1246.68 275.377 1246.83 275.518 1247 275.518ZM1247.59 275C1247.59 275.228 1247.78 275.409 1248.01 275.397L1255.57 275L1248.01 274.603C1247.78 274.591 1247.59 274.772 1247.59 275ZM1250.96 274.482L1258.21 274.862L1265.46 274.482L1250.96 274.482ZM1258.21 275.138L1250.96 275.518L1265.46 275.518L1258.21 275.138ZM1247.14 263.458L1247.32 267.7V259.215L1247.14 263.458ZM1246.86 263.458L1246.68 267.7V259.215L1246.86 263.458Z" fill="white"/>
</g>
<g opacity="0.8">
<path fill-rule="evenodd" clip-rule="evenodd" d="M1093 184.171L1093.17 188.352C1093.18 188.451 1093.1 188.534 1093 188.534C1092.9 188.534 1092.82 188.451 1092.83 188.352L1093 184.171ZM1089.41 188.534C1091.2 188.534 1092.65 187.084 1092.65 185.296L1092.65 172L1093 180.296L1093.35 172L1093.35 185.296C1093.35 187.084 1094.8 188.534 1096.59 188.534L1110 188.534L1101.12 189L1110 189.466H1096.59C1094.8 189.466 1093.35 190.916 1093.35 192.704V206L1093 197.704L1092.65 206V192.704C1092.65 190.916 1091.2 189.466 1089.41 189.466L1076 189.466L1084.88 189L1076 188.534L1089.41 188.534ZM1090.68 188.696L1082.18 188.696L1086.43 188.919L1090.68 188.696ZM1086.43 189.081L1082.18 189.304L1090.68 189.304L1086.43 189.081ZM1092.65 189C1092.65 189.133 1092.54 189.24 1092.41 189.233L1087.97 189L1092.41 188.767C1092.54 188.76 1092.65 188.867 1092.65 189ZM1092.81 193.279L1092.81 198.253L1092.92 195.766L1092.81 193.279ZM1093 193.829L1092.83 189.648C1092.82 189.549 1092.9 189.466 1093 189.466C1093.1 189.466 1093.18 189.549 1093.17 189.648L1093 193.829ZM1093.08 195.766L1093.19 198.253V193.279L1093.08 195.766ZM1093 189.304C1093.1 189.304 1093.19 189.221 1093.19 189.119V188.881C1093.19 188.779 1093.1 188.696 1093 188.696C1092.9 188.696 1092.81 188.779 1092.81 188.881L1092.81 189.119C1092.81 189.221 1092.9 189.304 1093 189.304ZM1093.35 189C1093.35 189.133 1093.46 189.24 1093.59 189.233L1098.03 189L1093.59 188.767C1093.46 188.76 1093.35 188.867 1093.35 189ZM1095.32 188.696L1099.57 188.919L1103.82 188.696H1095.32ZM1099.57 189.081L1095.32 189.304L1103.82 189.304L1099.57 189.081ZM1093.08 182.234L1093.19 184.721V179.747L1093.08 182.234ZM1092.92 182.234L1092.81 184.721V179.747L1092.92 182.234Z" fill="white"/>
</g>
<g opacity="0.5">
<path fill-rule="evenodd" clip-rule="evenodd" d="M1044 441.171L1044.17 445.352C1044.18 445.451 1044.1 445.534 1044 445.534C1043.9 445.534 1043.82 445.451 1043.83 445.352L1044 441.171ZM1040.41 445.534C1042.2 445.534 1043.65 444.084 1043.65 442.296L1043.65 429L1044 437.296L1044.35 429L1044.35 442.296C1044.35 444.084 1045.8 445.534 1047.59 445.534L1061 445.534L1052.12 446L1061 446.466H1047.59C1045.8 446.466 1044.35 447.916 1044.35 449.704V463L1044 454.704L1043.65 463V449.704C1043.65 447.916 1042.2 446.466 1040.41 446.466L1027 446.466L1035.88 446L1027 445.534L1040.41 445.534ZM1041.68 445.696L1033.18 445.696L1037.43 445.919L1041.68 445.696ZM1037.43 446.081L1033.18 446.304L1041.68 446.304L1037.43 446.081ZM1043.65 446C1043.65 446.133 1043.54 446.24 1043.41 446.233L1038.97 446L1043.41 445.767C1043.54 445.76 1043.65 445.867 1043.65 446ZM1043.81 450.279L1043.81 455.253L1043.92 452.766L1043.81 450.279ZM1044 450.829L1043.83 446.648C1043.82 446.549 1043.9 446.466 1044 446.466C1044.1 446.466 1044.18 446.549 1044.17 446.648L1044 450.829ZM1044.08 452.766L1044.19 455.253V450.279L1044.08 452.766ZM1044 446.304C1044.1 446.304 1044.19 446.221 1044.19 446.119V445.881C1044.19 445.779 1044.1 445.696 1044 445.696C1043.9 445.696 1043.81 445.779 1043.81 445.881L1043.81 446.119C1043.81 446.221 1043.9 446.304 1044 446.304ZM1044.35 446C1044.35 446.133 1044.46 446.24 1044.59 446.233L1049.03 446L1044.59 445.767C1044.46 445.76 1044.35 445.867 1044.35 446ZM1046.32 445.696L1050.57 445.919L1054.82 445.696H1046.32ZM1050.57 446.081L1046.32 446.304L1054.82 446.304L1050.57 446.081ZM1044.08 439.234L1044.19 441.721V436.747L1044.08 439.234ZM1043.92 439.234L1043.81 441.721V436.747L1043.92 439.234Z" fill="white"/>
</g>
<g opacity="0.5">
<path fill-rule="evenodd" clip-rule="evenodd" d="M1104 676.171L1104.17 680.352C1104.18 680.451 1104.1 680.534 1104 680.534C1103.9 680.534 1103.82 680.451 1103.83 680.352L1104 676.171ZM1100.41 680.534C1102.2 680.534 1103.65 679.084 1103.65 677.296L1103.65 664L1104 672.296L1104.35 664L1104.35 677.296C1104.35 679.084 1105.8 680.534 1107.59 680.534L1121 680.534L1112.12 681L1121 681.466H1107.59C1105.8 681.466 1104.35 682.916 1104.35 684.704V698L1104 689.704L1103.65 698V684.704C1103.65 682.916 1102.2 681.466 1100.41 681.466L1087 681.466L1095.88 681L1087 680.534L1100.41 680.534ZM1101.68 680.696L1093.18 680.696L1097.43 680.919L1101.68 680.696ZM1097.43 681.081L1093.18 681.304L1101.68 681.304L1097.43 681.081ZM1103.65 681C1103.65 681.133 1103.54 681.24 1103.41 681.233L1098.97 681L1103.41 680.767C1103.54 680.76 1103.65 680.867 1103.65 681ZM1103.81 685.279L1103.81 690.253L1103.92 687.766L1103.81 685.279ZM1104 685.829L1103.83 681.648C1103.82 681.549 1103.9 681.466 1104 681.466C1104.1 681.466 1104.18 681.549 1104.17 681.648L1104 685.829ZM1104.08 687.766L1104.19 690.253V685.279L1104.08 687.766ZM1104 681.304C1104.1 681.304 1104.19 681.221 1104.19 681.119V680.881C1104.19 680.779 1104.1 680.696 1104 680.696C1103.9 680.696 1103.81 680.779 1103.81 680.881L1103.81 681.119C1103.81 681.221 1103.9 681.304 1104 681.304ZM1104.35 681C1104.35 681.133 1104.46 681.24 1104.59 681.233L1109.03 681L1104.59 680.767C1104.46 680.76 1104.35 680.867 1104.35 681ZM1106.32 680.696L1110.57 680.919L1114.82 680.696H1106.32ZM1110.57 681.081L1106.32 681.304L1114.82 681.304L1110.57 681.081ZM1104.08 674.234L1104.19 676.721V671.747L1104.08 674.234ZM1103.92 674.234L1103.81 676.721V671.747L1103.92 674.234Z" fill="white"/>
</g>
<g opacity="0.8">
<path fill-rule="evenodd" clip-rule="evenodd" d="M388 786.739L388.154 790.428C388.158 790.516 388.088 790.589 388 790.589C387.912 790.589 387.842 790.516 387.846 790.428L388 786.739ZM384.837 790.589C386.415 790.589 387.694 789.31 387.694 787.732L387.694 776L388 783.32L388.306 776L388.306 787.732C388.306 789.31 389.585 790.589 391.163 790.589L403 790.589L395.163 791L403 791.411H391.163C389.585 791.411 388.306 792.69 388.306 794.268L388.306 806L388 798.68L387.694 806V794.268C387.694 792.69 386.415 791.411 384.837 791.411L373 791.411L380.837 791L373 790.589L384.837 790.589ZM385.949 790.732L378.452 790.732L382.201 790.928L385.949 790.732ZM382.201 791.072L378.452 791.268L385.95 791.268L382.201 791.072ZM387.694 791C387.694 791.118 387.595 791.211 387.478 791.205L383.565 791L387.478 790.795C387.595 790.789 387.694 790.882 387.694 791ZM387.837 794.776L387.837 799.165L387.929 796.97L387.837 794.776ZM388 795.261L387.846 791.572C387.842 791.484 387.912 791.411 388 791.411C388.088 791.411 388.158 791.484 388.154 791.572L388 795.261ZM388.071 796.97L388.163 799.165L388.163 794.776L388.071 796.97ZM388 791.268C388.09 791.268 388.163 791.195 388.163 791.105V790.895C388.163 790.805 388.09 790.732 388 790.732C387.91 790.732 387.837 790.805 387.837 790.895L387.837 791.105C387.837 791.195 387.91 791.268 388 791.268ZM388.306 791C388.306 791.118 388.405 791.211 388.522 791.205L392.435 791L388.522 790.795C388.405 790.789 388.306 790.882 388.306 791ZM390.05 790.732L393.799 790.928L397.548 790.732L390.05 790.732ZM393.799 791.072L390.05 791.268L397.548 791.268L393.799 791.072ZM388.071 785.03L388.163 787.224V782.835L388.071 785.03ZM387.929 785.03L387.837 787.224V782.835L387.929 785.03Z" fill="white"/>
</g>
<g opacity="0.8">
<path fill-rule="evenodd" clip-rule="evenodd" d="M192 204.751L192.226 210.161C192.232 210.29 192.129 210.397 192 210.397C191.871 210.397 191.768 210.29 191.774 210.161L192 204.751ZM187.361 210.397C189.675 210.397 191.551 208.521 191.551 206.207L191.551 189L192 199.736L192.449 189L192.449 206.207C192.449 208.521 194.325 210.397 196.639 210.397L214 210.397L202.506 211L214 211.603H196.639C194.325 211.603 192.449 213.479 192.449 215.793L192.449 233L192 222.264L191.551 233V215.793C191.551 213.479 189.675 211.603 187.361 211.603L170 211.603L181.494 211L170 210.397L187.361 210.397ZM188.993 210.607L177.996 210.607L183.495 210.895L188.993 210.607ZM183.495 211.105L177.996 211.393L188.993 211.393L183.495 211.105ZM191.551 211C191.551 211.173 191.406 211.31 191.234 211.301L185.495 211L191.234 210.699C191.406 210.69 191.551 210.827 191.551 211ZM191.761 216.538L191.761 222.975L191.895 219.756L191.761 216.538ZM192 217.249L191.774 211.839C191.768 211.71 191.871 211.603 192 211.603C192.129 211.603 192.232 211.71 192.226 211.839L192 217.249ZM192.105 219.756L192.239 222.975L192.239 216.538L192.105 219.756ZM192 211.393C192.132 211.393 192.239 211.286 192.239 211.154V210.846C192.239 210.714 192.132 210.607 192 210.607C191.868 210.607 191.761 210.714 191.761 210.846L191.761 211.154C191.761 211.286 191.868 211.393 192 211.393ZM192.449 211C192.449 211.173 192.594 211.31 192.766 211.301L198.505 211L192.766 210.699C192.594 210.69 192.449 210.827 192.449 211ZM195.007 210.607L200.505 210.895L206.004 210.607L195.007 210.607ZM200.505 211.105L195.007 211.393L206.004 211.393L200.505 211.105ZM192.105 202.244L192.239 205.462V199.025L192.105 202.244ZM191.895 202.244L191.761 205.462V199.025L191.895 202.244Z" fill="white"/>
</g>
<g opacity="0.4">
<path fill-rule="evenodd" clip-rule="evenodd" d="M82 544.922L82.4011 554.513C82.4106 554.741 82.2283 554.931 82 554.931C81.7717 554.931 81.5894 554.741 81.5989 554.513L82 544.922ZM73.7755 554.931C77.8782 554.931 81.2041 551.606 81.2041 547.503L81.2041 517L82 536.033L82.7959 517L82.7959 547.503C82.7959 551.606 86.1218 554.931 90.2245 554.931L121 554.931L100.624 556L121 557.069H90.2245C86.1218 557.069 82.7959 560.394 82.7959 564.497L82.7959 595L82 575.967L81.2041 595V564.497C81.2041 560.394 77.8782 557.069 73.7755 557.069L43 557.069L63.3758 556L43 554.931L73.7755 554.931ZM76.6687 555.303L57.1756 555.303L66.9221 555.814L76.6687 555.303ZM66.9221 556.186L57.1756 556.697L76.6687 556.697L66.9221 556.186ZM81.2041 556C81.2041 556.306 80.9475 556.55 80.6419 556.533L70.4684 556L80.6419 555.467C80.9475 555.45 81.2041 555.694 81.2041 556ZM81.5755 565.817V577.229L81.8141 571.523L81.5755 565.817ZM82 567.078L81.5989 557.487C81.5894 557.259 81.7717 557.069 82 557.069C82.2283 557.069 82.4106 557.259 82.4011 557.487L82 567.078ZM82.1859 571.523L82.4245 577.229L82.4245 565.817L82.1859 571.523ZM82 556.697C82.2344 556.697 82.4245 556.507 82.4245 556.273V555.727C82.4245 555.493 82.2344 555.303 82 555.303C81.7656 555.303 81.5755 555.493 81.5755 555.727V556.273C81.5755 556.507 81.7656 556.697 82 556.697ZM82.7959 556C82.7959 556.306 83.0525 556.55 83.3581 556.533L93.5315 556L83.3581 555.467C83.0525 555.45 82.7959 555.694 82.7959 556ZM87.3311 555.303L97.0778 555.814L106.824 555.303L87.3311 555.303ZM97.0778 556.186L87.3312 556.697L106.824 556.697L97.0778 556.186ZM82.1859 540.477L82.4245 546.183V534.771L82.1859 540.477ZM81.8141 540.477L81.5755 546.183V534.771L81.8141 540.477Z" fill="white"/>
</g>
<defs>
<filter id="filter0_bf_1411_252" x="-277.096" y="127.063" width="2050.19" height="1405.94" filterUnits="userSpaceOnUse" color-interpolation-filters="sRGB">
<feFlood flood-opacity="0" result="BackgroundImageFix"/>
<feGaussianBlur in="BackgroundImageFix" stdDeviation="102"/>
<feComposite in2="SourceAlpha" operator="in" result="effect1_backgroundBlur_1411_252"/>
<feBlend mode="normal" in="SourceGraphic" in2="effect1_backgroundBlur_1411_252" result="shape"/>
<feGaussianBlur stdDeviation="60" result="effect2_foregroundBlur_1411_252"/>
</filter>
<filter id="filter1_f_1411_252" x="5" y="-185" width="1486.77" height="694.253" filterUnits="userSpaceOnUse" color-interpolation-filters="sRGB">
<feFlood flood-opacity="0" result="BackgroundImageFix"/>
<feBlend mode="normal" in="SourceGraphic" in2="BackgroundImageFix" result="shape"/>
<feGaussianBlur stdDeviation="117" result="effect1_foregroundBlur_1411_252"/>
</filter>
<filter id="filter2_f_1411_252" x="-496" y="-138" width="2440" height="1584" filterUnits="userSpaceOnUse" color-interpolation-filters="sRGB">
<feFlood flood-opacity="0" result="BackgroundImageFix"/>
<feBlend mode="normal" in="SourceGraphic" in2="BackgroundImageFix" result="shape"/>
<feGaussianBlur stdDeviation="250" result="effect1_foregroundBlur_1411_252"/>
</filter>
<radialGradient id="paint0_angular_1411_252" cx="0" cy="0" r="1" gradientUnits="userSpaceOnUse" gradientTransform="translate(298.082 -0.306069) rotate(-0.171066) scale(450.084 472.085)">
<stop stop-color="#FF1686"/>
<stop offset="0.176404" stop-color="#6C0939"/>
<stop offset="0.347909" stop-opacity="0.512469"/>
<stop offset="0.782787" stop-color="#12020A" stop-opacity="0.176614"/>
<stop offset="0.889066" stop-color="#090004" stop-opacity="0.0420755"/>
<stop offset="0.972463" stop-color="#B81061" stop-opacity="0.012098"/>
<stop offset="1" stop-color="#FF1686" stop-opacity="0"/>
</radialGradient>
<radialGradient id="paint1_angular_1411_252" cx="0" cy="0" r="1" gradientUnits="userSpaceOnUse" gradientTransform="translate(450.082 772.694) rotate(-0.171066) scale(450.084 472.085)">
<stop stop-color="#FF1686"/>
<stop offset="0.176404" stop-color="#6C0939"/>
<stop offset="0.347909" stop-opacity="0.512469"/>
<stop offset="0.782787" stop-color="#12020A" stop-opacity="0.176614"/>
<stop offset="0.889066" stop-color="#090004" stop-opacity="0.0420755"/>
<stop offset="0.972463" stop-color="#B81061" stop-opacity="0.012098"/>
<stop offset="1" stop-color="#FF1686" stop-opacity="0"/>
</radialGradient>
</defs>
</svg>
