<svg width="157" height="52" viewBox="0 0 157 52" fill="none" xmlns="http://www.w3.org/2000/svg">
<g opacity="0.8" clip-path="url(#clip0_2113_176)">
<path fill-rule="evenodd" clip-rule="evenodd" d="M39.2175 9.61665L39.768 9.37307L39.6386 9.86604C39.6084 10.0299 39.5366 10.0908 39.3986 10.1691C19.4011 21.3465 17.7095 26.6547 6.95041 45.8777C4.59337 46.0053 1.64562 49.7287 0 51.3367C12.5268 30.9058 15.2791 20.2272 39.2175 9.61665ZM38.8481 4.14755C23.467 6.07595 4.79027 19.1093 7.62734 36.7345C7.56986 30.0678 10.1339 25.2033 13.4409 20.478C13.198 22.5862 13.3949 24.3029 13.6565 26.4009C14.2012 22.3571 14.6482 18.5047 17.6778 15.5961C17.583 17.0837 17.8992 18.0044 18.3174 19.3616C18.5129 17.3694 18.911 15.0756 20.1197 13.4444C23.0042 11.1202 26.2494 9.21212 29.6815 7.83905C28.9529 9.81674 28.9284 11.3203 28.9572 13.3763C29.6384 11.6813 30.8902 8.21893 32.1277 6.96185C33.4614 6.53847 34.8153 6.19484 36.1807 5.93966C37.3477 5.72072 38.5248 5.56558 39.7105 5.47858C38.3595 7.03 38.095 7.9043 37.5058 9.77179C38.4443 8.66406 39.3009 7.66216 40.4248 6.71681C41.1003 6.14844 41.7772 5.67577 42.3665 5.39448C44.0495 5.41478 45.7382 5.57573 47.4183 5.89036C48.8311 6.15424 50.2367 6.52687 51.6265 7.01695C49.0194 7.89415 46.7126 9.01784 44.6373 10.3141C42.4125 11.7045 40.455 13.2922 38.6786 14.9886C35.9263 15.0945 33.976 16.1108 31.6189 17.4259C33.4571 16.9619 34.8627 16.4893 36.7886 16.8996C36.0987 17.6347 35.4333 18.3843 34.7866 19.1397C34.0493 20.0024 33.3378 20.8724 32.6437 21.7394C32.0645 22.4629 31.4508 23.2459 30.8414 24.0202C30.6862 24.2174 30.5324 24.4131 30.1256 24.9293C28.9399 24.9931 27.6752 25.2221 26.4665 25.5658C25.1658 25.9355 23.924 26.4357 22.9065 27.0041L21.2695 27.9161L23.0832 27.4594C24.0836 27.2071 25.1457 26.9707 26.1474 26.8707C26.9939 26.7866 27.7988 26.7997 28.4915 26.9794C28.2501 27.2781 28.0273 27.558 27.8045 27.8349C23.97 32.6225 20.8009 36.5779 14.3593 37.6828L12.5585 37.9916L14.3765 38.1714C22.563 38.9804 26.4837 33.6244 30.679 27.8943C31.698 26.501 32.7342 25.0859 33.8452 23.7418C36.7627 20.2127 39.5251 17.1707 42.8063 14.4811C46.0846 11.7944 49.886 9.45716 54.8847 7.33593L55.3374 7.14309L54.9106 6.8966C50.2468 4.1925 44.597 3.42839 38.8424 4.15045L38.8481 4.14755ZM47.8107 2.76433C38.1856 -1.24035 23.7242 -0.953265 13.3446 4.00401C5.30192 7.84485 -2.79971 16.0876 8.37901 22.8762C8.98696 21.6582 9.71994 20.4389 10.4932 19.321C5.13089 14.9901 11.114 9.95448 15.1225 7.76221C24.2603 2.76578 39.7723 1.25931 47.8121 2.76433H47.8107ZM33.8236 26.066C32.5272 27.7624 31.2999 29.5009 30.0092 31.1958C53.0522 40.2578 8.39195 50.1941 0.904014 51.328C22.6966 53.8552 66.4184 37.4073 33.8251 26.0646L33.8236 26.066Z" fill="white"/>
</g>
<path opacity="0.9" d="M68.4095 35.9718C66.9624 35.9718 65.5657 35.7951 64.2196 35.4417C62.8903 35.0715 61.805 34.6004 60.9636 34.0283L62.6042 30.3432C63.3951 30.848 64.3037 31.2687 65.3302 31.6052C66.3734 31.9249 67.4083 32.0848 68.4347 32.0848C69.1246 32.0848 69.6799 32.0259 70.1006 31.9081C70.5212 31.7735 70.8241 31.6052 71.0092 31.4033C71.2111 31.1846 71.3121 30.9322 71.3121 30.6461C71.3121 30.2423 71.127 29.9226 70.7568 29.687C70.3866 29.4514 69.907 29.2579 69.3181 29.1065C68.7292 28.955 68.0729 28.8036 67.3494 28.6521C66.6427 28.5007 65.9275 28.3072 65.204 28.0716C64.4973 27.836 63.8494 27.5332 63.2605 27.163C62.6716 26.776 62.192 26.2796 61.8218 25.6738C61.4516 25.0512 61.2665 24.2688 61.2665 23.3265C61.2665 22.2664 61.5526 21.3073 62.1247 20.4491C62.7136 19.5909 63.5886 18.901 64.7497 18.3794C65.9107 17.8578 67.3578 17.597 69.091 17.597C70.252 17.597 71.3878 17.7316 72.4984 18.0008C73.6258 18.2532 74.6269 18.6318 75.5019 19.1366L73.9623 22.8469C73.121 22.3926 72.288 22.0561 71.4635 21.8373C70.639 21.6017 69.8397 21.4839 69.0657 21.4839C68.3758 21.4839 67.8205 21.5597 67.3999 21.7111C66.9792 21.8457 66.6763 22.0308 66.4912 22.2664C66.3061 22.502 66.2136 22.7712 66.2136 23.0741C66.2136 23.4611 66.3903 23.7724 66.7436 24.008C67.1138 24.2267 67.5934 24.4118 68.1823 24.5632C68.7881 24.6979 69.4443 24.8409 70.151 24.9923C70.8746 25.1438 71.5897 25.3373 72.2964 25.5728C73.02 25.7916 73.6762 26.0945 74.2652 26.4815C74.8541 26.8517 75.3253 27.3481 75.6786 27.9707C76.0488 28.5764 76.2339 29.342 76.2339 30.2675C76.2339 31.2939 75.9394 32.2446 75.3505 33.1196C74.7784 33.9778 73.9118 34.6677 72.7508 35.1893C71.6065 35.711 70.1594 35.9718 68.4095 35.9718ZM86.6697 35.6184V33.0692L86.3416 32.4382V27.7435C86.3416 26.9863 86.106 26.4058 85.6349 26.0019C85.1805 25.5813 84.4486 25.3709 83.439 25.3709C82.7827 25.3709 82.1181 25.4803 81.445 25.699C80.7719 25.901 80.1998 26.187 79.7287 26.5572L78.1133 23.3012C78.8873 22.7964 79.8128 22.4094 80.8897 22.1402C81.9835 21.8541 83.0688 21.7111 84.1457 21.7111C86.3668 21.7111 88.0831 22.2243 89.2947 23.2508C90.523 24.2604 91.1372 25.8505 91.1372 28.0211V35.6184H86.6697ZM82.6313 35.8456C81.5375 35.8456 80.6121 35.6605 79.8549 35.2903C79.0977 34.9201 78.5171 34.4153 78.1133 33.7759C77.7263 33.1365 77.5328 32.4213 77.5328 31.6305C77.5328 30.7891 77.7431 30.0656 78.1638 29.4598C78.6013 28.8372 79.2659 28.3661 80.1578 28.0464C81.0496 27.7098 82.2022 27.5416 83.6156 27.5416H86.8464V30.0403H84.2719C83.4979 30.0403 82.951 30.1665 82.6313 30.4189C82.3284 30.6713 82.177 31.0079 82.177 31.4285C82.177 31.8492 82.3368 32.1858 82.6565 32.4382C82.9762 32.6906 83.4137 32.8168 83.969 32.8168C84.4906 32.8168 84.9618 32.6906 85.3825 32.4382C85.82 32.1689 86.1397 31.7651 86.3416 31.2266L86.9978 32.9934C86.7454 33.9357 86.249 34.6509 85.5087 35.1388C84.7851 35.61 83.826 35.8456 82.6313 35.8456ZM94.1642 35.6184V21.9383H98.9599V35.6184H94.1642ZM96.562 20.4239C95.6871 20.4239 94.9803 20.1799 94.4419 19.6919C93.9034 19.2039 93.6342 18.5982 93.6342 17.8746C93.6342 17.1511 93.9034 16.5453 94.4419 16.0573C94.9803 15.5693 95.6871 15.3254 96.562 15.3254C97.437 15.3254 98.1438 15.5609 98.6822 16.0321C99.2207 16.4864 99.4899 17.0753 99.4899 17.7989C99.4899 18.5561 99.2207 19.1871 98.6822 19.6919C98.1606 20.1799 97.4539 20.4239 96.562 20.4239ZM108.033 35.8456C106.788 35.8456 105.652 35.5595 104.626 34.9874C103.616 34.3985 102.808 33.5824 102.203 32.5391C101.597 31.479 101.294 30.217 101.294 28.7531C101.294 27.306 101.597 26.0608 102.203 25.0176C102.808 23.9575 103.616 23.1414 104.626 22.5693C105.652 21.9972 106.788 21.7111 108.033 21.7111C109.211 21.7111 110.204 21.9635 111.011 22.4683C111.836 22.9731 112.459 23.7471 112.879 24.7904C113.3 25.8337 113.51 27.1546 113.51 28.7531C113.51 30.3853 113.308 31.723 112.904 32.7663C112.501 33.8095 111.895 34.5836 111.087 35.0884C110.279 35.5932 109.261 35.8456 108.033 35.8456ZM109.043 32.0343C109.581 32.0343 110.061 31.9081 110.481 31.6557C110.919 31.4033 111.264 31.0331 111.516 30.5451C111.769 30.0403 111.895 29.443 111.895 28.7531C111.895 28.0632 111.769 27.4827 111.516 27.0115C111.264 26.5236 110.919 26.1534 110.481 25.901C110.061 25.6486 109.581 25.5224 109.043 25.5224C108.487 25.5224 107.991 25.6486 107.554 25.901C107.133 26.1534 106.796 26.5236 106.544 27.0115C106.292 27.4827 106.165 28.0632 106.165 28.7531C106.165 29.443 106.292 30.0403 106.544 30.5451C106.796 31.0331 107.133 31.4033 107.554 31.6557C107.991 31.9081 108.487 32.0343 109.043 32.0343ZM112.046 35.6184V33.2711L112.072 28.7531L111.819 24.2351V16.8902H116.615V35.6184H112.046ZM126.565 35.8456C125.068 35.8456 123.739 35.5427 122.577 34.9369C121.416 34.3312 120.499 33.4982 119.826 32.4382C119.17 31.3612 118.842 30.1329 118.842 28.7531C118.842 27.3733 119.17 26.1534 119.826 25.0933C120.499 24.0332 121.416 23.2087 122.577 22.6198C123.739 22.014 125.068 21.7111 126.565 21.7111C128.063 21.7111 129.392 22.014 130.553 22.6198C131.731 23.2087 132.648 24.0332 133.305 25.0933C133.961 26.1534 134.289 27.3733 134.289 28.7531C134.289 30.1329 133.961 31.3612 133.305 32.4382C132.648 33.4982 131.731 34.3312 130.553 34.9369C129.392 35.5427 128.063 35.8456 126.565 35.8456ZM126.565 32.0343C127.121 32.0343 127.609 31.9081 128.029 31.6557C128.467 31.4033 128.812 31.0331 129.064 30.5451C129.317 30.0403 129.443 29.443 129.443 28.7531C129.443 28.0632 129.317 27.4827 129.064 27.0115C128.812 26.5236 128.467 26.1534 128.029 25.901C127.609 25.6486 127.121 25.5224 126.565 25.5224C126.027 25.5224 125.539 25.6486 125.102 25.901C124.681 26.1534 124.336 26.5236 124.067 27.0115C123.814 27.4827 123.688 28.0632 123.688 28.7531C123.688 29.443 123.814 30.0403 124.067 30.5451C124.336 31.0331 124.681 31.4033 125.102 31.6557C125.539 31.9081 126.027 32.0343 126.565 32.0343ZM137.066 35.6184V22.0897C137.066 20.4407 137.554 19.1282 138.53 18.1523C139.522 17.1595 140.936 16.6631 142.77 16.6631C143.359 16.6631 143.939 16.722 144.512 16.8398C145.084 16.9576 145.563 17.1342 145.95 17.3698L144.764 20.752C144.562 20.6342 144.335 20.5416 144.082 20.4743C143.83 20.3902 143.578 20.3481 143.325 20.3481C142.82 20.3481 142.425 20.4996 142.139 20.8025C141.87 21.0885 141.735 21.5344 141.735 22.1402V23.1246L141.861 25.1185V35.6184H137.066ZM135.072 26.0272V22.4431H144.991V26.0272H135.072ZM147.665 35.6184V22.0897C147.665 20.4407 148.153 19.1282 149.129 18.1523C150.121 17.1595 151.535 16.6631 153.369 16.6631C153.958 16.6631 154.538 16.722 155.11 16.8398C155.683 16.9576 156.162 17.1342 156.549 17.3698L155.363 20.752C155.161 20.6342 154.934 20.5416 154.681 20.4743C154.429 20.3902 154.177 20.3481 153.924 20.3481C153.419 20.3481 153.024 20.4996 152.738 20.8025C152.469 21.0885 152.334 21.5344 152.334 22.1402V23.1246L152.46 25.1185V35.6184H147.665ZM145.671 26.0272V22.4431H155.59V26.0272H145.671Z" fill="white"/>
<defs>
<clipPath id="clip0_2113_176">
<rect width="55.3432" height="51.5896" fill="white"/>
</clipPath>
</defs>
</svg>
