<svg width="148" height="37" viewBox="0 0 148 37" fill="none" xmlns="http://www.w3.org/2000/svg">
<g clip-path="url(#clip0_2112_146)">
<mask id="mask0_2112_146" style="mask-type:luminance" maskUnits="userSpaceOnUse" x="0" y="0" width="31" height="37">
<path d="M30.4224 0H0V37H30.4224V0Z" fill="white"/>
</mask>
<g mask="url(#mask0_2112_146)">
<path d="M3.33848 2.99139L3.6231 3.22665L3.62422 3.59965L3.65474 14.5311C3.81348 13.8444 4.02945 13.1727 4.3003 12.5234C5.34805 10.003 7.04588 8.13759 8.70413 7.45254H7.93309C7.93309 7.45254 10.4859 4.18604 17.8134 4.76698C17.8134 4.76698 20.9098 5.10749 20.3259 6.70796C20.3259 6.70796 26.1479 7.03898 24.3423 11.2134C24.3982 11.0846 23.3418 10.493 23.253 10.4495C22.4765 10.0671 21.587 9.98047 20.8065 10.405C20.4326 10.6083 20.0985 10.9008 19.8114 11.2439C19.3557 11.7883 19.0191 12.4598 18.8303 13.104C18.5809 13.9553 18.6231 14.8607 18.8638 15.7084C19.3786 17.5243 20.6785 19.0834 22.1112 20.2396C22.6949 20.7103 23.3249 21.13 23.9992 21.454C24.2892 21.5955 24.5896 21.7139 24.8979 21.808C24.969 21.8293 25.6861 22.03 25.7115 21.9628C25.9 21.4675 26.0564 20.9601 26.1799 20.444C26.408 19.4893 26.5245 18.5105 26.527 17.5278L26.566 3.59965L26.5667 3.22665L26.8514 2.99139C27.7757 2.22697 29.0752 0.15974 29.1209 0.00156224C29.0803 0.142772 28.4167 0.359904 28.2852 0.41771C27.9201 0.577808 27.5485 0.722874 27.172 0.852551C26.2855 1.1604 25.3769 1.39771 24.4543 1.56233C23.646 1.7063 22.8271 1.7801 22.0067 1.78292C20.8782 1.78704 19.7532 1.65361 18.656 1.38547C17.9751 1.21866 17.3021 1.01332 16.6486 0.756208C16.3506 0.639994 16.0573 0.511429 15.7696 0.370833C15.6975 0.335174 15.1362 -0.0240323 15.0953 0.00127576C13.5639 0.948033 11.6521 1.37194 9.89268 1.61122C8.00172 1.86739 6.07877 1.70823 4.25339 1.14446C3.10869 0.789571 2.00413 0.313602 0.845577 0.000700006L0.841903 0.00156224C1.09628 0.497373 2.41397 2.22697 3.33848 2.99139Z" fill="white"/>
<path d="M28.0092 3.51059L27.9685 18.0812C27.9626 20.2741 27.4504 22.4373 26.4544 24.382C25.4128 26.4157 23.6608 28.8312 20.7184 31.031C20.1324 30.7266 19.5778 30.3634 19.0628 29.947C16.5252 27.895 15.1329 24.6898 15.3333 21.4132C15.361 20.9603 15.4189 20.5051 15.5088 20.0521C15.5865 19.661 15.6877 19.2704 15.8132 18.8833C15.686 19.1488 15.57 19.4196 15.4655 19.6952C15.3825 19.9131 15.3071 20.1343 15.2395 20.3578C14.1029 24.1038 15.225 28.097 17.9186 30.6816C18.3848 31.1285 18.8925 31.5281 19.4347 31.8751L19.4734 31.8998C18.5229 32.5198 17.4661 33.1146 16.2915 33.67C14.9524 32.9202 13.7633 31.922 12.7853 30.727C10.0236 27.3417 9.24831 22.6815 10.7466 18.567C11.0328 17.7814 11.397 17.0276 11.8336 16.3174C11.655 16.5359 11.4836 16.7604 11.3198 16.9906C10.7638 17.7714 10.2994 18.6157 9.93626 19.5063C8.72402 22.4801 8.72883 25.7787 9.83876 28.6946C10.4211 30.2258 11.2999 31.623 12.4227 32.8027C11.7087 32.405 11.0143 31.9721 10.3416 31.5062C10.1277 31.3635 9.91896 31.2133 9.71555 31.0558C8.99237 30.4955 8.3395 29.847 7.77151 29.1252C6.25473 27.2054 5.40034 24.8313 5.33995 22.3691C5.32837 21.9133 5.34385 21.4574 5.3863 21.0037C5.62174 18.4844 6.68503 16.0477 8.5273 14.1518C8.83064 13.8387 9.15189 13.5441 9.48939 13.2695C10.0207 12.836 10.5899 12.4529 11.1898 12.1249C10.424 12.4491 9.6965 12.86 9.02106 13.3497C8.84688 13.4758 8.67601 13.6072 8.5092 13.7431C6.46251 15.4066 5.06404 17.7565 4.56381 20.3728C4.20287 22.2437 4.31293 24.1772 4.88375 25.9932C4.54335 25.4735 4.2305 24.9357 3.94653 24.382C2.95049 22.4373 2.43835 20.2741 2.43241 18.0812L2.39171 3.51059C0.235721 1.72837 0 0.00223821 0 0.00223821V18.244C0 21.3389 0.85075 24.3778 2.49036 26.9845C6.83426 33.8905 15.2004 36.9692 15.2004 36.9692C15.2004 36.9692 16.0806 36.6453 17.418 35.9718C18.0943 35.6313 18.7589 35.2672 19.4104 34.8798C20.3436 34.3262 21.2478 33.7238 22.1194 33.0748C22.5877 32.7263 23.0449 32.3625 23.4903 31.9844C25.0994 30.6186 26.6695 28.9579 27.9105 26.9845C29.5501 24.3778 30.4011 21.3389 30.4011 18.244V0.00195312C30.4011 0.00195312 30.1652 1.72837 28.0092 3.51059Z" fill="white"/>
<path d="M16.2329 6.90649C17.3593 6.90649 18.2724 7.14192 18.2724 7.43232C18.2724 7.72273 17.3593 7.95815 16.2329 7.95815C15.1064 7.95815 14.1934 7.72273 14.1934 7.43232C14.1934 7.14192 15.1064 6.90649 16.2329 6.90649Z" fill="white"/>
</g>
<path d="M40.2881 10.5737V25.9433C40.9528 25.8493 42.0583 25.7618 43.5495 25.6775V10.5737H40.2881Z" fill="white"/>
<path d="M56.1928 10.5735V20.0721L49.1051 10.5735H46.6221V25.5314C47.6174 25.4924 48.7057 25.4535 49.8835 25.4147V16.626L56.3029 25.246C57.3154 25.2234 58.3659 25.2007 59.4541 25.1813V10.5735H56.1928Z" fill="white"/>
<path d="M73.3 19.5623C73.0314 19.0857 72.5113 18.6254 71.7399 18.1812C71.5196 18.0321 71.1751 17.8765 70.6998 17.7144C70.1971 17.5232 69.8423 17.3967 69.6391 17.3351L68.5027 16.9818C67.3041 16.6381 66.4707 16.3139 65.9989 16.0028C65.5719 15.6915 65.3618 15.2895 65.3618 14.8C65.3618 14.3397 65.5581 13.9668 65.9507 13.6783C66.3433 13.3866 66.8736 13.244 67.5349 13.244C68.9848 13.244 70.0386 13.9117 70.6998 15.2442L73.4412 13.7561C72.8764 12.6442 72.0808 11.7819 71.0546 11.1757C70.0318 10.5662 68.8574 10.2615 67.5349 10.2615C66.023 10.2615 64.7385 10.6861 63.6812 11.529C62.6273 12.346 62.1004 13.4644 62.1004 14.8908C62.1004 16.2977 62.6204 17.3675 63.6605 18.0937C64.4939 18.6416 65.6373 19.1246 67.0872 19.5396C68.4234 19.8962 69.3533 20.2269 69.8733 20.538C70.3934 20.8364 70.655 21.2578 70.655 21.8089C70.655 22.3114 70.4347 22.7134 69.9939 23.0083C69.5496 23.3066 68.8884 23.4524 68.0067 23.4524C66.116 23.4524 64.8486 22.6615 64.2012 21.073L61.415 22.6096C61.818 23.6308 62.4551 24.4704 63.3299 25.1123C66.1917 25.0669 69.2534 25.028 72.4735 24.9956C73.4343 24.1754 73.9165 23.0958 73.9165 21.7635C73.9165 20.9174 73.7099 20.1847 73.3 19.5623Z" fill="white"/>
<path d="M74.2236 10.5735V13.5106H78.6663V24.9478C79.7374 24.9381 80.8256 24.9316 81.9277 24.9284V13.5106H86.3944V10.5735H74.2236Z" fill="white"/>
<path d="M91.0969 20.4753L93.3666 14.1115L95.6356 20.4753H91.0969ZM95.3739 10.5747H91.3346L86.0068 24.9101L89.5058 24.9004L90.0569 23.3442H96.6522L97.2026 24.9004C98.3875 24.9004 99.5622 24.9036 100.723 24.9068L95.3739 10.5747Z" fill="white"/>
<path d="M111.987 10.574L107.968 22.5428L103.928 10.574H100.384L105.498 24.9256C107.165 24.9321 108.801 24.9418 110.406 24.9515L115.555 10.574H111.987Z" fill="white"/>
<path d="M117.14 10.5742V25.0134C118.249 25.0231 119.337 25.0361 120.401 25.0491V10.5742H117.14Z" fill="white"/>
<path d="M131.862 22.7521C131.497 23.1022 131.043 23.2741 130.492 23.2741H126.734V19.6043H130.492C131.043 19.6043 131.497 19.7793 131.862 20.1262C132.224 20.4763 132.404 20.9108 132.404 21.4294C132.404 21.9643 132.224 22.4052 131.862 22.7521ZM126.734 13.4448H129.996C130.512 13.4448 130.939 13.6069 131.27 13.9311C131.601 14.2585 131.766 14.6669 131.766 15.1564C131.766 15.6459 131.597 16.0544 131.259 16.3786C130.919 16.7061 130.499 16.8682 129.996 16.8682H126.734V13.4448ZM133.467 18.0708C134.507 17.2831 135.028 16.2457 135.028 14.9554C135.028 13.6944 134.538 12.6505 133.563 11.8206C132.586 10.9875 131.397 10.5725 129.996 10.5725H123.473V25.0927C127.178 25.1446 130.585 25.2094 133.612 25.284C133.798 25.1608 133.981 25.0246 134.153 24.8787C135.144 24.0326 135.64 22.9498 135.64 21.6304C135.64 20.0419 134.917 18.8554 133.467 18.0708Z" fill="white"/>
<path d="M141.028 23.2104V19.719H147.29V16.8273H141.028V13.5109H147.882V10.5737H137.768V25.3955C142.94 25.5543 146.532 25.7391 147.999 25.9433V23.2104H141.028Z" fill="white"/>
</g>
<defs>
<clipPath id="clip0_2112_146">
<rect width="148" height="37" fill="white"/>
</clipPath>
</defs>
</svg>
