<svg width="171" height="65" viewBox="0 0 171 65" fill="none" xmlns="http://www.w3.org/2000/svg">
<path fill-rule="evenodd" clip-rule="evenodd" d="M106.42 0H0V39.6324H106.42V0ZM8.90475 11.7428V29.1375H12.6819V18.922L17.776 27.2986H19.59L24.7115 18.6971L24.7339 29.1375H28.511L28.4613 11.7428H25.1563L18.7501 22.5437L12.2346 11.7428H8.90475ZM37.1358 21.8814V25.907H46.6034V29.1375H33.135V11.7428H46.2804V14.9732H37.1358V18.7503H45.2119V21.8814H37.1358ZM50.3035 11.7428V29.1375H58.2056C60.0942 29.1375 61.7591 28.7813 63.2004 28.0689C64.6417 27.34 65.7682 26.3295 66.5799 25.0373C67.3917 23.7285 67.7976 22.1961 67.7976 20.4401C67.7976 18.6675 67.3917 17.1351 66.5799 15.843C65.7682 14.5508 64.6417 13.5485 63.2004 12.8362C61.7591 12.1072 60.0942 11.7428 58.2056 11.7428H50.3035ZM58.0068 25.8325H54.3291V15.0478H58.0068C59.1665 15.0478 60.1688 15.2714 61.0136 15.7187C61.8751 16.1494 62.5377 16.7707 63.0016 17.5824C63.482 18.3776 63.7222 19.3302 63.7222 20.4401C63.7222 21.5335 63.482 22.4861 63.0016 23.2978C62.5377 24.1096 61.8751 24.7391 61.0136 25.1864C60.1688 25.6171 59.1665 25.8325 58.0068 25.8325ZM75.3561 11.7428H71.3305V29.1375H75.3561V11.7428ZM89.424 11.7428H85.4481L77.6951 29.1375H81.8201L83.3702 25.41H91.4335L92.9775 29.1375H97.202L89.424 11.7428ZM90.1674 22.3535L87.4097 15.6963L84.6412 22.3535H90.1674Z" fill="#D9D9D9"/>
<path d="M118.224 28.5521C116.65 28.5521 115.424 28.1545 114.546 27.3593C113.668 26.5475 113.229 25.3465 113.229 23.7561V12.0271H117.106V23.7064C117.106 24.2697 117.255 24.7087 117.553 25.0234C117.851 25.3216 118.257 25.4707 118.771 25.4707C119.383 25.4707 119.905 25.3051 120.336 24.9737L121.38 27.7072C120.982 27.9888 120.502 28.2042 119.938 28.3533C119.392 28.4858 118.82 28.5521 118.224 28.5521ZM111.167 18.2644V15.2824H120.435V18.2644H111.167ZM130.275 28.5521C128.751 28.5521 127.409 28.2539 126.249 27.6575C125.106 27.0611 124.22 26.2493 123.591 25.2222C122.961 24.1785 122.646 22.9941 122.646 21.6687C122.646 20.3269 122.953 19.1424 123.566 18.1153C124.195 17.0716 125.048 16.2598 126.125 15.68C127.202 15.0836 128.42 14.7854 129.778 14.7854C131.087 14.7854 132.263 15.0671 133.307 15.6303C134.367 16.177 135.204 16.9722 135.817 18.0159C136.429 19.043 136.736 20.2772 136.736 21.7184C136.736 21.8675 136.728 22.0415 136.711 22.2403C136.695 22.4225 136.678 22.5965 136.661 22.7621H125.802V20.5008H134.624L133.133 21.1718C133.133 20.476 132.992 19.8713 132.71 19.3577C132.429 18.8442 132.039 18.4466 131.542 18.165C131.045 17.8668 130.466 17.7177 129.803 17.7177C129.14 17.7177 128.552 17.8668 128.039 18.165C127.542 18.4466 127.152 18.8525 126.871 19.3826C126.589 19.8961 126.448 20.5091 126.448 21.2215V21.8178C126.448 22.5468 126.606 23.1929 126.92 23.7561C127.252 24.3028 127.707 24.7252 128.287 25.0234C128.884 25.3051 129.579 25.4459 130.374 25.4459C131.087 25.4459 131.708 25.3382 132.238 25.1228C132.785 24.9075 133.282 24.5844 133.729 24.1537L135.792 26.3902C135.179 27.0859 134.408 27.6244 133.481 28.0054C132.553 28.3698 131.484 28.5521 130.275 28.5521ZM146.275 28.5521C144.833 28.5521 143.55 28.2622 142.423 27.6823C141.297 27.0859 140.41 26.2659 139.764 25.2222C139.135 24.1785 138.82 22.9941 138.82 21.6687C138.82 20.3269 139.135 19.1424 139.764 18.1153C140.41 17.0716 141.297 16.2598 142.423 15.68C143.55 15.0836 144.833 14.7854 146.275 14.7854C147.683 14.7854 148.909 15.0836 149.952 15.68C150.996 16.2598 151.766 17.0964 152.263 18.1898L149.257 19.805C148.909 19.1755 148.47 18.7117 147.94 18.4135C147.426 18.1153 146.863 17.9662 146.25 17.9662C145.587 17.9662 144.991 18.1153 144.461 18.4135C143.931 18.7117 143.508 19.1341 143.193 19.6808C142.895 20.2275 142.746 20.8901 142.746 21.6687C142.746 22.4474 142.895 23.11 143.193 23.6567C143.508 24.2034 143.931 24.6258 144.461 24.924C144.991 25.2222 145.587 25.3713 146.25 25.3713C146.863 25.3713 147.426 25.2305 147.94 24.9489C148.47 24.6507 148.909 24.1785 149.257 23.5325L152.263 25.1725C151.766 26.2493 150.996 27.0859 149.952 27.6823C148.909 28.2622 147.683 28.5521 146.275 28.5521ZM163.045 14.7854C164.106 14.7854 165.05 15.0008 165.878 15.4315C166.723 15.8457 167.386 16.4918 167.866 17.3698C168.347 18.2312 168.587 19.3412 168.587 20.6996V28.3533H164.71V21.296C164.71 20.2192 164.47 19.424 163.99 18.9104C163.526 18.3969 162.863 18.1401 162.002 18.1401C161.389 18.1401 160.834 18.2726 160.337 18.5377C159.856 18.7862 159.475 19.1755 159.194 19.7056C158.929 20.2358 158.796 20.915 158.796 21.7433V28.3533H154.92V9.91492H158.796V18.6868L157.926 17.5686C158.407 16.674 159.094 15.9865 159.989 15.5061C160.883 15.0256 161.902 14.7854 163.045 14.7854Z" fill="white"/>
<path d="M1.85491 59.5554V47.1894H3.62149V59.5554H1.85491ZM10.1326 59.5554V48.7263H5.89279V47.1894H16.1213V48.7263H11.8815V59.5554H10.1326ZM25.9341 59.6614C25.1568 59.6614 24.4148 59.5554 23.7082 59.3434C23.0134 59.1314 22.4657 58.8723 22.0653 58.5661L22.7719 57.2235C23.1723 57.4944 23.667 57.7241 24.2558 57.9125C24.8447 58.1009 25.4453 58.1952 26.0578 58.1952C26.8468 58.1952 27.4121 58.0833 27.7537 57.8595C28.107 57.6357 28.2837 57.3236 28.2837 56.9232C28.2837 56.6288 28.1777 56.3991 27.9657 56.2342C27.7537 56.0694 27.471 55.9457 27.1177 55.8633C26.7762 55.7808 26.3934 55.7102 25.9694 55.6513C25.5455 55.5806 25.1215 55.4982 24.6975 55.404C24.2735 55.298 23.8849 55.1566 23.5316 54.98C23.1782 54.7915 22.8956 54.5383 22.6836 54.2203C22.4716 53.8906 22.3656 53.4548 22.3656 52.9131C22.3656 52.3478 22.5246 51.8531 22.8426 51.4291C23.1606 51.0052 23.6081 50.6813 24.1852 50.4575C24.774 50.222 25.4689 50.1042 26.2698 50.1042C26.8822 50.1042 27.5005 50.1808 28.1247 50.3339C28.7606 50.4752 29.2788 50.6813 29.6793 50.9522L28.955 52.2948C28.531 52.0121 28.0893 51.8178 27.63 51.7118C27.1707 51.6058 26.7114 51.5528 26.2521 51.5528C25.5101 51.5528 24.9566 51.6765 24.5915 51.9238C24.2264 52.1593 24.0439 52.4655 24.0439 52.8424C24.0439 53.1604 24.1499 53.4077 24.3618 53.5844C24.5856 53.7493 24.8683 53.8788 25.2098 53.973C25.5631 54.0672 25.9518 54.1497 26.3757 54.2203C26.7997 54.2792 27.2237 54.3617 27.6477 54.4677C28.0717 54.5619 28.4544 54.6973 28.796 54.874C29.1493 55.0506 29.4319 55.298 29.6439 55.6159C29.8677 55.9339 29.9796 56.3579 29.9796 56.8879C29.9796 57.4532 29.8147 57.9419 29.4849 58.3541C29.1552 58.7663 28.69 59.0902 28.0893 59.3258C27.4887 59.5495 26.7703 59.6614 25.9341 59.6614ZM36.5332 59.6614C35.5792 59.6614 34.7254 59.4553 33.9716 59.0431C33.2297 58.6309 32.6467 58.0656 32.2227 57.3472C31.7987 56.6288 31.5867 55.8044 31.5867 54.874C31.5867 53.9436 31.7987 53.1192 32.2227 52.4008C32.6467 51.6824 33.2297 51.1229 33.9716 50.7225C34.7254 50.3103 35.5792 50.1042 36.5332 50.1042C37.3811 50.1042 38.1349 50.275 38.7944 50.6165C39.4657 50.9463 39.9839 51.4409 40.349 52.1004L39.0594 52.9307C38.7532 52.4714 38.3763 52.1358 37.9288 51.9238C37.493 51.7 37.0219 51.5881 36.5155 51.5881C35.9031 51.5881 35.3555 51.7236 34.8726 51.9945C34.3897 52.2653 34.007 52.6481 33.7243 53.1427C33.4417 53.6256 33.3003 54.2027 33.3003 54.874C33.3003 55.5453 33.4417 56.1283 33.7243 56.6229C34.007 57.1175 34.3897 57.5003 34.8726 57.7712C35.3555 58.042 35.9031 58.1775 36.5155 58.1775C37.0219 58.1775 37.493 58.0715 37.9288 57.8595C38.3763 57.6357 38.7532 57.2942 39.0594 56.8349L40.349 57.6475C39.9839 58.2953 39.4657 58.7958 38.7944 59.1491C38.1349 59.4906 37.3811 59.6614 36.5332 59.6614ZM47.7766 50.1042C48.5422 50.1042 49.2135 50.2514 49.7905 50.5459C50.3794 50.8403 50.8387 51.2878 51.1685 51.8885C51.4982 52.4891 51.6631 53.2487 51.6631 54.1673V59.5554H49.9672V54.3617C49.9672 53.4548 49.7434 52.7717 49.2959 52.3124C48.8601 51.8531 48.2418 51.6235 47.441 51.6235C46.8403 51.6235 46.3163 51.7412 45.8687 51.9768C45.4212 52.2123 45.0738 52.5598 44.8264 53.0191C44.5909 53.4784 44.4731 54.0496 44.4731 54.7327V59.5554H42.7772V46.4474H44.4731V52.7188L44.1375 52.0474C44.4437 51.435 44.9148 50.9581 45.5507 50.6165C46.1867 50.275 46.9287 50.1042 47.7766 50.1042ZM59.1651 59.6614C58.223 59.6614 57.3868 59.4553 56.6566 59.0431C55.9264 58.6309 55.3493 58.0656 54.9254 57.3472C54.5014 56.617 54.2894 55.7926 54.2894 54.874C54.2894 53.9436 54.5014 53.1192 54.9254 52.4008C55.3493 51.6824 55.9264 51.1229 56.6566 50.7225C57.3868 50.3103 58.223 50.1042 59.1651 50.1042C60.0955 50.1042 60.9258 50.3103 61.656 50.7225C62.398 51.1229 62.9751 51.6824 63.3873 52.4008C63.8113 53.1074 64.0232 53.9318 64.0232 54.874C64.0232 55.8044 63.8113 56.6288 63.3873 57.3472C62.9751 58.0656 62.398 58.6309 61.656 59.0431C60.9258 59.4553 60.0955 59.6614 59.1651 59.6614ZM59.1651 58.1775C59.7658 58.1775 60.3016 58.042 60.7727 57.7712C61.2556 57.5003 61.6325 57.1175 61.9033 56.6229C62.1742 56.1165 62.3097 55.5335 62.3097 54.874C62.3097 54.2027 62.1742 53.6256 61.9033 53.1427C61.6325 52.6481 61.2556 52.2653 60.7727 51.9945C60.3016 51.7236 59.7658 51.5881 59.1651 51.5881C58.5645 51.5881 58.0286 51.7236 57.5576 51.9945C57.0865 52.2653 56.7096 52.6481 56.4269 53.1427C56.1443 53.6256 56.003 54.2027 56.003 54.874C56.003 55.5335 56.1443 56.1165 56.4269 56.6229C56.7096 57.1175 57.0865 57.5003 57.5576 57.7712C58.0286 58.042 58.5645 58.1775 59.1651 58.1775ZM70.7321 59.6614C69.7899 59.6614 68.9538 59.4553 68.2236 59.0431C67.4934 58.6309 66.9163 58.0656 66.4923 57.3472C66.0683 56.617 65.8564 55.7926 65.8564 54.874C65.8564 53.9436 66.0683 53.1192 66.4923 52.4008C66.9163 51.6824 67.4934 51.1229 68.2236 50.7225C68.9538 50.3103 69.7899 50.1042 70.7321 50.1042C71.6625 50.1042 72.4928 50.3103 73.223 50.7225C73.965 51.1229 74.542 51.6824 74.9542 52.4008C75.3782 53.1074 75.5902 53.9318 75.5902 54.874C75.5902 55.8044 75.3782 56.6288 74.9542 57.3472C74.542 58.0656 73.965 58.6309 73.223 59.0431C72.4928 59.4553 71.6625 59.6614 70.7321 59.6614ZM70.7321 58.1775C71.3328 58.1775 71.8686 58.042 72.3397 57.7712C72.8226 57.5003 73.1994 57.1175 73.4703 56.6229C73.7412 56.1165 73.8766 55.5335 73.8766 54.874C73.8766 54.2027 73.7412 53.6256 73.4703 53.1427C73.1994 52.6481 72.8226 52.2653 72.3397 51.9945C71.8686 51.7236 71.3328 51.5881 70.7321 51.5881C70.1315 51.5881 69.5956 51.7236 69.1245 51.9945C68.6534 52.2653 68.2766 52.6481 67.9939 53.1427C67.7113 53.6256 67.5699 54.2027 67.5699 54.874C67.5699 55.5335 67.7113 56.1165 67.9939 56.6229C68.2766 57.1175 68.6534 57.5003 69.1245 57.7712C69.5956 58.042 70.1315 58.1775 70.7321 58.1775ZM78.2889 59.5554V46.4474H79.9849V59.5554H78.2889Z" fill="white"/>
</svg>
