<svg viewBox="0 0 33 33" fill="white" xmlns="http://www.w3.org/2000/svg">
        <g clip-path="url(#clip0_128_1737)">
          <path d="M22.9628 0C24.5915 0.333844 26.2203 0.647456 27.8389 1.01165C28.3919 1.13305 28.9147 1.37584 29.4274 1.64899C24.6619 1.20386 19.9869 1.63887 15.3823 2.7618C12.2455 3.52054 9.20926 4.54231 6.69582 6.69712C6.50479 6.85898 6.31377 7.02085 6.14286 7.20294C4.28291 9.10484 4.23264 10.3998 6.01216 12.4534C5.5899 13.1616 5.14753 13.8899 4.71522 14.6183C0.924949 12.9795 9.53674e-07 9.48927 2.56371 6.48467C5.34861 3.22716 9.13888 1.74004 13.1805 0.77897C14.5076 0.465359 15.8548 0.252912 17.202 0C19.1122 0 21.0426 0 22.9628 0Z" />
          <path d="M0.532837 32.818C2.26209 32.4336 3.99134 32.0593 5.72059 31.6445C10.2247 30.5721 14.6986 29.3683 18.8709 27.2944C19.9768 26.7481 21.0425 26.0298 21.9675 25.2003C23.1538 24.138 23.0935 22.8735 21.8368 21.8821C20.9018 21.1436 19.8059 20.6074 18.6698 19.9094C19.3334 19.009 19.9969 18.0682 20.7208 17.1779C20.8817 16.9756 21.3341 16.7935 21.5553 16.8744C23.7571 17.6736 25.9387 18.5335 27.5976 20.2938C28.9649 21.7506 29.0453 23.3186 27.8087 24.9271C26.17 27.0617 23.8274 28.1846 21.4547 29.2469C15.5833 31.9075 6.23333 33.5869 0.532837 32.818Z" />
          <path d="M35.1278 4.68382C27.5573 7.46586 22.6712 12.9996 18.2274 19.0695C17.2924 20.3442 16.2066 21.5278 15.0404 22.5799C13.1201 24.3199 10.7173 24.8763 8.32447 24.4818C9.88281 23.7028 11.793 23.0453 13.3313 21.9122C14.9097 20.7387 16.1363 19.0897 17.5136 17.6532C17.4533 17.5115 17.393 17.3699 17.3327 17.2283C16.1061 17.38 14.8795 17.5419 13.653 17.6936C13.6128 17.5925 13.5826 17.5014 13.5424 17.4003C14.9499 16.9551 16.3675 16.5404 17.7549 16.0548C18.2978 15.8625 18.901 15.6096 19.273 15.1949C20.4594 13.8696 21.5552 12.4533 22.9025 10.8144C21.887 10.8751 21.143 10.9257 20.3991 10.9763C20.3689 10.9055 20.3488 10.8448 20.3186 10.7739C21.1129 10.4603 21.887 10.0051 22.7014 9.85335C23.8576 9.6409 24.7222 9.05415 25.6572 8.39657C27.678 6.97015 29.8295 5.72582 32.0715 4.30951C30.5534 4.0566 29.0353 3.73287 27.487 3.56089C25.617 3.34844 24.9233 5.14918 23.4655 6.16083C23.8475 5.24023 24.1391 4.53207 24.4608 3.78345C21.1833 3.62159 18.8307 4.71417 18.2375 8.36623C18.137 8.28529 18.0364 8.21448 17.9258 8.13355C17.9962 7.21294 18.0666 6.30246 18.137 5.38186C14.4774 6.27211 11.984 8.61914 11.0289 12.2813C10.8379 11.5226 10.6972 10.9864 10.4458 10.0051C9.82249 11.2595 9.23937 12.1903 8.87743 13.2019C8.5155 14.2034 8.37474 15.2859 7.95249 16.3279C7.90222 15.4984 7.862 14.6688 7.79162 13.5256C5.72055 16.3785 4.45377 19.2212 4.2527 22.762C3.68968 21.0321 4.04157 18.331 4.94641 16.1256C6.2735 12.9085 8.39485 10.3288 11.1395 8.24483C16.1162 4.47138 21.6558 2.32668 27.9796 2.52901C30.4327 2.60994 32.735 3.2574 35.1278 4.68382Z" />
          <path d="M0 32.1199C4.11199 25.0788 7.41969 17.5218 13.9949 12.3118C17.2824 9.71182 20.9219 7.74922 24.7524 6.11035C24.8127 6.2014 24.8831 6.29245 24.9434 6.3835C24.6016 6.60606 24.2799 6.83874 23.928 7.04107C20.4092 9.05425 16.9507 11.1585 13.9949 13.981C10.7173 17.1171 8.5256 21.0119 6.33388 24.9068C6.06243 25.3823 5.80103 25.8476 5.53963 26.3231C4.68506 27.8608 4.02151 29.4997 2.16156 30.2685C1.3271 30.6024 0.713818 31.4825 0 32.1199Z" />
        </g>
      </svg>