<svg width="204" height="68" viewBox="0 0 204 68" fill="none" xmlns="http://www.w3.org/2000/svg">
<g opacity="0.8" clip-path="url(#clip0_2123_566)">
<path fill-rule="evenodd" clip-rule="evenodd" d="M51.1229 13.1851L51.8381 12.8686L51.6701 13.5091C51.6309 13.722 51.5375 13.8011 51.3582 13.9028C25.3756 28.4256 23.1777 35.3224 9.19858 60.2987C6.13609 60.4645 2.30611 65.3023 0.167969 67.3915C16.444 40.8459 20.02 26.9712 51.1229 13.1851ZM50.643 6.07911C30.6584 8.58466 6.39192 25.5188 10.0781 48.4191C10.0034 39.757 13.3348 33.4366 17.6316 27.2971C17.316 30.0363 17.5719 32.2668 17.9117 34.9927C18.6195 29.7386 19.2002 24.7332 23.1366 20.9541C23.0134 22.887 23.4242 24.0832 23.9676 25.8465C24.2216 23.2581 24.7388 20.2778 26.3093 18.1585C30.0571 15.1386 34.2736 12.6595 38.7329 10.8754C37.7862 13.445 37.7544 15.3986 37.7918 18.0699C38.6769 15.8677 40.3034 11.369 41.9112 9.7357C43.6441 9.18561 45.4032 8.73913 47.1772 8.40757C48.6935 8.12311 50.2229 7.92154 51.7634 7.8085C50.0081 9.82424 49.6645 10.9602 48.8989 13.3866C50.1183 11.9474 51.2312 10.6456 52.6915 9.41733C53.5692 8.67885 54.4487 8.06471 55.2143 7.69924C57.401 7.72561 59.5952 7.93472 61.7781 8.34352C63.6138 8.68639 65.4401 9.17054 67.2458 9.80729C63.8584 10.947 60.8613 12.407 58.1648 14.0912C55.2741 15.8978 52.7307 17.9607 50.4227 20.1648C46.8466 20.3023 44.3126 21.6229 41.2501 23.3316C43.6385 22.7287 45.4648 22.1146 47.9671 22.6477C47.0707 23.6029 46.2061 24.5768 45.3658 25.5583C44.4079 26.6792 43.4835 27.8095 42.5816 28.9361C41.829 29.8761 41.0317 30.8934 40.2399 31.8994C40.0382 32.1556 39.8384 32.4099 39.3099 33.0806C37.7694 33.1635 36.1261 33.4611 34.5556 33.9076C32.8656 34.388 31.2522 35.0379 29.9301 35.7764L27.8032 36.9614L30.1598 36.3679C31.4595 36.0402 32.8395 35.7331 34.1411 35.6031C35.2409 35.4938 36.2867 35.5108 37.1867 35.7444C36.873 36.1325 36.5836 36.4961 36.2941 36.8559C31.312 43.0764 27.1944 48.2156 18.8249 49.6511L16.4851 50.0524L18.8473 50.286C29.4838 51.3372 34.578 44.3782 40.0289 36.9331C41.3528 35.1227 42.6992 33.2841 44.1427 31.5377C47.9335 26.9524 51.5225 23 55.7858 19.5054C60.0452 16.0146 64.9844 12.9778 71.4791 10.2217L72.0674 9.97118L71.5128 9.65093C65.4531 6.13751 58.1125 5.14471 50.6355 6.08288L50.643 6.07911ZM62.2879 4.2819C49.7822 -0.921341 30.9927 -0.548335 17.5065 5.89261C7.0567 10.883 -3.46967 21.5928 11.0547 30.413C11.8446 28.8306 12.797 27.2463 13.8016 25.7938C6.83448 20.1667 14.6084 13.624 19.8165 10.7756C31.6892 4.28379 51.8437 2.32645 62.2898 4.2819H62.2879ZM44.1147 34.5576C42.4303 36.7617 40.8356 39.0204 39.1587 41.2227C69.0983 52.9969 11.0715 65.907 1.34255 67.3802C29.6575 70.6638 86.4648 49.2932 44.1166 34.5557L44.1147 34.5576Z" fill="white"/>
</g>
<path opacity="0.9" d="M89.0505 46.9457C87.1703 46.9457 85.3557 46.7161 83.6066 46.257C81.8795 45.776 80.4693 45.1639 79.3762 44.4205L81.5078 39.6326C82.5354 40.2885 83.716 40.835 85.0496 41.2723C86.4051 41.6877 87.7496 41.8954 89.0833 41.8954C89.9797 41.8954 90.7011 41.8189 91.2477 41.6658C91.7943 41.4909 92.1878 41.2723 92.4283 41.0099C92.6906 40.7257 92.8218 40.3978 92.8218 40.0261C92.8218 39.5014 92.5813 39.086 92.1003 38.7799C91.6194 38.4738 90.9963 38.2224 90.2311 38.0257C89.4659 37.8289 88.6132 37.6321 87.6731 37.4354C86.7549 37.2386 85.8257 36.9872 84.8856 36.6811C83.9674 36.375 83.1257 35.9815 82.3605 35.5005C81.5953 34.9977 80.9722 34.3527 80.4912 33.5656C80.0102 32.7567 79.7697 31.7401 79.7697 30.5158C79.7697 29.1384 80.1414 27.8922 80.8847 26.7772C81.6499 25.6622 82.7868 24.7659 84.2953 24.0881C85.8039 23.4104 87.6841 23.0715 89.9359 23.0715C91.4445 23.0715 92.9202 23.2464 94.3631 23.5962C95.828 23.9241 97.1288 24.416 98.2657 25.0719L96.2652 29.8927C95.1721 29.3024 94.0899 28.8651 93.0186 28.5809C91.9473 28.2748 90.9088 28.1218 89.9031 28.1218C89.0068 28.1218 88.2853 28.2202 87.7387 28.4169C87.1921 28.5918 86.7986 28.8323 86.5581 29.1384C86.3176 29.4445 86.1974 29.7943 86.1974 30.1878C86.1974 30.6907 86.4269 31.0951 86.8861 31.4012C87.367 31.6854 87.9901 31.9259 88.7553 32.1227C89.5424 32.2976 90.395 32.4834 91.3133 32.6802C92.2534 32.877 93.1826 33.1284 94.1008 33.4345C95.0409 33.7187 95.8935 34.1122 96.6587 34.6151C97.4239 35.096 98.0361 35.741 98.4952 36.5499C98.9762 37.337 99.2167 38.3317 99.2167 39.5342C99.2167 40.8678 98.8341 42.1031 98.0689 43.2399C97.3256 44.3549 96.1996 45.2513 94.6911 45.9291C93.2044 46.6068 91.3242 46.9457 89.0505 46.9457ZM112.776 46.4866V43.1744L112.35 42.3545V36.2548C112.35 35.2709 112.043 34.5167 111.431 33.992C110.841 33.4454 109.89 33.1721 108.578 33.1721C107.726 33.1721 106.862 33.3142 105.987 33.5984C105.113 33.8608 104.37 34.2325 103.757 34.7134L101.659 30.483C102.664 29.8271 103.867 29.3243 105.266 28.9744C106.687 28.6028 108.097 28.4169 109.496 28.4169C112.382 28.4169 114.612 29.0838 116.186 30.4174C117.782 31.7292 118.58 33.7952 118.58 36.6155V46.4866H112.776ZM107.529 46.7817C106.108 46.7817 104.905 46.5412 103.921 46.0602C102.938 45.5793 102.183 44.9234 101.659 44.0926C101.156 43.2618 100.904 42.3326 100.904 41.3051C100.904 40.2119 101.178 39.2718 101.724 38.4848C102.293 37.6759 103.156 37.0637 104.315 36.6483C105.474 36.211 106.971 35.9924 108.808 35.9924H113.005V39.239H109.66C108.655 39.239 107.944 39.403 107.529 39.731C107.135 40.0589 106.938 40.4962 106.938 41.0427C106.938 41.5893 107.146 42.0266 107.562 42.3545C107.977 42.6824 108.545 42.8464 109.267 42.8464C109.945 42.8464 110.557 42.6824 111.103 42.3545C111.672 42.0047 112.087 41.48 112.35 40.7804L113.202 43.076C112.874 44.3003 112.229 45.2295 111.267 45.8635C110.327 46.4756 109.081 46.7817 107.529 46.7817ZM122.513 46.4866V28.7121H128.744V46.4866H122.513ZM125.629 26.7444C124.492 26.7444 123.574 26.4274 122.874 25.7934C122.175 25.1594 121.825 24.3723 121.825 23.4322C121.825 22.4921 122.175 21.7051 122.874 21.071C123.574 20.437 124.492 20.12 125.629 20.12C126.766 20.12 127.684 20.4261 128.384 21.0382C129.083 21.6285 129.433 22.3937 129.433 23.3338C129.433 24.3177 129.083 25.1375 128.384 25.7934C127.706 26.4274 126.788 26.7444 125.629 26.7444ZM140.533 46.7817C138.915 46.7817 137.439 46.4101 136.106 45.6667C134.794 44.9015 133.745 43.8412 132.958 42.4857C132.171 41.1083 131.777 39.4686 131.777 37.5665C131.777 35.6863 132.171 34.0685 132.958 32.713C133.745 31.3356 134.794 30.2753 136.106 29.5319C137.439 28.7886 138.915 28.4169 140.533 28.4169C142.063 28.4169 143.353 28.7449 144.403 29.4008C145.474 30.0567 146.283 31.0623 146.83 32.4178C147.376 33.7733 147.649 35.4896 147.649 37.5665C147.649 39.6872 147.387 41.4253 146.862 42.7808C146.338 44.1363 145.551 45.142 144.501 45.7979C143.452 46.4538 142.129 46.7817 140.533 46.7817ZM141.845 41.8298C142.544 41.8298 143.168 41.6658 143.714 41.3379C144.283 41.0099 144.731 40.529 145.059 39.8949C145.387 39.239 145.551 38.4629 145.551 37.5665C145.551 36.6702 145.387 35.9159 145.059 35.3037C144.731 34.6697 144.283 34.1887 143.714 33.8608C143.168 33.5328 142.544 33.3689 141.845 33.3689C141.123 33.3689 140.478 33.5328 139.91 33.8608C139.363 34.1887 138.926 34.6697 138.598 35.3037C138.27 35.9159 138.106 36.6702 138.106 37.5665C138.106 38.4629 138.27 39.239 138.598 39.8949C138.926 40.529 139.363 41.0099 139.91 41.3379C140.478 41.6658 141.123 41.8298 141.845 41.8298ZM145.747 46.4866V43.4367L145.78 37.5665L145.452 31.6964V22.1532H151.683V46.4866H145.747ZM164.612 46.7817C162.666 46.7817 160.939 46.3882 159.431 45.6011C157.922 44.8141 156.73 43.7319 155.856 42.3545C155.003 40.9553 154.577 39.3593 154.577 37.5665C154.577 35.7738 155.003 34.1887 155.856 32.8114C156.73 31.434 157.922 30.3627 159.431 29.5975C160.939 28.8105 162.666 28.4169 164.612 28.4169C166.558 28.4169 168.285 28.8105 169.793 29.5975C171.324 30.3627 172.515 31.434 173.368 32.8114C174.221 34.1887 174.647 35.7738 174.647 37.5665C174.647 39.3593 174.221 40.9553 173.368 42.3545C172.515 43.7319 171.324 44.8141 169.793 45.6011C168.285 46.3882 166.558 46.7817 164.612 46.7817ZM164.612 41.8298C165.333 41.8298 165.967 41.6658 166.514 41.3379C167.083 41.0099 167.531 40.529 167.859 39.8949C168.187 39.239 168.351 38.4629 168.351 37.5665C168.351 36.6702 168.187 35.9159 167.859 35.3037C167.531 34.6697 167.083 34.1887 166.514 33.8608C165.967 33.5328 165.333 33.3689 164.612 33.3689C163.912 33.3689 163.278 33.5328 162.71 33.8608C162.163 34.1887 161.715 34.6697 161.365 35.3037C161.037 35.9159 160.873 36.6702 160.873 37.5665C160.873 38.4629 161.037 39.239 161.365 39.8949C161.715 40.529 162.163 41.0099 162.71 41.3379C163.278 41.6658 163.912 41.8298 164.612 41.8298ZM178.255 46.4866V28.9089C178.255 26.7663 178.889 25.061 180.157 23.793C181.447 22.503 183.283 21.8581 185.666 21.8581C186.432 21.8581 187.186 21.9346 187.929 22.0877C188.673 22.2407 189.296 22.4703 189.798 22.7763L188.257 27.1708C187.995 27.0177 187.7 26.8975 187.372 26.81C187.044 26.7007 186.716 26.6461 186.388 26.6461C185.732 26.6461 185.218 26.8428 184.847 27.2364C184.497 27.608 184.322 28.1874 184.322 28.9744V30.2534L184.486 32.8442V46.4866H178.255ZM175.664 34.0248V29.368H188.552V34.0248H175.664ZM192.026 46.4866V28.9089C192.026 26.7663 192.66 25.061 193.928 23.793C195.218 22.503 197.054 21.8581 199.437 21.8581C200.203 21.8581 200.957 21.9346 201.7 22.0877C202.444 22.2407 203.067 22.4703 203.57 22.7763L202.028 27.1708C201.766 27.0177 201.471 26.8975 201.143 26.81C200.815 26.7007 200.487 26.6461 200.159 26.6461C199.503 26.6461 198.989 26.8428 198.618 27.2364C198.268 27.608 198.093 28.1874 198.093 28.9744V30.2534L198.257 32.8442V46.4866H192.026ZM189.435 34.0248V29.368H202.323V34.0248H189.435Z" fill="white"/>
<defs>
<clipPath id="clip0_2123_566">
<rect width="71.9069" height="67.0299" fill="white" transform="translate(0.167969 0.69043)"/>
</clipPath>
</defs>
</svg>
