<svg width="216" height="77" viewBox="0 0 216 77" fill="none" xmlns="http://www.w3.org/2000/svg">
<g clip-path="url(#clip0_2123_563)">
<path d="M0.000803854 40.3067C-0.0330518 37.1018 0.415536 33.8461 1.38042 30.6412C3.9196 22.2051 9.93744 14.8797 17.7073 10.7506C18.3252 10.42 19.0954 10.1232 19.6794 10.5047C17.1572 14.8288 14.6349 19.1443 12.1127 23.4684C10.8177 25.6813 9.52271 27.9111 8.55782 30.2851C4.32586 40.756 7.68604 53.8044 16.4293 60.9264C25.1809 68.0483 38.6132 68.6673 47.9827 62.3762C48.4144 62.0879 48.9476 61.7742 49.4047 62.0116C49.6501 62.1388 49.8109 62.3932 49.9464 62.6306C50.6489 63.8515 51.3514 65.0724 52.0454 66.2933C52.2062 66.5815 52.3755 66.8952 52.3162 67.2174C52.2485 67.565 51.9354 67.794 51.6476 67.9975C44.0047 73.1269 34.1781 74.8566 25.2571 72.6522C10.2929 68.9555 0.136226 55.1017 0.000803854 40.3067Z" fill="#E1E1E1"/>
<path d="M33.204 61.5792C30.4786 61.5792 27.7617 61.0705 25.231 60.0531C15.6329 56.1869 9.73357 45.1903 12.569 35.0754C13.3477 32.2945 14.7273 29.717 16.1323 27.1904C18.0282 23.7736 19.9918 20.3992 21.9555 17.0162C22.6326 15.8462 23.3435 14.6423 24.4354 13.8538C24.4439 21.6709 24.4523 29.4966 24.4608 37.3138C24.4608 39.5097 24.4777 41.7735 25.3326 43.7913C26.5937 46.7843 29.7677 48.8615 33.0178 48.8276C33.6441 48.8191 34.3212 48.7513 34.8545 49.0735C35.2692 49.3193 35.5316 49.7517 35.777 50.1672C37.3852 52.9142 38.9933 55.6612 40.6015 58.4083C40.8131 58.7644 41.0247 59.1629 40.94 59.5698C40.8215 60.1209 40.2206 60.3923 39.6874 60.5618C37.5968 61.2401 35.4046 61.5708 33.204 61.5792Z" fill="#E1E1E1"/>
<path d="M41.8371 31.0735C41.8371 28.1399 41.8371 25.2148 41.8371 22.2813C41.8371 21.3825 41.8286 20.4838 41.8371 19.5851C41.8455 18.7288 42.0656 17.9318 42.5565 17.2111C42.8866 16.7278 43.1574 16.2022 43.4622 15.702C43.7669 15.2102 44.0969 14.7439 44.3847 14.2436C44.6979 13.6925 44.9772 13.116 45.2734 12.5479C45.2904 12.514 45.2988 12.4716 45.3157 12.4292C45.5951 11.9629 45.8574 11.4881 46.1452 11.0303C46.3568 10.6912 46.6023 10.369 46.8054 10.0214C47.144 9.42786 47.4487 8.81741 47.7872 8.23239C48.0834 7.72368 48.422 7.24888 48.7182 6.74017C49.0145 6.24842 49.2684 5.73123 49.5562 5.231C49.9032 4.63751 50.2756 4.06097 50.6142 3.46747C50.9104 2.95029 51.2151 2.42462 51.4521 1.87352C51.6975 1.30546 52.0276 0.796746 52.4678 0.372821C52.8063 0.0421595 53.2126 -0.0595825 53.6696 0.016724C54.1267 0.101509 54.3383 0.330428 54.3721 0.796746C54.5245 3.00963 54.4906 5.22252 54.3298 7.42693C54.3214 7.57107 54.3214 7.7152 54.3214 7.85934C54.3214 17.3383 54.3214 26.8088 54.3214 36.2878C54.3214 37.9156 54.3975 39.535 54.3552 41.1629C54.3214 42.4855 54.1944 43.7997 54.0505 45.1139C53.9913 45.665 53.7797 46.1906 53.6273 46.7333C53.6104 46.7841 53.6019 46.835 53.5681 46.8774C52.9502 47.7168 52.8656 48.7851 52.3408 49.6668C51.8499 50.4892 51.5113 51.4049 50.8765 52.1425C50.8342 52.1934 50.8004 52.2443 50.7665 52.2867C50.4533 52.7021 50.1402 53.126 49.8186 53.533C49.4461 53.9909 49.0822 54.4572 48.6759 54.8811C48.0411 55.5339 47.364 56.1614 46.7038 56.7972C46.4584 57.0346 46.1114 57.0516 45.8744 56.8057C45.6712 56.5938 45.502 56.3394 45.3496 56.085C44.9603 55.4322 44.5963 54.7624 44.2239 54.1011C44.1647 53.9993 44.1393 53.8891 44.08 53.7959C43.9277 53.533 43.7669 53.2702 43.623 53.0074C43.3267 52.4732 43.0305 51.9306 42.7343 51.388C42.6665 51.2608 42.6327 51.1166 42.5565 50.9979C42.2095 50.4468 41.8371 49.9127 41.5155 49.3531C41.0161 48.4968 40.5421 47.6235 40.0681 46.7502C39.865 46.3772 39.8819 46.0211 40.102 45.6311C40.5506 44.8426 40.9992 44.0456 41.38 43.2232C41.5578 42.8416 41.6086 42.3838 41.6678 41.9599C41.7524 41.3409 41.854 40.7135 41.8625 40.0861C41.8455 37.0762 41.8371 34.0749 41.8371 31.0735Z" fill="#E1E1E1"/>
<path d="M66.4837 26.9023C66.4922 29.5985 66.5006 32.2862 66.5091 34.9823C66.5176 39.069 66.526 43.198 65.7389 47.2083C64.5793 53.0924 61.6593 58.6119 57.4612 62.8851C57.258 63.0886 57.0126 63.3005 56.7333 63.2581C56.4709 63.2157 56.2931 62.9614 56.1577 62.7325C55.5314 61.6726 53.6186 59.5445 53.5339 58.3406C53.4408 57.0519 55.159 55.3986 55.8361 54.22C57.4527 51.4052 58.6038 48.336 59.2386 45.1565C60.0003 41.2819 59.9834 37.3054 59.9665 33.3629C59.9242 24.1468 59.8818 14.9222 59.8395 5.69759C59.8395 5.12953 60.0257 4.35799 60.5928 4.38343C60.8129 4.3919 60.9991 4.52756 61.1768 4.66322C62.4887 5.68911 63.7668 6.77436 64.9941 7.902C65.4257 8.30049 65.8658 8.72442 66.1198 9.25856C66.4245 9.90293 66.4329 10.6406 66.4329 11.3443C66.4498 16.5331 66.4668 21.722 66.4837 26.9023Z" fill="#E1E1E1"/>
</g>
<path d="M81.9158 25.2809V6.23639H85.8398V25.525C85.8398 27.1528 86.52 27.9666 87.8803 27.9666C89.229 27.9666 89.9034 27.1528 89.9034 25.525V6.23639H93.6181V25.2809C93.6181 27.2923 93.1181 28.8445 92.1182 29.9374C91.13 31.0186 89.6825 31.5593 87.7757 31.5593C85.8689 31.5593 84.4156 31.0186 83.4157 29.9374C82.4158 28.8445 81.9158 27.2923 81.9158 25.2809ZM96.2864 31.2454V6.23639H101.745L104.64 23.9903L107.326 6.23639H112.785V31.2454H109.07V13.317L106.349 31.2454H102.635L99.7046 13.5612V31.2454H96.2864ZM115.645 31.2454V6.23639H119.569V31.2454H115.645ZM122.446 31.2454V6.23639H128.655C130.597 6.23639 132.056 6.7654 133.033 7.82343C134.021 8.88146 134.515 10.4162 134.515 12.4276V25.0716C134.515 27.083 134.021 28.6177 133.033 29.6758C132.056 30.7222 130.597 31.2454 128.655 31.2454H122.446ZM126.37 27.6702H128.585C129.236 27.6702 129.731 27.4841 130.068 27.1121C130.416 26.7284 130.591 26.1064 130.591 25.246V12.2358C130.591 11.3754 130.416 10.7592 130.068 10.3871C129.731 10.0034 129.236 9.81159 128.585 9.81159H126.37V27.6702ZM81.9158 61.2809V42.2364H85.8398V61.525C85.8398 63.1528 86.52 63.9666 87.8803 63.9666C89.229 63.9666 89.9034 63.1528 89.9034 61.525V42.2364H93.6181V61.2809C93.6181 63.2923 93.1181 64.8445 92.1182 65.9374C91.13 67.0186 89.6825 67.5593 87.7757 67.5593C85.8689 67.5593 84.4156 67.0186 83.4157 65.9374C82.4158 64.8445 81.9158 63.2923 81.9158 61.2809ZM95.9899 61.246V48.2358C95.9899 46.2243 96.4899 44.678 97.4898 43.5967C98.4897 42.5038 99.943 41.9573 101.85 41.9573C103.757 41.9573 105.21 42.5038 106.21 43.5967C107.21 44.678 107.71 46.2243 107.71 48.2358V50.6774H103.995V47.9916C103.995 46.3522 103.321 45.5326 101.972 45.5326C100.612 45.5326 99.9314 46.3522 99.9314 47.9916V61.4902C99.9314 63.1179 100.612 63.9318 101.972 63.9318C103.321 63.9318 103.995 63.1179 103.995 61.4902V57.915H107.71V61.246C107.71 63.2574 107.21 64.8096 106.21 65.9025C105.21 66.9838 103.757 67.5244 101.85 67.5244C99.943 67.5244 98.4897 66.9838 97.4898 65.9025C96.4899 64.8096 95.9899 63.2574 95.9899 61.246ZM110.099 67.2454V42.2364H114.023V52.962H118.488V42.2364H122.499V67.2454H118.488V56.5372H114.023V67.2454H110.099ZM125.01 61.246V48.2358C125.01 46.236 125.527 44.6896 126.562 43.5967C127.597 42.5038 129.074 41.9573 130.992 41.9573C132.91 41.9573 134.381 42.5038 135.404 43.5967C136.439 44.6896 136.957 46.236 136.957 48.2358V61.246C136.957 62.6645 136.707 63.8329 136.207 64.7514C136.288 64.9723 136.404 65.1177 136.555 65.1874C136.707 65.2456 136.957 65.2746 137.305 65.2746H137.654V68.7801H137.131C135.445 68.7801 134.311 68.2104 133.73 67.071C132.881 67.3733 131.969 67.5244 130.992 67.5244C129.074 67.5244 127.597 66.9779 126.562 65.885C125.527 64.7921 125.01 63.2458 125.01 61.246ZM128.952 61.4902C128.952 63.1411 129.632 63.9666 130.992 63.9666C132.341 63.9666 133.015 63.1411 133.015 61.4902V47.9916C133.015 46.3522 132.341 45.5326 130.992 45.5326C129.632 45.5326 128.952 46.3522 128.952 47.9916V61.4902ZM139.328 61.2809V42.2364H143.252V61.525C143.252 63.1528 143.933 63.9666 145.293 63.9666C146.642 63.9666 147.316 63.1528 147.316 61.525V42.2364H151.031V61.2809C151.031 63.2923 150.531 64.8445 149.531 65.9374C148.542 67.0186 147.095 67.5593 145.188 67.5593C143.281 67.5593 141.828 67.0186 140.828 65.9374C139.828 64.8445 139.328 63.2923 139.328 61.2809ZM153.699 67.2454V42.2364H158.617L162.663 57.2174V42.2364H166.169V67.2454H162.122L157.239 49.1426V67.2454H153.699ZM168.976 67.2454V42.2364H172.9V63.6702H179.371V67.2454H168.976ZM180.051 67.2454L184.045 42.2364H189.8L193.793 67.2454H189.835L189.154 62.711H184.324L183.643 67.2454H180.051ZM184.829 59.3102H188.614L186.73 46.6662L184.829 59.3102ZM195.625 67.2454V42.2364H201.554C203.566 42.2364 205.036 42.7073 205.967 43.649C206.908 44.5908 207.379 46.0383 207.379 47.9916V49.9623C207.379 52.5318 206.519 54.2235 204.798 55.0374C205.74 55.4327 206.408 56.0721 206.804 56.9558C207.211 57.8394 207.414 58.973 207.414 60.3566V64.2108C207.414 65.5944 207.554 66.6059 207.833 67.2454H203.839C203.746 66.9547 203.682 66.7396 203.647 66.6001C203.612 66.4489 203.572 66.1699 203.525 65.763C203.49 65.3444 203.473 64.8154 203.473 64.1759V60.2519C203.473 59.1009 203.269 58.2812 202.862 57.7929C202.455 57.3046 201.804 57.0604 200.909 57.0604H199.549V67.2454H195.625ZM199.549 53.5026H201.083C201.862 53.5026 202.45 53.305 202.845 52.9097C203.24 52.5027 203.438 51.8168 203.438 50.8518V48.3927C203.438 47.4975 203.281 46.8464 202.967 46.4394C202.653 46.0209 202.147 45.8116 201.45 45.8116H199.549V53.5026ZM209.995 67.2454V42.2364H213.919V67.2454H209.995Z" fill="white"/>
<defs>
<clipPath id="clip0_2123_563">
<rect width="66.5094" height="73.5849" fill="white"/>
</clipPath>
</defs>
</svg>
