<svg width="151" height="86" viewBox="0 0 151 86" fill="none" xmlns="http://www.w3.org/2000/svg">
<path opacity="0.896" fill-rule="evenodd" clip-rule="evenodd" d="M72.2607 0.646222C75.7371 0.357223 79.1022 0.834267 82.3561 2.07766C84.984 3.21512 87.4452 4.62154 89.7392 6.29662C90.0685 6.48451 90.2693 6.7607 90.342 7.12534C86.7117 21.9369 83.5725 36.8539 80.9246 51.8765C80.4623 54.419 80.1862 56.9805 80.0959 59.561C76.8312 59.561 73.5666 59.561 70.3019 59.561C70.1967 54.9824 69.6192 50.4621 68.5691 46.0001C65.9237 32.9482 62.8849 19.99 59.4531 7.12534C59.5033 6.97466 59.5536 6.82399 59.6038 6.67331C63.2579 3.47971 67.4768 1.47058 72.2607 0.646222Z" fill="#E7E6E6"/>
<path opacity="0.89" fill-rule="evenodd" clip-rule="evenodd" d="M32.7832 10.7417C42.3437 15.2262 51.9117 19.6961 61.4872 24.152C64.1702 34.2517 66.4303 44.4474 68.2677 54.7394C68.5303 56.2878 68.7062 57.8447 68.7951 59.4104C66.6988 59.4591 64.6144 59.4089 62.542 59.2598C61.2538 55.4277 59.5964 51.7612 57.5696 48.2603C53.627 41.4782 49.4582 34.8484 45.0634 28.3709C40.9918 22.4683 36.8983 16.5919 32.7832 10.7417Z" fill="#E7E6E6"/>
<path opacity="0.89" fill-rule="evenodd" clip-rule="evenodd" d="M117.162 10.7417C117.392 10.7443 117.468 10.8448 117.388 11.0431C110.003 21.142 102.971 31.4886 96.2929 42.0826C93.6847 46.3032 91.3243 50.6728 89.211 55.1915C88.6792 56.536 88.1769 57.8921 87.7043 59.2598C85.6319 59.4089 83.5474 59.4591 81.4512 59.4104C81.9359 54.5934 82.7144 49.8221 83.7867 45.0961C85.2787 38.0732 86.9361 31.0917 88.759 24.152C98.2713 19.7519 107.74 15.2819 117.162 10.7417Z" fill="#E7E6E6"/>
<path opacity="0.885" fill-rule="evenodd" clip-rule="evenodd" d="M134.943 29.1247C135.101 29.1022 135.251 29.1272 135.395 29.2C125.014 36.0724 114.818 43.2044 104.807 50.5962C102.755 52.1967 100.745 53.8541 98.7801 55.5685C97.5641 56.6835 96.4596 57.8889 95.4652 59.1848C93.3557 59.2601 91.2468 59.2853 89.1367 59.2601C89.9065 56.9663 90.8859 54.7564 92.0749 52.6303C94.3471 48.5376 96.7324 44.5195 99.2321 40.5761C111.17 36.8142 123.074 32.9969 134.943 29.1247Z" fill="#E7E6E6"/>
<path opacity="0.885" fill-rule="evenodd" clip-rule="evenodd" d="M14.8535 29.4256C14.8889 29.3356 14.9643 29.2854 15.0795 29.2749C27.0546 33.1075 39.0334 36.9246 51.016 40.7264C54.4364 45.9377 57.5253 51.3621 60.2827 56.9995C60.6053 57.7915 60.8815 58.5952 61.1114 59.4103C59.0013 59.4355 56.8919 59.4103 54.783 59.335C53.4323 57.6327 51.9255 56.0756 50.2627 54.664C42.9911 48.8485 35.5074 43.3237 27.8118 38.0895C23.5102 35.168 19.1908 32.2802 14.8535 29.4256Z" fill="#E7E6E6"/>
<path opacity="0.446" fill-rule="evenodd" clip-rule="evenodd" d="M67.5885 66.191C67.488 66.191 67.3876 66.191 67.2871 66.191C67.3876 65.7892 67.488 65.7892 67.5885 66.191Z" fill="#242424"/>
<path opacity="0.446" fill-rule="evenodd" clip-rule="evenodd" d="M93.2037 66.191C93.1027 66.191 93.0033 66.191 92.9023 66.191C93.0033 65.7892 93.1027 65.7892 93.2037 66.191Z" fill="#242424"/>
<path fill-rule="evenodd" clip-rule="evenodd" d="M27.811 66.4923C28.0643 66.7195 28.3657 66.8702 28.7151 66.9443C28.8646 66.9184 28.9649 66.9687 29.0165 67.095C29.0877 67.3069 29.2384 67.4074 29.4685 67.3964C29.569 67.3964 29.6192 67.4465 29.6192 67.547C29.8339 67.7613 29.9846 68.0125 30.0712 68.3004C29.7698 68.7027 29.4183 69.0538 29.0165 69.3552C28.7653 69.5556 28.5143 69.7575 28.2631 69.9579C28.1918 69.7454 28.0411 69.646 27.811 69.6565C27.6287 69.5917 27.478 69.4908 27.359 69.3552C27.2404 69.1141 27.0396 69.0131 26.7563 69.0538C25.5873 68.8248 24.4321 68.876 23.2907 69.2045C23.0606 69.1939 22.91 69.2934 22.8387 69.5058C22.6086 69.4953 22.4579 69.5947 22.3867 69.8072C20.1767 72.319 20.1767 74.8293 22.3867 77.3411C22.4579 77.5535 22.6086 77.653 22.8387 77.6424C22.91 77.8549 23.0606 77.9543 23.2907 77.9438C25.0038 78.4968 26.611 78.2948 28.1124 77.3411C28.5242 77.7539 28.9762 78.105 29.4685 78.3958C29.7139 78.5661 29.94 78.7665 30.1465 78.9985C30.2508 79.1401 30.2256 79.2396 30.0712 79.2999C29.7843 79.336 29.5833 79.4867 29.4685 79.7519C27.7797 81.0266 25.8711 81.4545 23.7428 81.0326C23.2357 80.9558 22.7837 80.781 22.3867 80.5053C22.2339 80.329 22.033 80.228 21.784 80.2039C21.6345 80.2295 21.5341 80.1798 21.4826 80.0532C21.4113 79.8408 21.2606 79.7413 21.0306 79.7519C20.9301 79.7519 20.8799 79.7022 20.8799 79.6012C20.8086 79.3888 20.6579 79.2893 20.4279 79.2999C20.1767 79.1492 19.9758 78.9488 19.8251 78.6972C19.8361 78.4666 19.7356 78.3159 19.5238 78.2451C19.4233 78.2451 19.3731 78.1954 19.3731 78.0944C19.3841 77.8639 19.2836 77.7132 19.0718 77.6424C17.4722 74.9287 17.4722 72.2165 19.0718 69.5058C19.2836 69.435 19.3841 69.2843 19.3731 69.0538C19.3731 68.9529 19.4233 68.9031 19.5238 68.9031C19.7356 68.8323 19.8361 68.6816 19.8251 68.4511C19.9758 68.1999 20.1767 67.9991 20.4279 67.8484C20.6579 67.8594 20.8086 67.7589 20.8799 67.547C20.8799 67.4465 20.9301 67.3964 21.0306 67.3964C21.2606 67.4074 21.4113 67.3069 21.4826 67.095C21.5341 66.9687 21.6345 66.9184 21.784 66.9443C22.033 66.9202 22.2339 66.8199 22.3867 66.643C23.2573 66.1372 24.2117 65.9363 25.2495 66.0403C26.162 65.9755 27.0158 66.1262 27.811 66.4923Z" fill="#EDEDED"/>
<path fill-rule="evenodd" clip-rule="evenodd" d="M83.562 66.4923C83.8153 66.7195 84.1167 66.8702 84.4661 66.9443C84.6156 66.9184 84.7159 66.9687 84.7674 67.095C84.8387 67.3069 84.9894 67.4074 85.2195 67.3964C85.32 67.3964 85.3701 67.4465 85.3701 67.547C85.5849 67.7613 85.7355 68.0125 85.8222 68.3004C85.5208 68.7027 85.1693 69.0538 84.7674 69.3552C84.5163 69.5556 84.2652 69.7575 84.014 69.9579C83.9428 69.7454 83.7921 69.646 83.562 69.6565C83.3797 69.5917 83.229 69.4908 83.11 69.3552C82.9914 69.1141 82.7905 69.0131 82.5073 69.0538C81.3383 68.8248 80.1831 68.876 79.0417 69.2045C78.8116 69.1939 78.6609 69.2934 78.5897 69.5058C78.3596 69.4953 78.2089 69.5947 78.1376 69.8072C75.9277 72.319 75.9277 74.8293 78.1376 77.3411C78.2089 77.5535 78.3596 77.653 78.5897 77.6424C78.6609 77.8549 78.8116 77.9543 79.0417 77.9438C80.7547 78.4968 82.362 78.2948 83.8634 77.3411C84.2752 77.7539 84.7272 78.105 85.2195 78.3958C85.4649 78.5661 85.6909 78.7665 85.8975 78.9985C86.0018 79.1401 85.9766 79.2396 85.8222 79.2999C85.5353 79.336 85.3343 79.4867 85.2195 79.7519C83.5307 81.0266 81.622 81.4545 79.4937 81.0326C78.9867 80.9558 78.5347 80.781 78.1376 80.5053C77.9849 80.329 77.784 80.228 77.5349 80.2039C77.3855 80.2295 77.2851 80.1798 77.2336 80.0532C77.1623 79.8408 77.0116 79.7413 76.7815 79.7519C76.681 79.7519 76.6309 79.7022 76.6309 79.6012C76.5596 79.3888 76.4089 79.2893 76.1788 79.2999C75.9277 79.1492 75.7268 78.9488 75.5761 78.6972C75.5871 78.4666 75.4866 78.3159 75.2748 78.2451C75.1743 78.2451 75.1241 78.1954 75.1241 78.0944C75.1351 77.8639 75.0346 77.7132 74.8227 77.6424C73.2231 74.9287 73.2231 72.2165 74.8227 69.5058C75.0346 69.435 75.1351 69.2843 75.1241 69.0538C75.1241 68.9529 75.1743 68.9031 75.2748 68.9031C75.4866 68.8323 75.5871 68.6816 75.5761 68.4511C75.7268 68.1999 75.9277 67.9991 76.1788 67.8484C76.4089 67.8594 76.5596 67.7589 76.6309 67.547C76.6309 67.4465 76.681 67.3964 76.7815 67.3964C77.0116 67.4074 77.1623 67.3069 77.2336 67.095C77.2851 66.9687 77.3855 66.9184 77.5349 66.9443C77.784 66.9202 77.9849 66.8199 78.1376 66.643C79.0083 66.1372 79.9626 65.9363 81.0005 66.0403C81.913 65.9755 82.7667 66.1262 83.562 66.4923Z" fill="#EDEDED"/>
<path fill-rule="evenodd" clip-rule="evenodd" d="M127.107 66.0405C127.208 66.0907 127.307 66.141 127.408 66.1912C127.535 66.2427 127.584 66.3431 127.559 66.4926C127.548 66.7226 127.648 66.8733 127.86 66.9446C127.987 66.9961 128.036 67.0965 128.011 67.2459C128 67.476 128.1 67.6267 128.312 67.698C128.439 67.7495 128.488 67.8499 128.463 67.9993C128.452 68.2294 128.552 68.3801 128.764 68.4514C128.891 68.5029 128.94 68.6032 128.915 68.7527C128.904 68.9833 129.004 69.1339 129.216 69.2047C129.995 70.3589 130.697 71.5644 131.326 72.821C131.315 73.0515 131.414 73.2022 131.627 73.273C131.753 73.3243 131.803 73.4252 131.778 73.5744C131.803 73.9586 131.954 74.0596 132.23 73.8757C132.858 72.6191 133.56 71.4137 134.339 70.2595C134.552 70.1887 134.651 70.038 134.64 69.8075C134.615 69.6583 134.665 69.5573 134.791 69.5061C135.004 69.4353 135.103 69.2846 135.092 69.0541C135.067 68.9049 135.117 68.8039 135.243 68.7527C135.456 68.6819 135.555 68.5308 135.545 68.3007C135.519 68.1512 135.569 68.0509 135.695 67.9993C135.908 67.9281 136.007 67.7774 135.997 67.5473C136.223 66.9939 136.524 66.4917 136.901 66.0405C137.002 66.1912 137.101 66.3419 137.202 66.4926C138.282 71.144 139.287 75.815 140.216 80.5055C139.29 80.6547 138.335 80.7044 137.353 80.6562C136.774 78.3162 136.272 75.9551 135.846 73.5744C135.885 73.3514 135.835 73.151 135.695 72.9717C135.603 72.9898 135.554 73.041 135.545 73.1224C135.52 73.371 135.419 73.5729 135.243 73.7251C135.031 73.7959 134.931 73.9466 134.942 74.1771C134.75 74.6683 134.499 75.1203 134.188 75.5332C133.976 75.604 133.877 75.7547 133.887 75.9852C133.696 76.4764 133.444 76.9285 133.134 77.3413C132.921 77.4121 132.822 77.5628 132.832 77.7933C132.745 78.2198 132.545 78.5708 132.23 78.8481C132.129 78.8481 132.029 78.8481 131.928 78.8481C131.618 78.4352 131.366 77.9832 131.175 77.492C131.185 77.2615 131.086 77.1108 130.874 77.04C130.563 76.6271 130.312 76.1751 130.12 75.6839C130.131 75.4533 130.031 75.3027 129.819 75.2318C129.341 74.5794 128.939 73.8757 128.613 73.1224C128.63 72.8391 128.555 72.7894 128.387 72.9717C128.314 73.1661 128.288 73.368 128.312 73.5744C127.887 75.9506 127.385 78.3117 126.805 80.6562C125.856 80.8069 124.902 80.8566 123.942 80.8069C124.884 75.8436 125.939 70.9225 127.107 66.0405Z" fill="#EAEAEA"/>
<path opacity="0.388" fill-rule="evenodd" clip-rule="evenodd" d="M127.408 66.1909C127.307 66.1407 127.207 66.0904 127.106 66.0402C127.227 65.6947 127.328 65.7449 127.408 66.1909Z" fill="#282828"/>
<path opacity="0.37" fill-rule="evenodd" clip-rule="evenodd" d="M137.202 66.4924C137.101 66.3417 137.002 66.191 136.901 66.0403C136.884 65.7572 136.959 65.707 137.127 65.8897C137.201 66.0845 137.226 66.2855 137.202 66.4924Z" fill="#262626"/>
<path fill-rule="evenodd" clip-rule="evenodd" d="M67.2877 66.1909C67.3882 66.1909 67.4886 66.1909 67.5891 66.1909C69.9131 70.8996 72.1229 75.6715 74.2189 80.5053C73.2292 80.7026 72.2248 80.7026 71.2053 80.5053C70.8482 79.889 70.5469 79.2366 70.3013 78.5464C69.4028 78.346 68.4485 78.2451 67.4384 78.2451C66.4283 78.2451 65.474 78.346 64.5755 78.5464C64.3522 79.2938 64.0509 79.996 63.6715 80.6559C62.6536 80.7493 61.6994 80.6499 60.8086 80.3546C62.8914 75.5871 65.0511 70.8664 67.2877 66.1909ZM67.5891 72.5194C68.0174 73.6781 68.5198 74.8081 69.0958 75.9096C68.0375 76.0347 66.9827 76.009 65.9316 75.8343C66.427 74.7931 66.8791 73.7383 67.2877 72.67C67.3882 72.6203 67.4886 72.5691 67.5891 72.5194Z" fill="#ECECEC"/>
<path fill-rule="evenodd" clip-rule="evenodd" d="M92.9029 66.1909C93.0039 66.1909 93.1033 66.1909 93.2043 66.1909C95.5277 70.8996 97.7382 75.6715 99.8341 80.5053C98.8442 80.7026 97.8406 80.7026 96.8206 80.5053C96.4635 79.889 96.1621 79.2366 95.9165 78.5464C95.0185 78.346 94.0632 78.2451 93.0536 78.2451C92.0435 78.2451 91.0892 78.346 90.1908 78.5464C89.9675 79.2938 89.6661 79.996 89.2867 80.6559C88.2689 80.7493 87.3146 80.6499 86.4238 80.3546C88.5066 75.5871 90.6663 70.8664 92.9029 66.1909ZM93.2043 72.5194C93.6322 73.6781 94.1355 74.8081 94.7111 75.9096C93.6533 76.0347 92.598 76.009 91.5469 75.8343C92.0423 74.7931 92.4943 73.7383 92.9029 72.67C93.0039 72.6203 93.1033 72.5691 93.2043 72.5194Z" fill="#ECECEC"/>
<path opacity="0.387" fill-rule="evenodd" clip-rule="evenodd" d="M0.68794 66.4922C0.68794 71.2129 0.68794 75.9351 0.68794 80.6558C1.54183 80.6558 2.39556 80.6558 3.24945 80.6558C3.24945 75.9351 3.24945 71.2129 3.24945 66.4922C3.39983 71.2385 3.45015 76.009 3.40013 80.8065C2.44589 80.8065 1.4915 80.8065 0.537262 80.8065C0.487238 76.009 0.537564 71.2385 0.68794 66.4922Z" fill="#232323"/>
<path fill-rule="evenodd" clip-rule="evenodd" d="M0.688477 66.4922C1.54236 66.4922 2.3961 66.4922 3.24999 66.4922C3.24999 71.2129 3.24999 75.9351 3.24999 80.6558C2.3961 80.6558 1.54236 80.6558 0.688477 80.6558C0.688477 75.9351 0.688477 71.2129 0.688477 66.4922Z" fill="#FEFFFE"/>
<path fill-rule="evenodd" clip-rule="evenodd" d="M4.60742 66.4923C7.7721 66.4672 10.9363 66.4923 14.1001 66.5677C13.974 66.72 13.9238 66.8959 13.9494 67.0951C13.8013 67.6673 13.751 68.27 13.7987 68.9032C12.744 68.9032 11.6893 68.9032 10.6345 68.9032C10.6345 72.8208 10.6345 76.7384 10.6345 80.656C9.73045 80.656 8.82638 80.656 7.92232 80.656C7.92232 76.7384 7.92232 72.8208 7.92232 68.9032C6.8174 68.9032 5.71234 68.9032 4.60742 68.9032C4.60742 68.0996 4.60742 67.2959 4.60742 66.4923Z" fill="#FEFEFE"/>
<path opacity="0.387" fill-rule="evenodd" clip-rule="evenodd" d="M31.5766 66.4922C31.5766 71.2129 31.5766 75.9351 31.5766 80.6558C32.4305 80.6558 33.2842 80.6558 34.1381 80.6558C34.1381 75.9351 34.1381 71.2129 34.1381 66.4922C34.2885 71.2385 34.3388 76.009 34.2888 80.8065C33.3346 80.8065 32.3802 80.8065 31.4259 80.8065C31.3759 76.009 31.4262 71.2385 31.5766 66.4922Z" fill="#232323"/>
<path fill-rule="evenodd" clip-rule="evenodd" d="M31.5771 66.4922C32.431 66.4922 33.2848 66.4922 34.1387 66.4922C34.1387 71.2129 34.1387 75.9351 34.1387 80.6558C33.2848 80.6558 32.431 80.6558 31.5771 80.6558C31.5771 75.9351 31.5771 71.2129 31.5771 66.4922Z" fill="#FEFFFE"/>
<path fill-rule="evenodd" clip-rule="evenodd" d="M35.4961 66.4923C38.6608 66.4672 41.825 66.4923 44.9888 66.5677C44.8626 66.72 44.8125 66.8959 44.8381 67.0951C44.69 67.6673 44.6396 68.27 44.6874 68.9032C43.6327 68.9032 42.5779 68.9032 41.5232 68.9032C41.5232 72.8208 41.5232 76.7384 41.5232 80.656C40.6191 80.656 39.7151 80.656 38.811 80.656C38.811 76.7384 38.811 72.8208 38.811 68.9032C37.7061 68.9032 36.601 68.9032 35.4961 68.9032C35.4961 68.0996 35.4961 67.2959 35.4961 66.4923Z" fill="#FEFEFE"/>
<path fill-rule="evenodd" clip-rule="evenodd" d="M51.0145 72.2183C51.1797 72.7894 51.2802 72.7894 51.3159 72.2183C52.1485 70.3273 53.0024 68.4434 53.8774 66.568C54.8857 66.4427 55.8901 66.4679 56.8909 66.6433C56.724 67.0289 56.5231 67.3804 56.2882 67.698C56.0726 67.8909 55.9721 68.1421 55.9869 68.4514C54.9499 70.7764 53.8701 73.0878 52.7473 75.3826C52.672 77.1395 52.6468 78.8979 52.672 80.6563C51.6674 80.6563 50.663 80.6563 49.6584 80.6563C49.6836 78.8979 49.6584 77.1395 49.5831 75.3826C48.243 72.4519 46.8618 69.5378 45.4395 66.6433C46.4403 66.4679 47.4447 66.4427 48.453 66.568C49.3801 68.4208 50.2339 70.3047 51.0145 72.2183Z" fill="#E8E8E8"/>
<path opacity="0.624" fill-rule="evenodd" clip-rule="evenodd" d="M101.191 66.4922C101.191 71.2129 101.191 75.9351 101.191 80.6558C102.949 80.6558 104.706 80.6558 106.464 80.6558C104.683 80.8065 102.875 80.8562 101.04 80.8065C100.99 76.009 101.04 71.2385 101.191 66.4922Z" fill="#222222"/>
<path fill-rule="evenodd" clip-rule="evenodd" d="M101.19 66.4923C103.351 66.4672 105.51 66.4923 107.67 66.5677C108.901 66.9212 109.906 67.5992 110.683 68.6018C110.673 68.8324 110.772 68.983 110.984 69.0539C110.974 69.2844 111.073 69.4351 111.286 69.5059C112.894 72.2181 112.894 74.9303 111.286 77.6425C111.073 77.7133 110.974 77.864 110.984 78.0945C110.772 78.1653 110.673 78.316 110.683 78.5465C109.645 79.9689 108.239 80.6726 106.464 80.656C104.706 80.656 102.949 80.656 101.19 80.656C101.19 75.9353 101.19 71.2131 101.19 66.4923ZM107.368 69.5059C107.439 69.7183 107.59 69.8178 107.82 69.8072C109.628 72.319 109.628 74.8293 107.82 77.3411C107.59 77.3306 107.439 77.43 107.368 77.6425C106.246 78.0146 105.091 78.1653 103.903 78.0945C103.903 75.0809 103.903 72.0674 103.903 69.0539C105.091 68.983 106.246 69.1337 107.368 69.5059Z" fill="#F4F4F4"/>
<path fill-rule="evenodd" clip-rule="evenodd" d="M113.697 66.4922C116.711 66.4922 119.724 66.4922 122.738 66.4922C122.773 67.3051 122.723 68.1087 122.587 68.903C120.478 68.903 118.368 68.903 116.259 68.903C116.211 70.0361 116.26 71.1406 116.409 72.2179C118.067 72.2179 119.724 72.2179 121.382 72.2179C121.382 73.021 121.382 73.8256 121.382 74.6288C119.675 74.6288 117.966 74.6288 116.259 74.6288C116.259 75.8342 116.259 77.0396 116.259 78.245C118.519 78.245 120.779 78.245 123.039 78.245C123.039 79.0481 123.039 79.8527 123.039 80.6558C119.925 80.6558 116.812 80.6558 113.697 80.6558C113.697 75.9351 113.697 71.2129 113.697 66.4922Z" fill="#FEFEFE"/>
<path fill-rule="evenodd" clip-rule="evenodd" d="M144.586 72.2183C144.752 72.7894 144.851 72.7894 144.887 72.2183C145.72 70.3273 146.573 68.4434 147.449 66.568C148.457 66.4427 149.462 66.4679 150.462 66.6433C150.295 67.0289 150.095 67.3804 149.86 67.698C149.644 67.8909 149.543 68.1421 149.558 68.4514C148.521 70.7764 147.441 73.0878 146.319 75.3826C146.243 77.1395 146.218 78.8979 146.243 80.6563C145.238 80.6563 144.235 80.6563 143.23 80.6563C143.255 78.8979 143.23 77.1395 143.154 75.3826C141.815 72.4519 140.433 69.5378 139.011 66.6433C140.011 66.4679 141.016 66.4427 142.024 66.568C142.951 68.4208 143.805 70.3047 144.586 72.2183Z" fill="#E8E8E8"/>
<path opacity="0.282" fill-rule="evenodd" clip-rule="evenodd" d="M27.8115 66.4924C28.2016 66.4865 28.503 66.6372 28.7156 66.9444C28.3662 66.8703 28.0648 66.7196 27.8115 66.4924Z" fill="#2A2A2A"/>
<path opacity="0.282" fill-rule="evenodd" clip-rule="evenodd" d="M83.5615 66.4924C83.9516 66.4865 84.253 66.6372 84.4656 66.9444C84.1162 66.8703 83.8148 66.7196 83.5615 66.4924Z" fill="#2A2A2A"/>
<path opacity="0.855" fill-rule="evenodd" clip-rule="evenodd" d="M22.3869 66.6431C22.2341 66.82 22.0332 66.9204 21.7842 66.9445C21.9028 66.7028 22.1036 66.6023 22.3869 66.6431Z" fill="#505050"/>
<path opacity="0.855" fill-rule="evenodd" clip-rule="evenodd" d="M78.1379 66.6431C77.9851 66.82 77.7842 66.9204 77.5352 66.9445C77.6537 66.7028 77.8546 66.6023 78.1379 66.6431Z" fill="#505050"/>
<path opacity="0.373" fill-rule="evenodd" clip-rule="evenodd" d="M127.558 66.4922C127.771 66.5635 127.87 66.7141 127.86 66.9442C127.647 66.8729 127.548 66.7223 127.558 66.4922Z" fill="#2D2D2D"/>
<path opacity="0.89" fill-rule="evenodd" clip-rule="evenodd" d="M21.4833 67.0951C21.412 67.3069 21.2613 67.4074 21.0312 67.3964C21.1025 67.1846 21.2532 67.0841 21.4833 67.0951Z" fill="#5C5C5C"/>
<path opacity="0.406" fill-rule="evenodd" clip-rule="evenodd" d="M29.0166 67.0951C29.2467 67.0841 29.3974 67.1846 29.4686 67.3964C29.2385 67.4074 29.0879 67.3069 29.0166 67.0951Z" fill="#1C1C1C"/>
<path opacity="0.89" fill-rule="evenodd" clip-rule="evenodd" d="M77.2333 67.0951C77.162 67.3069 77.0113 67.4074 76.7812 67.3964C76.8525 67.1846 77.0032 67.0841 77.2333 67.0951Z" fill="#5C5C5C"/>
<path opacity="0.406" fill-rule="evenodd" clip-rule="evenodd" d="M84.7666 67.0951C84.9967 67.0841 85.1474 67.1846 85.2186 67.3964C84.9885 67.4074 84.8379 67.3069 84.7666 67.0951Z" fill="#1C1C1C"/>
<path opacity="0.357" fill-rule="evenodd" clip-rule="evenodd" d="M128.011 67.2456C128.223 67.3169 128.322 67.4676 128.312 67.6976C128.099 67.6264 128 67.4757 128.011 67.2456Z" fill="#1C1C1C"/>
<path opacity="0.776" fill-rule="evenodd" clip-rule="evenodd" d="M20.8798 67.5472C20.8085 67.7591 20.6578 67.8596 20.4277 67.8486C20.499 67.6367 20.6497 67.5362 20.8798 67.5472Z" fill="#383838"/>
<path opacity="0.776" fill-rule="evenodd" clip-rule="evenodd" d="M76.6307 67.5472C76.5595 67.7591 76.4088 67.8596 76.1787 67.8486C76.25 67.6367 76.4007 67.5362 76.6307 67.5472Z" fill="#383838"/>
<path opacity="0.388" fill-rule="evenodd" clip-rule="evenodd" d="M135.996 67.5474C136.007 67.7774 135.908 67.9281 135.695 67.9994C135.685 67.7693 135.784 67.6186 135.996 67.5474Z" fill="#404040"/>
<path opacity="0.414" fill-rule="evenodd" clip-rule="evenodd" d="M29.6191 67.5474C30.1195 67.6375 30.2702 67.8886 30.0712 68.3007C29.9845 68.0128 29.8339 67.7616 29.6191 67.5474Z" fill="#262626"/>
<path opacity="0.414" fill-rule="evenodd" clip-rule="evenodd" d="M85.3691 67.5474C85.8695 67.6375 86.0202 67.8886 85.8212 68.3007C85.7345 68.0128 85.5839 67.7616 85.3691 67.5474Z" fill="#262626"/>
<path opacity="0.437" fill-rule="evenodd" clip-rule="evenodd" d="M128.463 67.999C128.675 68.0703 128.775 68.221 128.764 68.4511C128.552 68.3798 128.452 68.2291 128.463 67.999Z" fill="#1D1D1D"/>
<path opacity="0.31" fill-rule="evenodd" clip-rule="evenodd" d="M56.2881 67.6978C56.3029 68.0071 56.2024 68.2583 55.9868 68.4511C55.972 68.1418 56.0725 67.8906 56.2881 67.6978Z" fill="#2A2A2A"/>
<path opacity="0.31" fill-rule="evenodd" clip-rule="evenodd" d="M149.859 67.6978C149.875 68.0071 149.774 68.2583 149.558 68.4511C149.543 68.1418 149.644 67.8906 149.859 67.6978Z" fill="#2A2A2A"/>
<path opacity="0.349" fill-rule="evenodd" clip-rule="evenodd" d="M110.683 68.6021C110.896 68.6733 110.995 68.8235 110.985 69.0541C110.772 68.9833 110.673 68.8326 110.683 68.6021Z" fill="#1E1E1E"/>
<path opacity="0.369" fill-rule="evenodd" clip-rule="evenodd" d="M135.544 68.3008C135.555 68.5309 135.455 68.682 135.243 68.7528C135.232 68.5227 135.332 68.3721 135.544 68.3008Z" fill="#272727"/>
<path opacity="0.522" fill-rule="evenodd" clip-rule="evenodd" d="M19.8246 68.4512C19.8356 68.6817 19.7351 68.8324 19.5233 68.9032C19.5123 68.6731 19.6128 68.5224 19.8246 68.4512Z" fill="#252525"/>
<path opacity="0.522" fill-rule="evenodd" clip-rule="evenodd" d="M75.5746 68.4512C75.5856 68.6817 75.4851 68.8324 75.2733 68.9032C75.2623 68.6731 75.3628 68.5224 75.5746 68.4512Z" fill="#252525"/>
<path opacity="0.42" fill-rule="evenodd" clip-rule="evenodd" d="M128.915 68.7524C129.127 68.8233 129.227 68.9739 129.216 69.2045C129.004 69.1337 128.904 68.983 128.915 68.7524Z" fill="#1C1C1C"/>
<path opacity="0.164" fill-rule="evenodd" clip-rule="evenodd" d="M4.60606 66.4922C4.60606 67.2957 4.60606 68.0995 4.60606 68.903C5.71098 68.903 6.81605 68.903 7.92096 68.903C7.92096 72.8206 7.92096 76.7382 7.92096 80.6558C8.82503 80.6558 9.72909 80.6558 10.6332 80.6558C10.6332 76.7382 10.6332 72.8206 10.6332 68.903C11.6879 68.903 12.7426 68.903 13.7974 68.903C13.7496 68.2699 13.7999 67.6672 13.948 67.0949C13.948 67.7478 13.948 68.4008 13.948 69.0537C12.8933 69.0537 11.8386 69.0537 10.7838 69.0537C10.7838 72.9713 10.7838 76.8889 10.7838 80.8065C9.77926 80.8065 8.77485 80.8065 7.77028 80.8065C7.77028 76.8889 7.77028 72.9713 7.77028 69.0537C6.66537 69.0537 5.5603 69.0537 4.45539 69.0537C4.40687 68.171 4.45704 67.3171 4.60606 66.4922Z" fill="#232323"/>
<path opacity="0.164" fill-rule="evenodd" clip-rule="evenodd" d="M35.4947 66.4922C35.4947 67.2957 35.4947 68.0995 35.4947 68.903C36.5997 68.903 37.7047 68.903 38.8096 68.903C38.8096 72.8206 38.8096 76.7382 38.8096 80.6558C39.7137 80.6558 40.6178 80.6558 41.5218 80.6558C41.5218 76.7382 41.5218 72.8206 41.5218 68.903C42.5766 68.903 43.6313 68.903 44.686 68.903C44.6383 68.2699 44.6886 67.6672 44.8367 67.0949C44.8367 67.7478 44.8367 68.4008 44.8367 69.0537C43.782 69.0537 42.7272 69.0537 41.6725 69.0537C41.6725 72.9713 41.6725 76.8889 41.6725 80.8065C40.6679 80.8065 39.6635 80.8065 38.659 80.8065C38.659 76.8889 38.659 72.9713 38.659 69.0537C37.554 69.0537 36.449 69.0537 35.3441 69.0537C35.2955 68.171 35.3457 67.3171 35.4947 66.4922Z" fill="#232323"/>
<path opacity="0.51" fill-rule="evenodd" clip-rule="evenodd" d="M122.586 68.9033C120.554 69.054 118.494 69.1037 116.409 69.054C116.409 70.1087 116.409 71.1635 116.409 72.2182C116.26 71.1409 116.21 70.0364 116.258 68.9033C118.367 68.9033 120.477 68.9033 122.586 68.9033Z" fill="#222222"/>
<path opacity="0.396" fill-rule="evenodd" clip-rule="evenodd" d="M19.3725 69.0537C19.3835 69.2842 19.283 69.4349 19.0711 69.5057C19.0601 69.2752 19.1606 69.1245 19.3725 69.0537Z" fill="#1D1D1D"/>
<path opacity="0.396" fill-rule="evenodd" clip-rule="evenodd" d="M75.1235 69.0537C75.1345 69.2842 75.034 69.4349 74.8221 69.5057C74.8111 69.2752 74.9116 69.1245 75.1235 69.0537Z" fill="#1D1D1D"/>
<path opacity="0.443" fill-rule="evenodd" clip-rule="evenodd" d="M135.093 69.0537C135.104 69.2842 135.004 69.4349 134.792 69.5057C134.781 69.2752 134.881 69.1245 135.093 69.0537Z" fill="#1D1D1D"/>
<path opacity="0.282" fill-rule="evenodd" clip-rule="evenodd" d="M26.7549 69.0542C27.0382 69.0135 27.239 69.1144 27.3576 69.3555C27.1085 69.3314 26.9077 69.2305 26.7549 69.0542Z" fill="#242424"/>
<path opacity="0.282" fill-rule="evenodd" clip-rule="evenodd" d="M82.5068 69.0542C82.7901 69.0135 82.991 69.1144 83.1095 69.3555C82.8605 69.3314 82.6596 69.2305 82.5068 69.0542Z" fill="#242424"/>
<path opacity="0.01" fill-rule="evenodd" clip-rule="evenodd" d="M23.2909 69.2044C23.2196 69.4168 23.069 69.5163 22.8389 69.5057C22.9101 69.2933 23.0608 69.1938 23.2909 69.2044Z" fill="#202020"/>
<path opacity="0.01" fill-rule="evenodd" clip-rule="evenodd" d="M79.0409 69.2044C78.9696 69.4168 78.819 69.5163 78.5889 69.5057C78.6601 69.2933 78.8108 69.1938 79.0409 69.2044Z" fill="#202020"/>
<path opacity="0.424" fill-rule="evenodd" clip-rule="evenodd" d="M110.984 69.0537C111.197 69.1245 111.296 69.2752 111.286 69.5057C111.073 69.4349 110.974 69.2842 110.984 69.0537Z" fill="#3A3A3A"/>
<path opacity="0.408" fill-rule="evenodd" clip-rule="evenodd" d="M107.368 69.5056C107.599 69.4951 107.749 69.5945 107.82 69.807C107.59 69.8175 107.439 69.7181 107.368 69.5056Z" fill="#1D1D1D"/>
<path opacity="0.012" fill-rule="evenodd" clip-rule="evenodd" d="M22.8388 69.5056C22.7675 69.7181 22.6168 69.8175 22.3867 69.807C22.458 69.5945 22.6087 69.4951 22.8388 69.5056Z" fill="#171717"/>
<path opacity="0.347" fill-rule="evenodd" clip-rule="evenodd" d="M27.8115 69.6565C28.0416 69.646 28.1923 69.7454 28.2636 69.9579C28.0335 69.9684 27.8828 69.869 27.8115 69.6565Z" fill="#1D1D1D"/>
<path opacity="0.012" fill-rule="evenodd" clip-rule="evenodd" d="M78.5897 69.5056C78.5185 69.7181 78.3678 69.8175 78.1377 69.807C78.209 69.5945 78.3596 69.4951 78.5897 69.5056Z" fill="#171717"/>
<path opacity="0.347" fill-rule="evenodd" clip-rule="evenodd" d="M83.5615 69.6565C83.7916 69.646 83.9423 69.7454 84.0136 69.9579C83.7835 69.9684 83.6328 69.869 83.5615 69.6565Z" fill="#1D1D1D"/>
<path opacity="0.035" fill-rule="evenodd" clip-rule="evenodd" d="M29.0161 69.355C28.9049 69.8266 28.6537 70.027 28.2627 69.9577C28.5139 69.7573 28.7649 69.5554 29.0161 69.355Z" fill="#1E1E1E"/>
<path opacity="0.035" fill-rule="evenodd" clip-rule="evenodd" d="M84.7671 69.355C84.6559 69.8266 84.4047 70.027 84.0137 69.9577C84.2649 69.7573 84.5159 69.5554 84.7671 69.355Z" fill="#1E1E1E"/>
<path opacity="0.322" fill-rule="evenodd" clip-rule="evenodd" d="M134.64 69.8076C134.651 70.0382 134.551 70.1888 134.339 70.2596C134.328 70.0291 134.428 69.8784 134.64 69.8076Z" fill="#1C1C1C"/>
<path opacity="0.359" fill-rule="evenodd" clip-rule="evenodd" d="M67.5885 72.5195C67.488 72.5692 67.3876 72.6205 67.2871 72.6702C67.3673 72.2242 67.4678 72.1745 67.5885 72.5195Z" fill="#212121"/>
<path opacity="0.359" fill-rule="evenodd" clip-rule="evenodd" d="M93.2037 72.5195C93.1027 72.5692 93.0033 72.6205 92.9023 72.6702C92.9822 72.2242 93.0832 72.1745 93.2037 72.5195Z" fill="#212121"/>
<path opacity="0.337" fill-rule="evenodd" clip-rule="evenodd" d="M51.0146 72.2183C51.1152 72.2183 51.2155 72.2183 51.316 72.2183C51.2803 72.7893 51.1798 72.7893 51.0146 72.2183Z" fill="#353535"/>
<path opacity="0.337" fill-rule="evenodd" clip-rule="evenodd" d="M144.586 72.2183C144.687 72.2183 144.786 72.2183 144.887 72.2183C144.851 72.7893 144.752 72.7893 144.586 72.2183Z" fill="#353535"/>
<path opacity="0.414" fill-rule="evenodd" clip-rule="evenodd" d="M128.613 73.1223C128.512 73.273 128.412 73.4236 128.312 73.5743C128.287 73.3679 128.313 73.166 128.387 72.9716C128.554 72.7893 128.629 72.839 128.613 73.1223Z" fill="#232323"/>
<path opacity="0.376" fill-rule="evenodd" clip-rule="evenodd" d="M135.544 73.1224C135.553 73.041 135.603 72.9898 135.695 72.9717C135.835 73.151 135.884 73.3514 135.845 73.5744C135.744 73.4237 135.645 73.273 135.544 73.1224Z" fill="#212121"/>
<path opacity="0.4" fill-rule="evenodd" clip-rule="evenodd" d="M131.327 72.8208C131.539 72.8916 131.639 73.0423 131.628 73.2728C131.416 73.202 131.316 73.0513 131.327 72.8208Z" fill="#454545"/>
<path opacity="0.296" fill-rule="evenodd" clip-rule="evenodd" d="M131.778 73.5742C131.929 73.6752 132.08 73.7746 132.23 73.8756C131.955 74.0594 131.804 73.9584 131.778 73.5742Z" fill="#2B2B2B"/>
<path opacity="0.01" fill-rule="evenodd" clip-rule="evenodd" d="M135.243 73.7251C135.253 73.9556 135.154 74.1063 134.941 74.1771C134.931 73.9466 135.03 73.7959 135.243 73.7251Z" fill="#161616"/>
<path opacity="0.455" fill-rule="evenodd" clip-rule="evenodd" d="M129.819 75.2314C130.032 75.3023 130.131 75.4529 130.12 75.6835C129.908 75.6127 129.809 75.462 129.819 75.2314Z" fill="#1D1D1D"/>
<path opacity="0.01" fill-rule="evenodd" clip-rule="evenodd" d="M134.189 75.5327C134.199 75.7633 134.1 75.9139 133.887 75.9847C133.877 75.7542 133.976 75.6035 134.189 75.5327Z" fill="#171717"/>
<path opacity="0.431" fill-rule="evenodd" clip-rule="evenodd" d="M130.874 77.04C131.086 77.1109 131.186 77.2615 131.175 77.4921C130.963 77.4213 130.863 77.2706 130.874 77.04Z" fill="#1C1C1C"/>
<path opacity="0.106" fill-rule="evenodd" clip-rule="evenodd" d="M22.3867 77.3411C22.6168 77.3305 22.7675 77.43 22.8388 77.6424C22.6087 77.653 22.458 77.5535 22.3867 77.3411Z" fill="#1D1D1D"/>
<path opacity="0.106" fill-rule="evenodd" clip-rule="evenodd" d="M78.1377 77.3411C78.3678 77.3305 78.5185 77.43 78.5897 77.6424C78.3596 77.653 78.209 77.5535 78.1377 77.3411Z" fill="#1D1D1D"/>
<path opacity="0.408" fill-rule="evenodd" clip-rule="evenodd" d="M107.82 77.3411C107.749 77.5535 107.599 77.653 107.368 77.6424C107.439 77.43 107.59 77.3305 107.82 77.3411Z" fill="#1D1D1D"/>
<path opacity="0.01" fill-rule="evenodd" clip-rule="evenodd" d="M133.134 77.3408C133.145 77.5714 133.045 77.722 132.833 77.7929C132.822 77.5623 132.922 77.4116 133.134 77.3408Z" fill="#171717"/>
<path opacity="0.035" fill-rule="evenodd" clip-rule="evenodd" d="M28.1123 77.3411C28.1721 77.1859 28.2725 77.1618 28.4137 77.2657C28.7962 77.6228 29.1478 77.9995 29.4684 78.3958C28.9761 78.105 28.5241 77.7539 28.1123 77.3411Z" fill="#232323"/>
<path opacity="0.035" fill-rule="evenodd" clip-rule="evenodd" d="M83.8623 77.3411C83.9221 77.1859 84.0225 77.1618 84.1637 77.2657C84.5462 77.6228 84.8978 77.9995 85.2184 78.3958C84.7261 78.105 84.2741 77.7539 83.8623 77.3411Z" fill="#232323"/>
<path opacity="0.375" fill-rule="evenodd" clip-rule="evenodd" d="M19.0711 77.6426C19.283 77.7134 19.3835 77.8641 19.3725 78.0946C19.1606 78.0238 19.0601 77.8731 19.0711 77.6426Z" fill="#1B1B1B"/>
<path opacity="0.247" fill-rule="evenodd" clip-rule="evenodd" d="M22.8389 77.6424C23.069 77.6318 23.2196 77.7313 23.2909 77.9437C23.0608 77.9543 22.9101 77.8548 22.8389 77.6424Z" fill="#303030"/>
<path opacity="0.375" fill-rule="evenodd" clip-rule="evenodd" d="M74.8221 77.6426C75.034 77.7134 75.1345 77.8641 75.1235 78.0946C74.9116 78.0238 74.8111 77.8731 74.8221 77.6426Z" fill="#1B1B1B"/>
<path opacity="0.247" fill-rule="evenodd" clip-rule="evenodd" d="M78.5889 77.6424C78.819 77.6318 78.9696 77.7313 79.0409 77.9437C78.8108 77.9543 78.6601 77.8548 78.5889 77.6424Z" fill="#303030"/>
<path opacity="0.02" fill-rule="evenodd" clip-rule="evenodd" d="M111.286 77.6426C111.296 77.8731 111.197 78.0238 110.984 78.0946C110.974 77.8641 111.073 77.7134 111.286 77.6426Z" fill="#3B3B3B"/>
<path opacity="0.083" fill-rule="evenodd" clip-rule="evenodd" d="M70.3019 78.5465C68.3933 78.3461 66.4848 78.3461 64.5762 78.5465C65.4747 78.3461 66.4289 78.2451 67.439 78.2451C68.4492 78.2451 69.4034 78.3461 70.3019 78.5465Z" fill="#232323"/>
<path opacity="0.083" fill-rule="evenodd" clip-rule="evenodd" d="M95.9171 78.5465C94.0081 78.3461 92.1 78.3461 90.1914 78.5465C91.0899 78.3461 92.0441 78.2451 93.0543 78.2451C94.0638 78.2451 95.0191 78.3461 95.9171 78.5465Z" fill="#232323"/>
<path opacity="0.01" fill-rule="evenodd" clip-rule="evenodd" d="M110.985 78.0942C110.995 78.3248 110.896 78.4755 110.683 78.5463C110.673 78.3157 110.772 78.1651 110.985 78.0942Z" fill="#171717"/>
<path opacity="0.357" fill-rule="evenodd" clip-rule="evenodd" d="M19.5233 78.2451C19.7351 78.3159 19.8356 78.4666 19.8246 78.6971C19.6128 78.6263 19.5123 78.4757 19.5233 78.2451Z" fill="#1D1D1D"/>
<path opacity="0.357" fill-rule="evenodd" clip-rule="evenodd" d="M75.2733 78.2451C75.4851 78.3159 75.5856 78.4666 75.5746 78.6971C75.3628 78.6263 75.2623 78.4757 75.2733 78.2451Z" fill="#1D1D1D"/>
<path opacity="0.378" fill-rule="evenodd" clip-rule="evenodd" d="M131.93 78.8477C132.031 78.8477 132.13 78.8477 132.231 78.8477C132.187 79.2138 132.088 79.2138 131.93 78.8477Z" fill="#242424"/>
<path opacity="0.439" fill-rule="evenodd" clip-rule="evenodd" d="M20.4277 79.2996C20.6578 79.289 20.8085 79.3885 20.8798 79.6009C20.6497 79.6115 20.499 79.512 20.4277 79.2996Z" fill="#242424"/>
<path opacity="0.439" fill-rule="evenodd" clip-rule="evenodd" d="M76.1787 79.2996C76.4088 79.289 76.5595 79.3885 76.6307 79.6009C76.4007 79.6115 76.25 79.512 76.1787 79.2996Z" fill="#242424"/>
<path opacity="0.035" fill-rule="evenodd" clip-rule="evenodd" d="M30.0705 79.2998C29.9557 79.565 29.7547 79.7157 29.4678 79.7518C29.5826 79.4866 29.7836 79.336 30.0705 79.2998Z" fill="#212121"/>
<path opacity="0.035" fill-rule="evenodd" clip-rule="evenodd" d="M85.8205 79.2998C85.7057 79.565 85.5047 79.7157 85.2178 79.7518C85.3326 79.4866 85.5336 79.336 85.8205 79.2998Z" fill="#212121"/>
<path opacity="0.471" fill-rule="evenodd" clip-rule="evenodd" d="M21.0312 79.7522C21.2613 79.7417 21.412 79.8411 21.4833 80.0536C21.2532 80.0641 21.1025 79.9647 21.0312 79.7522Z" fill="#3F3F3F"/>
<path opacity="0.471" fill-rule="evenodd" clip-rule="evenodd" d="M76.7812 79.7522C77.0113 79.7417 77.162 79.8411 77.2333 80.0536C77.0032 80.0641 76.8525 79.9647 76.7812 79.7522Z" fill="#3F3F3F"/>
<path opacity="0.302" fill-rule="evenodd" clip-rule="evenodd" d="M21.7842 80.2041C22.0332 80.2282 22.2341 80.3292 22.3869 80.5055C22.1036 80.5461 21.9028 80.4452 21.7842 80.2041Z" fill="#3A3A3A"/>
<path opacity="0.428" fill-rule="evenodd" clip-rule="evenodd" d="M60.8093 80.3545C61.7001 80.6498 62.6543 80.7493 63.6721 80.6558C62.6959 80.805 61.6913 80.8547 60.6586 80.8065C60.6229 80.6122 60.6731 80.4615 60.8093 80.3545Z" fill="#232323"/>
<path opacity="0.302" fill-rule="evenodd" clip-rule="evenodd" d="M77.5352 80.2041C77.7842 80.2282 77.9851 80.3292 78.1379 80.5055C77.8546 80.5461 77.6537 80.4452 77.5352 80.2041Z" fill="#3A3A3A"/>
<path opacity="0.428" fill-rule="evenodd" clip-rule="evenodd" d="M86.4235 80.3545C87.3143 80.6498 88.2686 80.7493 89.2864 80.6558C88.3102 80.805 87.3056 80.8547 86.2729 80.8065C86.2371 80.6122 86.2873 80.4615 86.4235 80.3545Z" fill="#232323"/>
<path opacity="0.451" fill-rule="evenodd" clip-rule="evenodd" d="M71.2061 80.5054C72.2255 80.7028 73.23 80.7028 74.2196 80.5054C74.3014 80.5144 74.3516 80.5641 74.3703 80.656C73.8429 80.7058 73.3155 80.757 72.7882 80.8067C72.2002 80.8052 71.6729 80.7043 71.2061 80.5054Z" fill="#222222"/>
<path opacity="0.451" fill-rule="evenodd" clip-rule="evenodd" d="M96.8213 80.5054C97.8414 80.7028 98.8449 80.7028 99.8348 80.5054C99.9162 80.5144 99.9674 80.5641 99.9855 80.656C99.4581 80.7058 98.9308 80.757 98.4034 80.8067C97.8158 80.8052 97.2884 80.7043 96.8213 80.5054Z" fill="#222222"/>
<path opacity="0.055" fill-rule="evenodd" clip-rule="evenodd" d="M113.697 66.4922C113.697 71.2129 113.697 75.9351 113.697 80.6558C116.811 80.6558 119.924 80.6558 123.039 80.6558C123.039 79.8527 123.039 79.0481 123.039 78.245C120.778 78.245 118.518 78.245 116.258 78.245C116.258 77.0396 116.258 75.8342 116.258 74.6288C117.965 74.6288 119.674 74.6288 121.381 74.6288C121.381 73.8256 121.381 73.021 121.381 72.2179C121.53 73.0436 121.58 73.8965 121.532 74.7794C119.825 74.7794 118.116 74.7794 116.409 74.7794C116.409 75.8839 116.409 76.9899 116.409 78.0943C118.669 78.0943 120.929 78.0943 123.189 78.0943C123.189 78.9984 123.189 79.9025 123.189 80.8065C119.975 80.8065 116.76 80.8065 113.546 80.8065C113.496 76.009 113.546 71.2385 113.697 66.4922Z" fill="#232323"/>
<path opacity="0.055" fill-rule="evenodd" clip-rule="evenodd" d="M140.216 80.5054C140.298 80.5144 140.349 80.5641 140.367 80.656C139.339 80.8549 138.334 80.8549 137.354 80.656C138.336 80.7043 139.291 80.6545 140.216 80.5054Z" fill="#212121"/>
<path opacity="0.532" fill-rule="evenodd" clip-rule="evenodd" d="M31.8785 84.2726C31.6255 84.241 31.4748 84.3404 31.4265 84.574C31.2902 84.467 31.2401 84.3163 31.2758 84.1219C31.5167 84.0813 31.7176 84.1325 31.8785 84.2726Z" fill="#222222"/>
<path opacity="0.566" fill-rule="evenodd" clip-rule="evenodd" d="M35.0431 84.2723C34.8233 84.2617 34.6224 84.3129 34.4404 84.4229C34.4585 84.2587 34.559 84.1593 34.7418 84.1216C34.8798 84.1276 34.9803 84.1788 35.0431 84.2723Z" fill="#232323"/>
<path opacity="0.562" fill-rule="evenodd" clip-rule="evenodd" d="M37.6045 84.2726C37.7654 84.1325 37.9663 84.0813 38.2072 84.1219C38.2429 84.3163 38.1927 84.467 38.0565 84.574C38.0082 84.3404 37.8575 84.241 37.6045 84.2726Z" fill="#232323"/>
<path opacity="0.508" fill-rule="evenodd" clip-rule="evenodd" d="M55.9868 84.2723C55.7338 84.2407 55.5831 84.3401 55.5348 84.5737C55.4192 84.4727 55.3187 84.3462 55.2334 84.197C55.5177 84.0795 55.7689 84.1051 55.9868 84.2723Z" fill="#222222"/>
<path opacity="0.481" fill-rule="evenodd" clip-rule="evenodd" d="M59.3027 84.2723C59.5206 84.1051 59.7718 84.0795 60.0561 84.197C59.9708 84.3462 59.8703 84.4727 59.7548 84.5737C59.7064 84.3401 59.5557 84.2407 59.3027 84.2723Z" fill="#222222"/>
<path opacity="0.329" fill-rule="evenodd" clip-rule="evenodd" d="M89.4375 84.5737C89.7389 84.5737 89.8895 84.7244 89.8895 85.0258C89.6887 84.9248 89.538 84.7741 89.4375 84.5737Z" fill="#252525"/>
<path opacity="0.757" fill-rule="evenodd" clip-rule="evenodd" d="M118.367 84.875C118.568 84.875 118.669 84.976 118.669 85.1764C118.518 85.1266 118.417 85.0257 118.367 84.875Z" fill="#333333"/>
</svg>
